G04*
G04 #@! TF.GenerationSoftware,Altium Limited,Altium Designer,20.0.13 (296)*
G04*
G04 Layer_Color=16711935*
%FSLAX44Y44*%
%MOMM*%
G71*
G01*
G75*
%ADD67C,1.9812*%
%ADD68R,1.9812X1.9812*%
%ADD69C,1.2032*%
%ADD70C,1.7272*%
%ADD71C,3.0032*%
G04:AMPARAMS|DCode=72|XSize=0.2032mm|YSize=0.2032mm|CornerRadius=0mm|HoleSize=0mm|Usage=FLASHONLY|Rotation=90.000|XOffset=0mm|YOffset=0mm|HoleType=Round|Shape=RoundedRectangle|*
%AMROUNDEDRECTD72*
21,1,0.2032,0.2032,0,0,90.0*
21,1,0.2032,0.2032,0,0,90.0*
1,1,0.0000,0.1016,0.1016*
1,1,0.0000,0.1016,-0.1016*
1,1,0.0000,-0.1016,-0.1016*
1,1,0.0000,-0.1016,0.1016*
%
%ADD72ROUNDEDRECTD72*%
%ADD73C,1.9532*%
%ADD74C,1.9032*%
%ADD75R,1.9812X1.9812*%
%ADD76C,1.6532*%
D67*
X1148800Y50000D02*
D03*
X1174200Y50000D02*
D03*
X1199600Y50000D02*
D03*
X1250400Y50000D02*
D03*
X1225000Y50000D02*
D03*
X932000Y50000D02*
D03*
X906600Y50000D02*
D03*
X881200Y50000D02*
D03*
X830400Y50000D02*
D03*
X855800Y50000D02*
D03*
X1389200Y50000D02*
D03*
X1414600Y50000D02*
D03*
X1440000Y50000D02*
D03*
X1490800Y50000D02*
D03*
X1465400Y50000D02*
D03*
X1022600D02*
D03*
X1048000Y50000D02*
D03*
D68*
X1275800Y50000D02*
D03*
X805000D02*
D03*
X1516200D02*
D03*
X1073400D02*
D03*
D69*
X1084000Y460000D02*
D03*
X1132800D02*
D03*
D70*
X1040600Y1211000D02*
D03*
X1091400D02*
D03*
X1066000D02*
D03*
D71*
X37500Y1500000D02*
D03*
X107500D02*
D03*
D72*
X75000Y1192000D02*
D03*
Y1046000D02*
D03*
Y735000D02*
D03*
Y589000D02*
D03*
Y288000D02*
D03*
Y142000D02*
D03*
D73*
X115000Y1159000D02*
D03*
X102500Y1079000D02*
D03*
X70000Y1119000D02*
D03*
X115000Y702000D02*
D03*
X102500Y622000D02*
D03*
X70000Y662000D02*
D03*
X115000Y255000D02*
D03*
X102500Y175000D02*
D03*
X70000Y215000D02*
D03*
D74*
X167500Y1339000D02*
D03*
Y1289000D02*
D03*
X80000Y1339000D02*
D03*
Y1314000D02*
D03*
Y1289000D02*
D03*
X105000D02*
D03*
Y1314000D02*
D03*
Y1339000D02*
D03*
X167500Y882000D02*
D03*
Y832000D02*
D03*
X80000Y882000D02*
D03*
Y857000D02*
D03*
Y832000D02*
D03*
X105000D02*
D03*
Y857000D02*
D03*
Y882000D02*
D03*
X167500Y435000D02*
D03*
Y385000D02*
D03*
X80000Y435000D02*
D03*
Y410000D02*
D03*
Y385000D02*
D03*
X105000D02*
D03*
Y410000D02*
D03*
Y435000D02*
D03*
D75*
X830000Y1512000D02*
D03*
X887000Y1514000D02*
D03*
X1450000Y1354000D02*
D03*
Y1204000D02*
D03*
Y1054000D02*
D03*
Y904000D02*
D03*
Y754000D02*
D03*
Y604000D02*
D03*
D76*
X926250Y539250D02*
D03*
Y489250D02*
D03*
X1249000Y904000D02*
D03*
X1199000D02*
D03*
X1249000Y1054000D02*
D03*
X1199000D02*
D03*
X1249000Y1204000D02*
D03*
X1199000D02*
D03*
X1186000Y778000D02*
D03*
X1206000D02*
D03*
X1249000Y1354000D02*
D03*
X1199000D02*
D03*
M02*
