G04*
G04 #@! TF.GenerationSoftware,Altium Limited,Altium Designer,20.0.13 (296)*
G04*
G04 Layer_Physical_Order=1*
G04 Layer_Color=255*
%FSLAX44Y44*%
%MOMM*%
G71*
G01*
G75*
%ADD10C,0.6000*%
%ADD15C,0.2540*%
%ADD16C,0.5000*%
%ADD19R,0.9144X1.2700*%
%ADD20R,0.9144X0.9144*%
%ADD21O,1.6000X0.4000*%
%ADD22R,0.2500X1.4000*%
%ADD23O,0.2500X1.4000*%
%ADD24O,1.4000X0.2500*%
%ADD25O,0.2500X1.5500*%
%ADD26O,1.5500X0.2500*%
%ADD27R,1.3000X1.5000*%
%ADD28R,1.1000X0.6000*%
%ADD29R,1.5000X1.3000*%
%ADD30R,1.0000X1.1000*%
%ADD31R,1.8000X1.6000*%
%ADD32R,1.1000X1.0000*%
%ADD33R,1.6000X1.8000*%
%ADD34R,1.0000X1.4000*%
%ADD35R,1.1000X0.6000*%
%ADD36R,2.0000X3.5000*%
%ADD37R,1.2700X0.7200*%
%ADD38R,1.6000X0.9000*%
%ADD39R,2.2000X2.8000*%
%ADD40R,2.8000X2.8000*%
%ADD41R,2.8000X2.8000*%
%ADD42R,0.7500X0.2500*%
%ADD77C,0.3810*%
%ADD78C,1.7780*%
%ADD79R,1.7780X1.7780*%
%ADD80C,1.0000*%
%ADD81C,1.5240*%
%ADD82C,2.8000*%
%ADD83C,1.7500*%
%ADD84C,1.7000*%
%ADD85R,1.7780X1.7780*%
%ADD86C,1.4500*%
%ADD87C,0.6000*%
G36*
X850000Y1540000D02*
Y1325000D01*
X630000D01*
X625000Y1330000D01*
Y1460000D01*
X385000D01*
X380000Y1465000D01*
Y1555000D01*
X835000D01*
X850000Y1540000D01*
D02*
G37*
G36*
X840000Y1175000D02*
X955000D01*
X960000Y1170000D01*
Y1070000D01*
X795000D01*
X785000Y1080000D01*
Y1190000D01*
X840000D01*
Y1175000D01*
D02*
G37*
G36*
X1073000Y1189500D02*
X1078750D01*
Y1171000D01*
X1078543Y1170500D01*
X1046750D01*
Y1089909D01*
X1045577Y1089423D01*
X1045250Y1089750D01*
X984750D01*
Y1153000D01*
Y1154500D01*
X984637Y1155291D01*
X985469Y1156250D01*
X1025250D01*
Y1186000D01*
X1029000Y1189750D01*
X1072750D01*
X1073000Y1189500D01*
D02*
G37*
D10*
X1092375Y1262125D02*
X1092500Y1262000D01*
X1092250Y1262250D02*
X1092375Y1262125D01*
X830000Y1474000D02*
X830250Y1473750D01*
X830000Y1474000D02*
Y1512000D01*
X1093000Y1140500D02*
X1118000D01*
X1010000Y1209500D02*
X1010750Y1210250D01*
X1039850D01*
X1040600Y1211000D01*
X1092500Y1241000D02*
Y1262000D01*
X991750Y1190500D02*
X1010000D01*
X991000Y1189750D02*
X991750Y1190500D01*
X888000Y1220250D02*
X892500Y1224750D01*
X912750D01*
X888000Y1187500D02*
Y1220250D01*
X913000Y1187500D02*
Y1201485D01*
X916515Y1205000D01*
X935250D01*
X862000Y1233500D02*
X875485D01*
X879000Y1237015D01*
Y1252500D01*
X663515Y1213000D02*
X667485D01*
X670293Y1197457D02*
X671750Y1196000D01*
X670293Y1197457D02*
Y1210192D01*
X667485Y1213000D02*
X670293Y1210192D01*
X660000Y1216515D02*
Y1233000D01*
Y1216515D02*
X663515Y1213000D01*
X632250Y1233000D02*
X660000D01*
X625000D02*
X632250D01*
Y1219250D02*
Y1233000D01*
X632000Y1219000D02*
X632250Y1219250D01*
X624750Y1233250D02*
X625000Y1233000D01*
X637500Y1260750D02*
Y1275250D01*
Y1252750D02*
Y1260750D01*
X637250Y1252500D02*
X637500Y1252750D01*
X637750Y1261000D02*
X660000D01*
X637500Y1260750D02*
X637750Y1261000D01*
X682250Y1255500D02*
X694000D01*
X660000Y1261000D02*
X676750D01*
X682250Y1255500D01*
X680000Y1238500D02*
X694000D01*
X674500Y1233000D02*
X680000Y1238500D01*
X660000Y1233000D02*
X674500D01*
D15*
X1122500Y357801D02*
Y367000D01*
Y350665D02*
X1123370Y351535D01*
Y356931D01*
X1127500Y339000D02*
Y349810D01*
X1131778Y354088D01*
X1136588D02*
X1137250Y354750D01*
X1122500Y357801D02*
X1123370Y356931D01*
X1122500Y367000D02*
X1123000Y367500D01*
X1131778Y354088D02*
X1136588D01*
X1122500Y339000D02*
Y350665D01*
X737000Y728000D02*
X739000Y730000D01*
X754000D01*
Y736500D01*
Y723500D02*
Y730000D01*
X722500Y754000D02*
Y775500D01*
X720750Y777250D02*
X722500Y775500D01*
X1053250Y702500D02*
X1064000D01*
X1035000Y708000D02*
X1047750D01*
X1053250Y702500D01*
X1064000D02*
X1065500Y701000D01*
X1091000D01*
X1094000Y704000D02*
Y711000D01*
X1091000Y701000D02*
X1094000Y704000D01*
X1040000Y659250D02*
X1048500D01*
X1035000Y680000D02*
X1036250Y678750D01*
Y663000D02*
X1040000Y659250D01*
X1036250Y663000D02*
Y678750D01*
X910625Y635625D02*
X911000Y636000D01*
X910250Y635250D02*
X910625Y635625D01*
X1064000Y685500D02*
X1082000D01*
X1082000Y685500D01*
X1255500Y714000D02*
Y731000D01*
Y714000D02*
X1256250Y713250D01*
X1232250Y755500D02*
X1250000D01*
X1232000Y755250D02*
X1232250Y755500D01*
X1205000Y713500D02*
X1216250D01*
X1217500Y712250D01*
X1182000Y695000D02*
Y712500D01*
Y695000D02*
X1182500Y694500D01*
X1153000Y653000D02*
X1172250D01*
X1172500Y652750D01*
X1139000Y711000D02*
X1145762D01*
X1147250Y686750D02*
X1153000Y681000D01*
X1147250Y686750D02*
Y709512D01*
X1145762Y711000D02*
X1147250Y709512D01*
X1154488Y699750D02*
X1159941D01*
X1153000Y701238D02*
X1154488Y699750D01*
X1151512Y716000D02*
X1153000Y714512D01*
Y701238D02*
Y714512D01*
X1139000Y721000D02*
X1158250D01*
X1159750Y719500D01*
X1139000Y716000D02*
X1151512D01*
X1182000Y731500D02*
X1204000D01*
X1205000Y730500D01*
X1181500Y732000D02*
X1182000Y731500D01*
X1181500Y732000D02*
Y745500D01*
X1180838Y746162D02*
X1181500Y745500D01*
X1169500Y727488D02*
Y745012D01*
X1174822Y746162D02*
X1180838D01*
X1174484Y746500D02*
X1174822Y746162D01*
X1170988Y746500D02*
X1174484D01*
X1169500Y745012D02*
X1170988Y746500D01*
X1139000Y726000D02*
X1168012D01*
X1169500Y727488D01*
X899750Y427000D02*
X900000Y426750D01*
X1167000Y479500D02*
X1181250D01*
X1181250Y479500D01*
X1165000Y513500D02*
X1180000D01*
X1180500Y514000D01*
X1079750Y534500D02*
X1093000D01*
X1079250Y534000D02*
X1079750Y534500D01*
X1036482Y537500D02*
X1067762D01*
X1069250Y538988D01*
Y557646D01*
X1070738Y559134D01*
X1091268D01*
X1054000Y478500D02*
Y495000D01*
X1054000Y495000D02*
X1054000Y495000D01*
Y518500D02*
X1071250D01*
X1071500Y518250D01*
X1045750Y299500D02*
X1083000D01*
X1037250Y291000D02*
X1045750Y299500D01*
X1036250Y291000D02*
X1037250D01*
X1067000Y304500D02*
X1083000D01*
X1064500Y307000D02*
X1067000Y304500D01*
X1123000Y386500D02*
Y400262D01*
X1121512Y401750D02*
X1123000Y400262D01*
X1113500Y401750D02*
X1121512D01*
X1034750Y254250D02*
X1036250Y255750D01*
Y272000D01*
Y291000D02*
Y306750D01*
X900000Y412000D02*
Y426750D01*
X926250Y438488D02*
Y489250D01*
X842750Y421482D02*
Y429191D01*
X921602Y433839D02*
X926250Y438488D01*
X847398Y433839D02*
X921602D01*
X842750Y429191D02*
X847398Y433839D01*
X745000Y431000D02*
Y449000D01*
X744500Y449500D02*
X745000Y449000D01*
X944000Y644250D02*
Y662500D01*
X943750Y644000D02*
X944000Y644250D01*
X911000Y636000D02*
Y653000D01*
X876000Y644000D02*
Y663500D01*
Y644000D02*
X876000Y644000D01*
X817750Y653000D02*
X843000D01*
X860500Y770750D02*
X860750Y771000D01*
X860250Y770500D02*
X860500Y770750D01*
X678250Y796000D02*
X678500Y796250D01*
X678000Y795750D02*
X678250Y796000D01*
X755000Y355500D02*
X769750D01*
X754801D02*
X755000D01*
X851500Y700250D02*
X855000Y703750D01*
X704500Y644000D02*
Y665000D01*
Y644000D02*
X705000Y643500D01*
X680000Y625250D02*
Y641500D01*
Y625250D02*
X680500Y624750D01*
X678000Y777500D02*
Y795750D01*
X1109500Y213750D02*
X1121012D01*
X1094580D02*
X1109500D01*
X908000Y761500D02*
X924250D01*
X924250Y761500D01*
X860750Y771000D02*
X877000D01*
X810000Y736500D02*
X835750D01*
X842750Y743500D01*
X823750Y749500D02*
X827012D01*
X828750Y751238D02*
Y764500D01*
X827012Y749500D02*
X828750Y751238D01*
X810000Y749500D02*
X823750D01*
X823750Y749500D01*
X810000Y717000D02*
X853000D01*
X855000Y715000D01*
Y703750D02*
Y715000D01*
X829500Y517750D02*
X830000Y518250D01*
X847250D01*
X751000Y360000D02*
X751500Y360500D01*
X750551Y351250D02*
X754801Y355500D01*
X738868Y365870D02*
X762920D01*
X727000Y370500D02*
X769750D01*
X751500Y360500D02*
X769750D01*
X970750Y252500D02*
X980762D01*
X982250Y253988D02*
Y262750D01*
X980762Y252500D02*
X982250Y253988D01*
X970500Y252750D02*
X970750Y252500D01*
X953000Y271250D02*
X953125Y271375D01*
X972875D01*
X973000Y271500D01*
X1071000Y284500D02*
X1083000D01*
X1167000Y274500D02*
X1178500D01*
X1181000Y272000D01*
X837250Y281131D02*
Y282512D01*
Y279750D02*
Y281131D01*
X858301Y240250D02*
X917563Y299512D01*
X857750Y240250D02*
X858301D01*
X917563Y299512D02*
X959539D01*
X992500Y266551D01*
Y163500D02*
Y266551D01*
X667000Y324500D02*
X744753D01*
X755753Y335500D01*
X738750Y743000D02*
X754000D01*
X738500Y743250D02*
X738750Y743000D01*
X658250Y316250D02*
X743256D01*
X757506Y330500D01*
X744250Y1016500D02*
X770750D01*
X744000Y1016750D02*
X744250Y1016500D01*
X1114000Y243218D02*
X1117500Y246718D01*
X1114000Y230000D02*
Y243218D01*
X1122500Y215238D02*
Y255000D01*
X1121012Y213750D02*
X1122500Y215238D01*
X1117500Y246718D02*
Y255000D01*
X1105500Y231250D02*
Y243000D01*
X1102500Y246000D02*
X1105500Y243000D01*
X1114750Y195730D02*
Y199000D01*
X1126012Y194750D02*
X1127500Y196238D01*
X1114750Y195730D02*
X1115730Y194750D01*
X1126012D01*
X1127500Y196238D02*
Y255000D01*
X1147500Y241988D02*
X1148988Y240500D01*
X1182512D02*
X1184000Y239012D01*
X1147500Y241988D02*
Y255000D01*
X1184000Y202738D02*
Y239012D01*
X1148988Y240500D02*
X1182512D01*
X1152500Y255000D02*
X1152520Y254980D01*
X1189512Y244750D02*
X1191000Y243262D01*
X1154008Y244750D02*
X1189512D01*
X1152520Y246238D02*
Y254980D01*
Y246238D02*
X1154008Y244750D01*
X1176250Y251738D02*
X1177738Y250250D01*
X1176250Y251738D02*
Y268012D01*
X1177738Y250250D02*
X1196762D01*
X1198250Y248762D01*
X1185488Y201250D02*
X1221262D01*
X1184000Y202738D02*
X1185488Y201250D01*
X1222750Y52250D02*
Y199762D01*
X1221262Y201250D02*
X1222750Y199762D01*
Y52250D02*
X1225000Y50000D01*
X1199600Y50000D02*
X1199750Y50150D01*
Y74000D01*
X1174200Y50000D02*
X1174250Y50050D01*
Y75500D01*
X1102500Y246000D02*
Y255000D01*
X1162500Y196500D02*
Y210250D01*
X1162250Y196250D02*
X1162500Y196500D01*
X1093250Y194750D02*
X1109500D01*
X1093250Y194750D02*
X1093250Y194750D01*
X1093092Y210158D02*
X1093750Y209500D01*
X1093092Y212262D02*
X1094580Y213750D01*
X1093092Y210158D02*
Y212262D01*
X1193750Y307494D02*
Y309000D01*
Y305988D02*
Y307494D01*
X1193500Y305988D02*
X1193750D01*
X1516200Y50000D02*
Y76700D01*
X1516250Y76750D01*
X1490800Y50000D02*
X1491000Y50200D01*
Y77250D01*
X1167000Y304500D02*
X1192012D01*
X1193500Y305988D01*
X1167000Y309500D02*
X1184262D01*
X1185750Y310988D01*
Y319000D01*
X1201250Y301732D02*
Y311268D01*
X1217000Y313500D02*
X1217250Y313750D01*
X1203482Y313500D02*
X1217000D01*
X1201250Y311268D02*
X1203482Y313500D01*
X1167000Y299500D02*
X1199018D01*
X1201250Y301732D01*
X1233500Y313750D02*
X1233500Y313750D01*
X1167000Y294500D02*
X1217000D01*
X1282988Y106750D02*
X1463012D01*
X1465400Y50000D02*
Y104362D01*
X1463012Y106750D02*
X1465400Y104362D01*
X1281500Y108238D02*
Y229262D01*
Y108238D02*
X1282988Y106750D01*
X1432750Y99250D02*
X1438750Y93250D01*
Y51250D02*
X1440000Y50000D01*
X1276738Y99250D02*
X1432750D01*
X1438750Y51250D02*
Y93250D01*
X1275250Y100738D02*
X1276738Y99250D01*
X1269238Y91250D02*
X1411750D01*
X1414750Y50150D02*
Y88250D01*
X1411750Y91250D02*
X1414750Y88250D01*
X1217988Y230750D02*
X1280012D01*
X1281500Y229262D01*
X1216500Y232238D02*
Y264250D01*
Y232238D02*
X1217988Y230750D01*
X1213375Y224625D02*
X1273762D01*
X1275250Y223137D01*
Y100738D02*
Y223137D01*
X1197750Y269238D02*
Y288012D01*
Y269238D02*
X1199238Y267750D01*
X1213000D01*
X1216500Y264250D01*
X1167000Y289500D02*
X1196262D01*
X1197750Y288012D01*
X1210750Y227250D02*
X1213375Y224625D01*
X1206738Y219750D02*
X1266262D01*
X1267750Y92738D02*
Y218262D01*
X1266262Y219750D02*
X1267750Y218262D01*
X1210750Y227250D02*
Y261012D01*
X1194238Y262500D02*
X1209262D01*
X1210750Y261012D01*
X1192750Y263988D02*
Y282500D01*
Y263988D02*
X1194238Y262500D01*
X1167000Y284500D02*
X1190750D01*
X1192750Y282500D01*
X1167000Y279500D02*
X1185500D01*
X1188250Y259238D02*
Y276750D01*
X1185500Y279500D02*
X1188250Y276750D01*
X1414600Y50000D02*
X1414750Y50150D01*
X1267750Y92738D02*
X1269238Y91250D01*
X1388500Y50700D02*
Y80000D01*
X1385750Y82750D02*
X1388500Y80000D01*
Y50700D02*
X1389200Y50000D01*
X1261238Y82750D02*
X1385750D01*
X1199738Y213500D02*
X1256250D01*
X1248912Y206750D02*
X1250400Y205262D01*
X1256250Y213500D02*
X1259750Y210000D01*
X1250400Y50000D02*
Y205262D01*
X1259750Y84238D02*
Y210000D01*
X1192488Y206750D02*
X1248912D01*
X1259750Y84238D02*
X1261238Y82750D01*
X1198250Y214988D02*
X1199738Y213500D01*
X1198250Y214988D02*
Y248762D01*
X1205250Y221238D02*
Y256262D01*
Y221238D02*
X1206738Y219750D01*
X1191000Y208238D02*
X1192488Y206750D01*
X1191000Y208238D02*
Y243262D01*
X1189738Y257750D02*
X1203762D01*
X1205250Y256262D01*
X1188250Y259238D02*
X1189738Y257750D01*
X1167000Y269500D02*
X1174762D01*
X1176250Y268012D01*
X1152500Y339000D02*
Y356250D01*
X1086000Y732488D02*
Y741762D01*
X1087738Y743500D02*
X1095500D01*
X1086000Y741762D02*
X1087738Y743500D01*
X1087488Y731000D02*
X1094000D01*
X1086000Y732488D02*
X1087488Y731000D01*
X797500Y306290D02*
X798370Y305420D01*
Y294937D02*
Y305420D01*
X797500Y306290D02*
Y312750D01*
X788933Y285500D02*
X798370Y294937D01*
X792500Y297750D02*
Y312750D01*
X802510Y291010D02*
Y312740D01*
X797500Y286000D02*
X802510Y291010D01*
X802500Y312750D02*
X802510Y312740D01*
X787480Y302666D02*
Y312730D01*
X783684Y298870D02*
X787480Y302666D01*
Y312730D02*
X787500Y312750D01*
X782500Y305189D02*
Y312750D01*
X781012Y303701D02*
X782500Y305189D01*
X769738Y298870D02*
X783684D01*
X797500Y238250D02*
Y286000D01*
X807500Y283232D02*
Y312750D01*
X803500Y279232D02*
X807500Y283232D01*
X812500Y272000D02*
Y312750D01*
X768250Y263000D02*
Y297382D01*
X769738Y298870D01*
X763868Y303701D02*
X781012D01*
X762380Y302213D02*
X763868Y303701D01*
X762380Y255882D02*
Y302213D01*
Y255882D02*
X771500Y246762D01*
X835250Y125250D02*
X862250D01*
X865500Y128500D02*
X879000D01*
X862250Y125250D02*
X865500Y128500D01*
X818500Y128000D02*
X832500D01*
X835250Y125250D01*
X805250Y50250D02*
Y90250D01*
X805000Y50000D02*
X805250Y50250D01*
X803750Y91750D02*
X805250Y90250D01*
X799500Y93238D02*
Y128000D01*
Y93238D02*
X800988Y91750D01*
X803750D01*
X1050250Y223250D02*
X1051000Y222500D01*
X1050250Y223250D02*
Y293012D01*
X1051738Y294500D02*
X1083000D01*
X1050250Y293012D02*
X1051738Y294500D01*
X1062500Y223000D02*
Y273012D01*
Y221195D02*
Y223000D01*
X1073488Y269480D02*
X1082980D01*
X1072000Y267992D02*
X1073488Y269480D01*
X1072000Y223500D02*
Y267992D01*
X1063988Y274500D02*
X1083000D01*
X1062500Y273012D02*
X1063988Y274500D01*
X1096012Y229000D02*
X1097500Y230488D01*
Y255000D01*
X1083750Y229000D02*
X1096012D01*
X1082980Y269480D02*
X1083000Y269500D01*
X932000Y50000D02*
X932250Y50250D01*
Y79250D01*
X881200Y50000D02*
X881500Y50300D01*
Y77750D01*
X906600Y50000D02*
X907000Y50400D01*
Y78250D01*
X946500Y279750D02*
X946750Y280000D01*
X962750D01*
X1058238Y314500D02*
X1083000D01*
X1056750Y315988D02*
X1058238Y314500D01*
X1056750Y315988D02*
Y319000D01*
X946500Y288000D02*
X962750D01*
X1167000Y324500D02*
X1177762D01*
X1179250Y325988D01*
Y348000D01*
X1143988Y233500D02*
X1162750D01*
X1142500Y234988D02*
X1143988Y233500D01*
X1142500Y234988D02*
Y255000D01*
X876670Y307988D02*
X878158Y306500D01*
X863000Y313186D02*
X864798Y314984D01*
X850250Y330500D02*
X861810D01*
X853912Y315162D02*
X860658Y321908D01*
X850250Y325500D02*
X859170D01*
X869382Y335500D02*
X870870Y334012D01*
X863000Y312250D02*
Y313186D01*
X859170Y325500D02*
X860658Y324012D01*
X848912Y315162D02*
X853912D01*
X870500Y306750D02*
X870870Y307120D01*
Y334012D01*
X864798Y314984D02*
Y327512D01*
X860658Y321908D02*
Y324012D01*
X878158Y306500D02*
X998012D01*
X861810Y330500D02*
X864798Y327512D01*
X870237Y340500D02*
X876670Y334067D01*
Y307988D02*
Y334067D01*
X848250Y314500D02*
X848912Y315162D01*
X1132500Y211482D02*
Y255000D01*
X1142268Y211482D02*
X1142928Y210822D01*
X1132500Y211482D02*
X1142268D01*
X1142928Y210822D02*
Y211320D01*
X1138270Y215979D02*
X1142928Y211320D01*
X1018250Y180500D02*
X1141268D01*
X1143500Y182732D01*
Y210250D01*
X1069238Y319500D02*
X1083000D01*
X1065000Y323738D02*
X1069238Y319500D01*
X1065000Y323738D02*
Y342000D01*
X1071750Y347750D02*
X1072000Y348000D01*
X1071750Y325988D02*
Y347750D01*
Y325988D02*
X1073238Y324500D01*
X1083000D01*
X1083000Y324500D01*
X994500Y161500D02*
X1021012D01*
X1022500Y50100D02*
Y160012D01*
X1021012Y161500D02*
X1022500Y160012D01*
Y50100D02*
X1022600Y50000D01*
X992500Y163500D02*
X994500Y161500D01*
X884500Y312488D02*
Y341750D01*
Y312488D02*
X885988Y311000D01*
X939000D01*
X1073400Y50000D02*
Y172262D01*
X1071912Y173750D02*
X1073400Y172262D01*
X1010500Y173750D02*
X1071912D01*
X1000988Y167250D02*
X1049670D01*
X1048000Y50000D02*
Y108364D01*
X1051158Y111522D01*
Y165762D01*
X1049670Y167250D02*
X1051158Y165762D01*
X999500Y168738D02*
Y305012D01*
Y168738D02*
X1000988Y167250D01*
X998012Y306500D02*
X999500Y305012D01*
X1005500Y178750D02*
Y309762D01*
Y178750D02*
X1010500Y173750D01*
X939250Y311250D02*
X1004012D01*
X1005500Y309762D01*
X939000Y311000D02*
X939250Y311250D01*
X880750Y345500D02*
X884500Y341750D01*
X850250Y345500D02*
X880750D01*
X850250Y340500D02*
X870237D01*
X889250Y335732D02*
X898768D01*
X889250D02*
Y346018D01*
X850250Y335500D02*
X869382D01*
X863000Y270988D02*
Y299262D01*
X861512Y300750D02*
X863000Y299262D01*
X838988Y300750D02*
X861512D01*
Y269500D02*
X863000Y270988D01*
X839988Y269500D02*
X861512D01*
X1013000Y317500D02*
X1032018D01*
X902732D02*
X1013000D01*
Y185750D02*
X1018250Y180500D01*
X1013000Y185750D02*
Y317500D01*
X1034250Y319732D02*
Y535268D01*
X1036482Y537500D01*
X1032018Y317500D02*
X1034250Y319732D01*
X900500D02*
Y334000D01*
Y319732D02*
X902732Y317500D01*
X1091268Y559134D02*
X1093500Y561366D01*
Y574000D01*
X1059250D02*
X1093500D01*
X1078982Y716000D02*
X1094000D01*
X1076750Y713768D02*
X1078982Y716000D01*
X1076750Y709750D02*
Y713768D01*
X1082238Y726000D02*
X1094000D01*
X1080750Y727488D02*
X1082238Y726000D01*
X1080750Y727488D02*
Y804963D01*
X1058300Y805700D02*
X1059275Y804725D01*
X870962Y805700D02*
X1058300D01*
X848012Y782750D02*
X870962Y805700D01*
X829000Y812000D02*
X1070250D01*
X740750Y782750D02*
X848012D01*
X740250Y782250D02*
X740750Y782750D01*
X740250Y752626D02*
Y782250D01*
Y752626D02*
X743375Y749500D01*
X754000D01*
X743000Y569500D02*
X743250Y569750D01*
Y586750D01*
X865232Y418250D02*
X881000D01*
X863000Y416018D02*
X865232Y418250D01*
X863000Y382732D02*
Y416018D01*
X887250Y412000D02*
X900000D01*
X881000Y418250D02*
X887250Y412000D01*
X868750Y405762D02*
X870238Y407250D01*
X887250Y392238D02*
Y405762D01*
X885762Y407250D02*
X887250Y405762D01*
X870238Y407250D02*
X885762D01*
X868750Y378500D02*
Y405762D01*
X838500Y243750D02*
Y259500D01*
X792500Y393250D02*
Y409738D01*
X787738Y414500D02*
X792500Y409738D01*
X817500Y393250D02*
Y440512D01*
X827500Y411882D02*
X829488Y413870D01*
X822500Y417018D02*
X824732Y419250D01*
X822500Y393250D02*
Y417018D01*
X818988Y442000D02*
X834500D01*
X817500Y440512D02*
X818988Y442000D01*
X807500Y406250D02*
X812000Y410750D01*
X827500Y393250D02*
Y411882D01*
X824732Y419250D02*
X840518D01*
X802500Y393250D02*
Y411750D01*
X803360Y412610D01*
X807500Y393250D02*
Y406250D01*
X797500Y393250D02*
Y412750D01*
X764250Y416500D02*
Y448500D01*
X781983Y411890D02*
X786640Y407233D01*
X764250Y416500D02*
X768860Y411890D01*
X781983D01*
X787500Y393250D02*
Y399710D01*
X786640Y400570D02*
X787500Y399710D01*
X786640Y400570D02*
Y407233D01*
X780268Y407750D02*
X782500Y405518D01*
Y393250D02*
Y405518D01*
X762500Y407750D02*
X780268D01*
X840518Y419250D02*
X842750Y421482D01*
X829488Y413870D02*
X849103D01*
X850591Y415358D01*
Y419591D01*
X850750Y419750D01*
X832500Y405768D02*
X834732Y408000D01*
X837500D01*
X832500Y393250D02*
Y405768D01*
X837500Y408000D02*
X849350D01*
X837500Y393250D02*
Y408000D01*
X882250Y350232D02*
X884482Y348000D01*
X882250Y350232D02*
Y358268D01*
X884482Y348000D02*
X887268D01*
X865250Y353500D02*
X875000D01*
X880018Y360500D02*
X882250Y358268D01*
X850250Y360500D02*
X880018D01*
X862250Y350500D02*
X865250Y353500D01*
X887268Y348000D02*
X889250Y346018D01*
X850250Y350500D02*
X862250D01*
X898768Y335732D02*
X900500Y334000D01*
X888988Y353000D02*
X900000D01*
X887500Y354488D02*
Y384750D01*
Y354488D02*
X888988Y353000D01*
X850250Y365500D02*
X877518D01*
X879750Y367732D01*
Y378250D01*
X880250Y378750D01*
X875488Y400250D02*
X881622D01*
X883110Y398762D01*
Y389140D02*
Y398762D01*
Y389140D02*
X887500Y384750D01*
X888738Y390750D02*
X900250D01*
X887250Y392238D02*
X888738Y390750D01*
X874000Y371988D02*
Y398762D01*
X875488Y400250D01*
X850250Y370500D02*
X872512D01*
X874000Y371988D01*
X919500Y391000D02*
X943500D01*
X900000Y372000D02*
Y390500D01*
X900250Y390750D01*
X865750Y375500D02*
X868750Y378500D01*
X850250Y375500D02*
X865750D01*
X850250Y380500D02*
X860768D01*
X863000Y382732D01*
X803500Y276750D02*
Y279232D01*
X829500Y273000D02*
Y277012D01*
X819750Y278500D02*
X828012D01*
X829500Y277012D01*
X817500Y280750D02*
X819750Y278500D01*
X817500Y280750D02*
Y312750D01*
X823988Y284000D02*
X835762D01*
X837250Y282512D01*
X822500Y285488D02*
Y312750D01*
Y285488D02*
X823988Y284000D01*
X830000Y289750D02*
X843762D01*
X827500Y292250D02*
Y312750D01*
Y292250D02*
X830000Y289750D01*
X845250Y284500D02*
Y288262D01*
X843762Y289750D02*
X845250Y288262D01*
X833988Y295750D02*
X854012D01*
X832500Y297238D02*
Y312750D01*
Y297238D02*
X833988Y295750D01*
X855500Y288750D02*
Y294262D01*
X854012Y295750D02*
X855500Y294262D01*
X837500Y302238D02*
Y312750D01*
X838500Y259500D02*
Y268012D01*
X839988Y269500D01*
X837500Y302238D02*
X838988Y300750D01*
X788933Y273183D02*
Y285500D01*
X788250Y272500D02*
X788933Y273183D01*
X771500Y239000D02*
X771500Y239000D01*
Y246762D01*
X771500Y218988D02*
Y239000D01*
X785738Y238250D02*
X797500D01*
X784250Y239738D02*
X785738Y238250D01*
X784250Y239738D02*
Y248500D01*
X784750Y249000D01*
X796778Y197750D02*
X797348Y197180D01*
X783500Y197750D02*
X796778D01*
X841000Y225500D02*
X841750Y226250D01*
Y240500D01*
X838500Y243750D02*
X841750Y240500D01*
X824250Y225500D02*
X841000D01*
X816250Y217500D02*
X824250Y225500D01*
X807000Y217500D02*
X816250D01*
X772988D02*
X807000D01*
X771500Y218988D02*
X772988Y217500D01*
X797500Y238250D02*
X797500Y238250D01*
X751500Y317742D02*
X759379Y325621D01*
X751500Y309250D02*
Y317742D01*
X769629Y325621D02*
X769750Y325500D01*
X759379Y325621D02*
X769629D01*
X757506Y330500D02*
X769750D01*
X755753Y335500D02*
X769750D01*
X732250Y336500D02*
X735699D01*
X741069Y341870D01*
X744370D01*
X748000Y345500D01*
X743500Y336000D02*
X749500D01*
X754000Y340500D01*
X748000Y345500D02*
X769750D01*
X754000Y340500D02*
X769750D01*
X1117500Y339000D02*
Y354500D01*
X727250Y348250D02*
X735892D01*
X737380Y364382D02*
X738868Y365870D01*
X735892Y348250D02*
X737380Y349738D01*
Y364382D01*
X762920Y365870D02*
X763270Y365520D01*
X743250Y351250D02*
X750551D01*
X743250D02*
Y351750D01*
X755000Y355500D02*
X760000Y350500D01*
X769750D01*
X726500Y349000D02*
X727250Y348250D01*
X754500Y377732D02*
Y390768D01*
X727500Y394000D02*
X728500Y393000D01*
X752268D01*
X754500Y390768D01*
X756732Y375500D02*
X769750D01*
X754500Y377732D02*
X756732Y375500D01*
X759750Y410500D02*
Y428518D01*
X745000Y431000D02*
X745250Y430750D01*
X757518D01*
X759750Y428518D01*
Y410500D02*
X762500Y407750D01*
X1070250Y812000D02*
X1070750Y722488D01*
X1072238Y721000D02*
X1094000D01*
X1070750Y722488D02*
X1072238Y721000D01*
X810000Y749500D02*
X810250Y749750D01*
X1038750Y594500D02*
X1059250Y574000D01*
D16*
X547982Y216000D02*
X564000D01*
D19*
X807000Y217500D02*
D03*
D20*
X816398Y197180D02*
D03*
X797348D02*
D03*
D21*
X770750Y1023000D02*
D03*
Y1016500D02*
D03*
Y1010000D02*
D03*
Y1003500D02*
D03*
Y997000D02*
D03*
Y990500D02*
D03*
Y984000D02*
D03*
X826750Y1023000D02*
D03*
Y1016500D02*
D03*
Y1010000D02*
D03*
Y1003500D02*
D03*
Y997000D02*
D03*
Y990500D02*
D03*
Y984000D02*
D03*
X810000Y710500D02*
D03*
Y717000D02*
D03*
Y723500D02*
D03*
Y730000D02*
D03*
Y736500D02*
D03*
Y743000D02*
D03*
Y749500D02*
D03*
X754000Y710500D02*
D03*
Y717000D02*
D03*
Y723500D02*
D03*
Y730000D02*
D03*
Y736500D02*
D03*
Y743000D02*
D03*
Y749500D02*
D03*
D22*
X1152500Y339000D02*
D03*
D23*
X1147500D02*
D03*
X1142500D02*
D03*
X1137500D02*
D03*
X1132500D02*
D03*
X1127500D02*
D03*
X1122500D02*
D03*
X1117500D02*
D03*
X1112500D02*
D03*
X1107500D02*
D03*
X1102500D02*
D03*
X1097500D02*
D03*
Y255000D02*
D03*
X1102500D02*
D03*
X1107500D02*
D03*
X1112500D02*
D03*
X1117500D02*
D03*
X1122500D02*
D03*
X1127500D02*
D03*
X1132500D02*
D03*
X1137500D02*
D03*
X1142500D02*
D03*
X1147500D02*
D03*
X1152500D02*
D03*
D24*
X1083000Y324500D02*
D03*
Y319500D02*
D03*
Y314500D02*
D03*
Y309500D02*
D03*
Y304500D02*
D03*
Y299500D02*
D03*
Y294500D02*
D03*
Y289500D02*
D03*
Y284500D02*
D03*
Y279500D02*
D03*
Y274500D02*
D03*
Y269500D02*
D03*
X1167000D02*
D03*
Y274500D02*
D03*
Y279500D02*
D03*
Y284500D02*
D03*
Y289500D02*
D03*
Y294500D02*
D03*
Y299500D02*
D03*
Y304500D02*
D03*
Y309500D02*
D03*
Y314500D02*
D03*
Y319500D02*
D03*
Y324500D02*
D03*
D25*
X782500Y393250D02*
D03*
X787500D02*
D03*
X792500D02*
D03*
X797500D02*
D03*
X802500D02*
D03*
X807500D02*
D03*
X812500D02*
D03*
X817500D02*
D03*
X822500D02*
D03*
X827500D02*
D03*
X832500D02*
D03*
X837500D02*
D03*
Y312750D02*
D03*
X832500D02*
D03*
X827500D02*
D03*
X822500D02*
D03*
X817500D02*
D03*
X812500D02*
D03*
X807500D02*
D03*
X802500D02*
D03*
X797500D02*
D03*
X792500D02*
D03*
X787500D02*
D03*
X782500D02*
D03*
D26*
X850250Y380500D02*
D03*
Y375500D02*
D03*
Y370500D02*
D03*
Y365500D02*
D03*
Y360500D02*
D03*
Y355500D02*
D03*
Y350500D02*
D03*
Y345500D02*
D03*
Y340500D02*
D03*
Y335500D02*
D03*
Y330500D02*
D03*
Y325500D02*
D03*
X769750D02*
D03*
Y330500D02*
D03*
Y335500D02*
D03*
Y340500D02*
D03*
Y345500D02*
D03*
Y350500D02*
D03*
Y355500D02*
D03*
Y360500D02*
D03*
Y365500D02*
D03*
Y370500D02*
D03*
Y375500D02*
D03*
Y380500D02*
D03*
D27*
X1112500Y574000D02*
D03*
X1093500D02*
D03*
X1117500Y495000D02*
D03*
X1098500D02*
D03*
X1143500Y210250D02*
D03*
X1162500D02*
D03*
X1274500Y731000D02*
D03*
X1255500D02*
D03*
X816500Y238250D02*
D03*
X797500D02*
D03*
X900000Y412000D02*
D03*
X919000D02*
D03*
X919500Y391000D02*
D03*
X900500D02*
D03*
X919500Y334000D02*
D03*
X900500D02*
D03*
X919000Y353000D02*
D03*
X900000D02*
D03*
X962500Y391000D02*
D03*
X943500D02*
D03*
X919000Y372000D02*
D03*
X900000D02*
D03*
X726500Y349000D02*
D03*
X707500D02*
D03*
X725500Y372000D02*
D03*
X706500D02*
D03*
X1073500Y1241000D02*
D03*
X1092500D02*
D03*
X690750Y1196000D02*
D03*
X671750D02*
D03*
X426500Y1299750D02*
D03*
X407500D02*
D03*
X335500Y1546000D02*
D03*
X316500D02*
D03*
X307500Y1392000D02*
D03*
X288500D02*
D03*
X534500Y1194000D02*
D03*
X515500D02*
D03*
X513500Y1215000D02*
D03*
X532500D02*
D03*
X534500Y1237000D02*
D03*
X515500D02*
D03*
X512500Y1261000D02*
D03*
X531500D02*
D03*
X469500Y1252000D02*
D03*
X488500D02*
D03*
X431500Y1244000D02*
D03*
X412500D02*
D03*
X431500Y1119000D02*
D03*
X412500D02*
D03*
X264500Y1216000D02*
D03*
X245500D02*
D03*
X264500Y1145000D02*
D03*
X245500D02*
D03*
X537500Y1012000D02*
D03*
X518500D02*
D03*
X516500Y1032000D02*
D03*
X535500D02*
D03*
X536500Y1053000D02*
D03*
X517500D02*
D03*
X515500Y1078000D02*
D03*
X534500D02*
D03*
X468500Y1083000D02*
D03*
X487500D02*
D03*
X433500Y1089000D02*
D03*
X414500D02*
D03*
X433500Y960000D02*
D03*
X414500D02*
D03*
X277500Y1063000D02*
D03*
X258500D02*
D03*
X276500Y991000D02*
D03*
X257500D02*
D03*
X501500Y742000D02*
D03*
X482500D02*
D03*
X481500Y764000D02*
D03*
X500500D02*
D03*
X502500Y787000D02*
D03*
X483500D02*
D03*
X480500Y811000D02*
D03*
X499500D02*
D03*
X427500Y807000D02*
D03*
X446500D02*
D03*
X391500Y797000D02*
D03*
X372500D02*
D03*
X391500Y665000D02*
D03*
X372500D02*
D03*
X241500Y774000D02*
D03*
X222500D02*
D03*
X241500Y696000D02*
D03*
X222500D02*
D03*
X507500Y543000D02*
D03*
X488500D02*
D03*
X486500Y563000D02*
D03*
X505500D02*
D03*
X506500Y586000D02*
D03*
X487500D02*
D03*
X485500Y612000D02*
D03*
X504500D02*
D03*
X439500D02*
D03*
X458500D02*
D03*
X404500Y609000D02*
D03*
X385500D02*
D03*
X403500Y477000D02*
D03*
X384500D02*
D03*
X246500Y507000D02*
D03*
X227500D02*
D03*
X247500Y590000D02*
D03*
X228500D02*
D03*
X491500Y316000D02*
D03*
X472500D02*
D03*
X567500Y127000D02*
D03*
X548500D02*
D03*
X559500Y303000D02*
D03*
X540500D02*
D03*
X468500Y337000D02*
D03*
X487500D02*
D03*
X489500Y362000D02*
D03*
X470500D02*
D03*
X470500Y385000D02*
D03*
X489500D02*
D03*
X424500Y365000D02*
D03*
X443500D02*
D03*
X390500Y361000D02*
D03*
X371500D02*
D03*
X388500Y231000D02*
D03*
X369500D02*
D03*
X240500Y273000D02*
D03*
X221500D02*
D03*
X240500Y343000D02*
D03*
X221500D02*
D03*
X489750Y122000D02*
D03*
X470750D02*
D03*
X465750Y142500D02*
D03*
X484750D02*
D03*
X488000Y167250D02*
D03*
X469000D02*
D03*
X458500Y191000D02*
D03*
X477500D02*
D03*
X414500Y189000D02*
D03*
X433500D02*
D03*
X379500Y186000D02*
D03*
X360500D02*
D03*
X379500Y60000D02*
D03*
X360500D02*
D03*
X234500Y90000D02*
D03*
X215500D02*
D03*
X235500Y155000D02*
D03*
X216500D02*
D03*
X456750Y1400250D02*
D03*
X437750D02*
D03*
X255500Y1442000D02*
D03*
X236500D02*
D03*
X818500Y128000D02*
D03*
X799500D02*
D03*
X726000Y431000D02*
D03*
X745000D02*
D03*
X657500Y394000D02*
D03*
X676500D02*
D03*
X708500D02*
D03*
X727500D02*
D03*
D28*
X1119000Y525000D02*
D03*
Y534500D02*
D03*
Y544000D02*
D03*
X1093000Y525000D02*
D03*
Y534500D02*
D03*
Y544000D02*
D03*
D29*
X1165000Y532500D02*
D03*
Y513500D02*
D03*
X1167000Y460500D02*
D03*
Y479500D02*
D03*
X1054000Y459500D02*
D03*
Y478500D02*
D03*
X1109500Y194750D02*
D03*
Y213750D02*
D03*
X1276000Y752500D02*
D03*
Y771500D02*
D03*
X1250000Y774500D02*
D03*
Y755500D02*
D03*
X1182000Y731500D02*
D03*
Y712500D02*
D03*
X908000Y742500D02*
D03*
Y761500D02*
D03*
X944000Y681500D02*
D03*
Y662500D02*
D03*
X876000Y682500D02*
D03*
Y663500D02*
D03*
X680000Y641500D02*
D03*
Y660500D02*
D03*
X654000Y662500D02*
D03*
Y643500D02*
D03*
X908500Y1022750D02*
D03*
Y1041750D02*
D03*
X928000Y957500D02*
D03*
Y938500D02*
D03*
X866000Y957500D02*
D03*
Y938500D02*
D03*
X679000Y1021500D02*
D03*
Y1040500D02*
D03*
X655000Y1022500D02*
D03*
Y1041500D02*
D03*
X676000Y912500D02*
D03*
Y931500D02*
D03*
X654000Y933500D02*
D03*
Y914500D02*
D03*
X1093000Y1159500D02*
D03*
Y1140500D02*
D03*
X1067000Y1179500D02*
D03*
Y1160500D02*
D03*
X1010000Y1209500D02*
D03*
Y1190500D02*
D03*
X913000Y1168500D02*
D03*
Y1187500D02*
D03*
X888000Y1168500D02*
D03*
Y1187500D02*
D03*
X862000Y1168500D02*
D03*
Y1187500D02*
D03*
X523000Y1320500D02*
D03*
Y1339500D02*
D03*
X493000Y1340500D02*
D03*
Y1321500D02*
D03*
X330000Y1498500D02*
D03*
Y1479500D02*
D03*
X236000Y1549500D02*
D03*
Y1530500D02*
D03*
Y1497500D02*
D03*
Y1478500D02*
D03*
X346000Y1421500D02*
D03*
Y1402500D02*
D03*
X299000Y1442500D02*
D03*
Y1423500D02*
D03*
X256000Y1409500D02*
D03*
Y1390500D02*
D03*
X256000Y1289500D02*
D03*
Y1308500D02*
D03*
X535000Y1112500D02*
D03*
Y1131500D02*
D03*
X515000Y1111500D02*
D03*
Y1130500D02*
D03*
X535000Y1173500D02*
D03*
Y1154500D02*
D03*
X515000Y1173500D02*
D03*
Y1154500D02*
D03*
X364250Y1194000D02*
D03*
Y1175000D02*
D03*
X319000Y1167500D02*
D03*
Y1148500D02*
D03*
X318000Y1216500D02*
D03*
Y1197500D02*
D03*
X293000Y1216500D02*
D03*
Y1197500D02*
D03*
Y1167500D02*
D03*
Y1148500D02*
D03*
X264000Y1192500D02*
D03*
Y1173500D02*
D03*
X215000Y1216500D02*
D03*
Y1197500D02*
D03*
Y1143500D02*
D03*
Y1162500D02*
D03*
X185000Y1191500D02*
D03*
Y1172500D02*
D03*
X537000Y926500D02*
D03*
Y945500D02*
D03*
X517000Y926500D02*
D03*
Y945500D02*
D03*
X537000Y991500D02*
D03*
Y972500D02*
D03*
X517000Y991500D02*
D03*
Y972500D02*
D03*
X366000Y1035000D02*
D03*
Y1016000D02*
D03*
X327000Y1062500D02*
D03*
Y1043500D02*
D03*
X304000Y1062500D02*
D03*
Y1043500D02*
D03*
X328000Y1013500D02*
D03*
Y994500D02*
D03*
X304000Y1013500D02*
D03*
Y994500D02*
D03*
X276000Y1037500D02*
D03*
Y1018500D02*
D03*
X226000Y1061500D02*
D03*
Y1042500D02*
D03*
Y990500D02*
D03*
Y1009500D02*
D03*
X190000Y1038500D02*
D03*
Y1019500D02*
D03*
X501000Y652500D02*
D03*
Y671500D02*
D03*
X481000Y652500D02*
D03*
Y671500D02*
D03*
X502000Y719500D02*
D03*
Y700500D02*
D03*
X482000Y719500D02*
D03*
Y700500D02*
D03*
X325750Y740500D02*
D03*
Y721500D02*
D03*
X287000Y718500D02*
D03*
Y699500D02*
D03*
X265000Y717500D02*
D03*
Y698500D02*
D03*
X287000Y774500D02*
D03*
Y755500D02*
D03*
X265000Y774500D02*
D03*
Y755500D02*
D03*
X241000Y746500D02*
D03*
Y727500D02*
D03*
X196000Y695500D02*
D03*
Y714500D02*
D03*
Y773500D02*
D03*
Y754500D02*
D03*
X164000Y741500D02*
D03*
Y722500D02*
D03*
X485000Y458500D02*
D03*
Y477500D02*
D03*
X507000Y458500D02*
D03*
Y477500D02*
D03*
X508000Y522500D02*
D03*
Y503500D02*
D03*
X485000Y523500D02*
D03*
Y504500D02*
D03*
X339500Y558000D02*
D03*
Y539000D02*
D03*
X299000Y529500D02*
D03*
Y510500D02*
D03*
X275000Y529500D02*
D03*
Y510500D02*
D03*
X298000Y586500D02*
D03*
Y567500D02*
D03*
X274000Y587500D02*
D03*
Y568500D02*
D03*
X247000Y561500D02*
D03*
Y542500D02*
D03*
X202000Y590500D02*
D03*
Y571500D02*
D03*
Y506500D02*
D03*
Y525500D02*
D03*
X168000Y564500D02*
D03*
Y545500D02*
D03*
X652000Y245500D02*
D03*
Y264500D02*
D03*
X529750Y186500D02*
D03*
Y205500D02*
D03*
X469000Y230500D02*
D03*
Y249500D02*
D03*
X492000Y230500D02*
D03*
Y249500D02*
D03*
X470000Y296500D02*
D03*
Y277500D02*
D03*
X492000Y295500D02*
D03*
Y276500D02*
D03*
X326500Y305250D02*
D03*
Y286250D02*
D03*
X288000Y342500D02*
D03*
Y323500D02*
D03*
X264000Y342500D02*
D03*
Y323500D02*
D03*
X288000Y294500D02*
D03*
Y275500D02*
D03*
X264000Y294500D02*
D03*
Y275500D02*
D03*
X241000Y320500D02*
D03*
Y301500D02*
D03*
X193000Y272500D02*
D03*
Y291500D02*
D03*
Y343500D02*
D03*
Y324500D02*
D03*
X159000Y322500D02*
D03*
Y303500D02*
D03*
X456000Y34000D02*
D03*
Y53000D02*
D03*
X479000Y34000D02*
D03*
Y53000D02*
D03*
X466500Y99000D02*
D03*
Y80000D02*
D03*
X489500Y99000D02*
D03*
Y80000D02*
D03*
X321500Y131750D02*
D03*
Y112750D02*
D03*
X282500Y111000D02*
D03*
Y92000D02*
D03*
X283000Y165000D02*
D03*
Y146000D02*
D03*
X260000Y111000D02*
D03*
Y92000D02*
D03*
X259500Y164500D02*
D03*
Y145500D02*
D03*
X234000Y133500D02*
D03*
Y114500D02*
D03*
X188000Y159500D02*
D03*
Y140500D02*
D03*
Y89500D02*
D03*
Y108500D02*
D03*
X160000Y132500D02*
D03*
Y113500D02*
D03*
X1054000Y518500D02*
D03*
Y537500D02*
D03*
X1036250Y291000D02*
D03*
Y272000D02*
D03*
X1217250Y313750D02*
D03*
Y294750D02*
D03*
X256000Y1351500D02*
D03*
Y1332500D02*
D03*
X851000Y125500D02*
D03*
Y106500D02*
D03*
X879000Y109500D02*
D03*
Y128500D02*
D03*
X1123000Y386500D02*
D03*
Y367500D02*
D03*
X862000Y1233500D02*
D03*
Y1214500D02*
D03*
X494000Y1383500D02*
D03*
Y1364500D02*
D03*
X521000Y1366500D02*
D03*
Y1385500D02*
D03*
X678000Y777500D02*
D03*
Y758500D02*
D03*
X650000Y778500D02*
D03*
Y759500D02*
D03*
X1299000Y913500D02*
D03*
Y894500D02*
D03*
X1349000Y913500D02*
D03*
Y894500D02*
D03*
X1324000Y913500D02*
D03*
Y894500D02*
D03*
X1299000Y1063500D02*
D03*
Y1044500D02*
D03*
X1349000Y1063500D02*
D03*
Y1044500D02*
D03*
X1324000Y1063500D02*
D03*
Y1044500D02*
D03*
X1299000Y1213500D02*
D03*
Y1194500D02*
D03*
X1349000Y1213500D02*
D03*
Y1194500D02*
D03*
X1324000Y1213500D02*
D03*
Y1194500D02*
D03*
X1299000Y1363500D02*
D03*
Y1344500D02*
D03*
X1349000Y1363500D02*
D03*
Y1344500D02*
D03*
X1324000Y1363500D02*
D03*
Y1344500D02*
D03*
D30*
X1205000Y713500D02*
D03*
Y730500D02*
D03*
X1064000Y685500D02*
D03*
Y702500D02*
D03*
X694000Y1255500D02*
D03*
Y1238500D02*
D03*
D31*
X1153000Y653000D02*
D03*
Y681000D02*
D03*
X877000Y771000D02*
D03*
Y743000D02*
D03*
X911000Y653000D02*
D03*
Y681000D02*
D03*
X843000Y653000D02*
D03*
Y681000D02*
D03*
X876750Y1042750D02*
D03*
Y1014750D02*
D03*
X897000Y928000D02*
D03*
Y956000D02*
D03*
X838000Y928000D02*
D03*
Y956000D02*
D03*
X660000Y1233000D02*
D03*
Y1261000D02*
D03*
X834500Y442000D02*
D03*
Y470000D02*
D03*
X764250Y448500D02*
D03*
Y476500D02*
D03*
X1035000Y708000D02*
D03*
Y680000D02*
D03*
D32*
X771500Y239000D02*
D03*
X754500D02*
D03*
X838500Y259500D02*
D03*
X855500D02*
D03*
X734500Y1282000D02*
D03*
X751500D02*
D03*
D33*
X841000Y225500D02*
D03*
X869000D02*
D03*
X647000Y340000D02*
D03*
X675000D02*
D03*
X651000Y735000D02*
D03*
X679000D02*
D03*
X651000Y687000D02*
D03*
X679000D02*
D03*
X653000Y956000D02*
D03*
X681000D02*
D03*
X654000Y997000D02*
D03*
X682000D02*
D03*
D34*
X723500Y665000D02*
D03*
X704500D02*
D03*
X714000Y687000D02*
D03*
X725500Y934000D02*
D03*
X706500D02*
D03*
X716000Y956000D02*
D03*
X374500Y1221000D02*
D03*
X355500D02*
D03*
X365000Y1243000D02*
D03*
X353750Y1143000D02*
D03*
X372750D02*
D03*
X363250Y1121000D02*
D03*
X378500Y1070000D02*
D03*
X359500D02*
D03*
X369000Y1092000D02*
D03*
X354500Y981000D02*
D03*
X373500D02*
D03*
X364000Y959000D02*
D03*
X313750Y685000D02*
D03*
X332750D02*
D03*
X323250Y663000D02*
D03*
X328500Y506000D02*
D03*
X347500D02*
D03*
X338000Y484000D02*
D03*
X348500Y593000D02*
D03*
X329500D02*
D03*
X339000Y615000D02*
D03*
X317500Y252000D02*
D03*
X336500D02*
D03*
X327000Y230000D02*
D03*
X338500Y337000D02*
D03*
X319500D02*
D03*
X329000Y359000D02*
D03*
X310000Y76000D02*
D03*
X329000D02*
D03*
X319500Y54000D02*
D03*
X330000Y164000D02*
D03*
X311000D02*
D03*
X320500Y186000D02*
D03*
X324000Y795000D02*
D03*
X314500Y773000D02*
D03*
X333500D02*
D03*
X715000Y995000D02*
D03*
X724500Y1017000D02*
D03*
X705500D02*
D03*
X713000Y732000D02*
D03*
X722500Y754000D02*
D03*
X703500D02*
D03*
D35*
X761000Y1257500D02*
D03*
Y1248000D02*
D03*
Y1238500D02*
D03*
X733000D02*
D03*
Y1248000D02*
D03*
Y1257500D02*
D03*
D36*
X728000Y1166000D02*
D03*
X818000D02*
D03*
D37*
X384000Y1368400D02*
D03*
Y1355700D02*
D03*
Y1343000D02*
D03*
Y1330300D02*
D03*
X445000Y1368400D02*
D03*
Y1355700D02*
D03*
Y1343000D02*
D03*
Y1330300D02*
D03*
X471000Y1144900D02*
D03*
Y1157600D02*
D03*
Y1170300D02*
D03*
Y1183000D02*
D03*
Y1195700D02*
D03*
Y1208400D02*
D03*
Y1221100D02*
D03*
X410000Y1144900D02*
D03*
Y1157600D02*
D03*
Y1170300D02*
D03*
Y1183000D02*
D03*
Y1195700D02*
D03*
Y1208400D02*
D03*
Y1221100D02*
D03*
X471000Y985300D02*
D03*
Y998000D02*
D03*
Y1010700D02*
D03*
Y1023400D02*
D03*
Y1036100D02*
D03*
Y1048800D02*
D03*
Y1061500D02*
D03*
X410000Y985300D02*
D03*
Y998000D02*
D03*
Y1010700D02*
D03*
Y1023400D02*
D03*
Y1036100D02*
D03*
Y1048800D02*
D03*
Y1061500D02*
D03*
X429000Y692800D02*
D03*
Y705500D02*
D03*
Y718200D02*
D03*
Y730900D02*
D03*
Y743600D02*
D03*
Y756300D02*
D03*
Y769000D02*
D03*
X368000Y692800D02*
D03*
Y705500D02*
D03*
Y718200D02*
D03*
Y730900D02*
D03*
Y743600D02*
D03*
Y756300D02*
D03*
Y769000D02*
D03*
X441000Y505800D02*
D03*
Y518500D02*
D03*
Y531200D02*
D03*
Y543900D02*
D03*
Y556600D02*
D03*
Y569300D02*
D03*
Y582000D02*
D03*
X380000Y505800D02*
D03*
Y518500D02*
D03*
Y531200D02*
D03*
Y543900D02*
D03*
Y556600D02*
D03*
Y569300D02*
D03*
Y582000D02*
D03*
X564000Y241400D02*
D03*
Y228700D02*
D03*
Y216000D02*
D03*
Y203300D02*
D03*
X625000Y241400D02*
D03*
Y228700D02*
D03*
Y216000D02*
D03*
Y203300D02*
D03*
X428000Y257600D02*
D03*
Y270300D02*
D03*
Y283000D02*
D03*
Y295700D02*
D03*
Y308400D02*
D03*
Y321100D02*
D03*
Y333800D02*
D03*
X367000Y257600D02*
D03*
Y270300D02*
D03*
Y283000D02*
D03*
Y295700D02*
D03*
Y308400D02*
D03*
Y321100D02*
D03*
Y333800D02*
D03*
X422000Y83800D02*
D03*
Y96500D02*
D03*
Y109200D02*
D03*
Y121900D02*
D03*
Y134600D02*
D03*
Y147300D02*
D03*
Y160000D02*
D03*
X361000Y83800D02*
D03*
Y96500D02*
D03*
Y109200D02*
D03*
Y121900D02*
D03*
Y134600D02*
D03*
Y147300D02*
D03*
Y160000D02*
D03*
D38*
X281000Y1515500D02*
D03*
Y1482500D02*
D03*
X294000Y1305500D02*
D03*
Y1272500D02*
D03*
D39*
X26500Y1463000D02*
D03*
X46500Y1537000D02*
D03*
D40*
X120500Y1463000D02*
D03*
D41*
X161500Y1509000D02*
D03*
D42*
X1094000Y731000D02*
D03*
Y726000D02*
D03*
Y721000D02*
D03*
Y716000D02*
D03*
Y711000D02*
D03*
X1139000Y731000D02*
D03*
Y726000D02*
D03*
Y721000D02*
D03*
Y716000D02*
D03*
Y711000D02*
D03*
D77*
X376500Y1194000D02*
X387500Y1183000D01*
X391750Y1196732D02*
Y1240768D01*
X365000Y1243000D02*
X389518D01*
X391750Y1240768D01*
X343250Y1243000D02*
X365000D01*
X428550Y296250D02*
X443250D01*
X443500Y296000D01*
X341500Y1064732D02*
Y1088018D01*
X367250Y1090250D02*
X369000Y1092000D01*
X343732Y1090250D02*
X367250D01*
X341500Y1088018D02*
X343732Y1090250D01*
X327000Y1062500D02*
X339268D01*
X341500Y1064732D01*
X515000Y1173500D02*
X535000D01*
X513250Y205750D02*
X513500Y205500D01*
X713000Y732000D02*
X723518D01*
X727982Y717000D02*
X754000D01*
X723518Y732000D02*
X725750Y729768D01*
Y719232D02*
Y729768D01*
Y719232D02*
X727982Y717000D01*
X927250Y681000D02*
X943500D01*
X911000D02*
X927250D01*
X943500D02*
X944000Y681500D01*
X723500Y665000D02*
X742000D01*
X1136750Y534500D02*
X1163000D01*
X1119000D02*
X1136750D01*
X903750Y1019000D02*
Y1024250D01*
X859750Y1013000D02*
X876750D01*
X1163000Y534500D02*
X1165000Y532500D01*
X1276000Y752500D02*
X1448500D01*
X1450000Y754000D01*
X1274500Y731000D02*
Y751000D01*
X1276000Y752500D01*
X1253000Y771500D02*
X1276000D01*
X1250000Y774500D02*
X1253000Y771500D01*
X1248000Y772500D02*
X1250000Y774500D01*
X1231750Y772500D02*
X1248000D01*
X1226250Y778000D02*
X1231750Y772500D01*
X1206000Y778000D02*
X1226250D01*
X1349125Y1391625D02*
X1349250Y1391750D01*
X1349000Y1391500D02*
X1349125Y1391625D01*
X1324250Y932750D02*
X1324500Y933000D01*
X1324000Y932500D02*
X1324250Y932750D01*
X857375Y1042875D02*
X857500Y1042750D01*
X857250Y1043000D02*
X857375Y1042875D01*
X753375Y1003375D02*
X753500Y1003500D01*
X753250Y1003250D02*
X753375Y1003375D01*
X703500Y754000D02*
Y788500D01*
X703750Y788750D01*
X1038000Y979500D02*
Y1092750D01*
X1066750Y1179250D02*
X1067000Y1179500D01*
X1040232Y1179250D02*
X1066750D01*
X1038000Y1177018D02*
X1040232Y1179250D01*
X1016000Y957500D02*
X1038000Y979500D01*
X928000Y957500D02*
X1016000D01*
X908000Y742500D02*
X908000Y742500D01*
X907500Y743000D02*
X908000Y742500D01*
X893750Y729250D02*
X905768D01*
X908000Y731482D02*
Y742500D01*
X905768Y729250D02*
X908000Y731482D01*
X856780Y1013000D02*
X859750D01*
X893500Y1014500D02*
X898717D01*
X902373Y1018155D02*
X902905D01*
X898717Y1014500D02*
X902373Y1018155D01*
X902905D02*
X903750Y1019000D01*
X855000Y735000D02*
X863000Y743000D01*
X850000Y730000D02*
X855000Y735000D01*
X840500Y756235D02*
Y765750D01*
X827265Y743000D02*
X840500Y756235D01*
X810000Y743000D02*
X827265D01*
X810000Y730000D02*
X850000D01*
X860000Y702232D02*
X862232Y700000D01*
X857768Y723500D02*
X860000Y721268D01*
X810000Y723500D02*
X857768D01*
X860000Y702232D02*
Y721268D01*
X862232Y700000D02*
X907768D01*
X863000Y743000D02*
X877000D01*
X910000Y682000D02*
X911000Y681000D01*
X910000Y682000D02*
Y697768D01*
X907768Y700000D02*
X910000Y697768D01*
X256000Y1272232D02*
Y1289500D01*
X230000Y1272232D02*
Y1295000D01*
Y1272232D02*
X232232Y1270000D01*
X253768D01*
X256000Y1272232D01*
X489500Y385000D02*
X505000D01*
X505000Y385000D01*
X489500Y362000D02*
X503000D01*
X505000Y360000D01*
X491500Y316000D02*
X504000D01*
X505000Y315000D01*
X477500Y191000D02*
X489000D01*
X490000Y190000D01*
X456750Y1388250D02*
Y1400250D01*
Y1388250D02*
X460000Y1385000D01*
X240500Y1390500D02*
X256000D01*
X240000Y1390000D02*
X240500Y1390500D01*
X288500Y1378500D02*
Y1392000D01*
X285000Y1375000D02*
X288500Y1378500D01*
X251875Y131875D02*
X252000Y131750D01*
X251750Y132000D02*
X251875Y131875D01*
X257000Y309750D02*
X257500Y309250D01*
X325750Y742250D02*
X344997D01*
X343732Y295700D02*
X367000D01*
X338366Y123016D02*
X339482Y121900D01*
X337250Y124132D02*
X338366Y123016D01*
X327768Y146250D02*
X330000Y148482D01*
X260000Y165000D02*
X284000D01*
X345000Y136832D02*
X347232Y134600D01*
X345000Y136832D02*
Y183018D01*
X347232Y134600D02*
X361000D01*
X360083Y550950D02*
X367133Y543900D01*
X353033Y558000D02*
X360083Y550950D01*
X325750Y752750D02*
Y763250D01*
Y742250D02*
Y752750D01*
X694000Y1238500D02*
X694375Y1238125D01*
Y1226625D02*
Y1238125D01*
Y1226625D02*
X694750Y1226250D01*
X523250Y232732D02*
Y335018D01*
X487500Y337000D02*
X487750Y337250D01*
X521018D01*
X523250Y335018D01*
X492000Y230500D02*
X521018D01*
X523250Y232732D01*
X843000Y681000D02*
X874500D01*
X876000Y682500D01*
X810000Y710500D02*
X840768D01*
X843000Y681000D02*
Y708268D01*
X840768Y710500D02*
X843000Y708268D01*
X714000Y687000D02*
X731000D01*
X733250Y689250D01*
X735482Y710500D02*
X754000D01*
X733250Y708268D02*
X735482Y710500D01*
X733250Y689250D02*
Y708268D01*
X654000Y662500D02*
X654750Y663250D01*
X666250D01*
X669000Y660500D02*
X680000D01*
X666250Y663250D02*
X669000Y660500D01*
X651000Y665500D02*
Y687000D01*
Y665500D02*
X654000Y662500D01*
X679000Y687000D02*
X714000D01*
X712500Y731500D02*
X713000Y732000D01*
X697750Y731500D02*
X712500D01*
X679000Y735000D02*
X694250D01*
X697750Y731500D01*
X650000Y759500D02*
X677000D01*
X678000Y758500D01*
X651000Y735000D02*
Y758500D01*
X650000Y759500D02*
X651000Y758500D01*
X427250Y840750D02*
X591768D01*
X594000Y838518D01*
Y644000D02*
Y838518D01*
X594268Y1440250D02*
X605500Y1429018D01*
Y396232D02*
X607732Y394000D01*
X605500Y396232D02*
Y1429018D01*
X607732Y394000D02*
X657500D01*
X635500Y643500D02*
X654000D01*
X634250Y644750D02*
X635500Y643500D01*
X629093Y778500D02*
X650000D01*
X627093Y780500D02*
X629093Y778500D01*
X626500Y780500D02*
X627093D01*
X831750Y95500D02*
Y104268D01*
Y51350D02*
Y95500D01*
X816750Y254000D02*
X817000Y254250D01*
X816500Y253750D02*
X816750Y254000D01*
X1217250Y313750D02*
X1233500D01*
X1217250Y294750D02*
X1234250D01*
X1234500Y295000D01*
X1217000Y294500D02*
X1217250Y294750D01*
X348232Y1440250D02*
X594268D01*
X621732Y340000D02*
X647000D01*
X619500Y337768D02*
X621732Y340000D01*
X619500Y264482D02*
Y337768D01*
X647000Y340000D02*
X647000Y340000D01*
X346000Y1421500D02*
Y1438018D01*
X348232Y1440250D01*
X346000Y1358232D02*
X348232Y1356000D01*
X346000Y1358232D02*
Y1402500D01*
X318250Y1305500D02*
X319500Y1306750D01*
X294000Y1305500D02*
X318250D01*
X879000Y109500D02*
X897768D01*
X900000Y111732D01*
Y118000D01*
X855800Y50000D02*
X856250Y50450D01*
Y75750D01*
X833982Y106500D02*
X851000D01*
X831750Y104268D02*
X833982Y106500D01*
X830400Y50000D02*
X831750Y51350D01*
X1114732Y557000D02*
X1116768D01*
X1119000Y544000D02*
Y554768D01*
X1116768Y557000D02*
X1119000Y554768D01*
X1112500Y559232D02*
Y574000D01*
Y559232D02*
X1114732Y557000D01*
X1119732Y476250D02*
X1130268D01*
X1117500Y478482D02*
Y495000D01*
Y478482D02*
X1119732Y476250D01*
X1132500Y460300D02*
Y474018D01*
X1130268Y476250D02*
X1132500Y474018D01*
Y460300D02*
X1132800Y460000D01*
X1166500D01*
X1167000Y460500D01*
X1117500Y495000D02*
Y510750D01*
X1119000Y512250D01*
Y525000D01*
X1098500Y495000D02*
Y506500D01*
X1093000Y512000D02*
X1098500Y506500D01*
X1093000Y512000D02*
Y525000D01*
X1083250Y460750D02*
Y492768D01*
X1085482Y495000D02*
X1098500D01*
X1083250Y492768D02*
X1085482Y495000D01*
X1083250Y460750D02*
X1084000Y460000D01*
X1054000Y459500D02*
X1054500Y460000D01*
X1084000D01*
X758982Y1023000D02*
X770750D01*
X756750Y1025232D02*
X758982Y1023000D01*
X756750Y1025232D02*
Y1044000D01*
X715000Y995000D02*
X726638D01*
X730750Y981768D02*
X732982Y984000D01*
X731138Y990500D02*
X770750D01*
X732982Y984000D02*
X770750D01*
X726638Y995000D02*
X731138Y990500D01*
X730750Y958232D02*
Y981768D01*
X919500Y334000D02*
X936000D01*
X936500Y333500D01*
X919000Y353000D02*
X935500D01*
X935750Y352750D01*
X919000Y372000D02*
X936500D01*
X936750Y372250D01*
X962500Y391000D02*
Y406750D01*
X961750Y407500D02*
X962500Y406750D01*
X939750Y412000D02*
X940000Y411750D01*
X919000Y412000D02*
X939750D01*
X869000Y225500D02*
X888500D01*
X1349000Y913500D02*
Y931750D01*
X1349250Y932000D01*
X1324000Y913500D02*
Y932500D01*
X1394000Y896732D02*
Y902018D01*
X1449750Y904250D02*
X1450000Y904000D01*
X1396232Y904250D02*
X1449750D01*
X1394000Y902018D02*
X1396232Y904250D01*
X1349000Y894500D02*
X1391768D01*
X1394000Y896732D01*
X1324000Y894500D02*
X1349000D01*
X1299000D02*
X1324000D01*
X1273250Y905732D02*
Y910518D01*
X1298250Y912750D02*
X1299000Y913500D01*
X1275482Y912750D02*
X1298250D01*
X1273250Y910518D02*
X1275482Y912750D01*
X1249500Y903500D02*
X1271018D01*
X1273250Y905732D01*
X1249000Y904000D02*
X1249500Y903500D01*
X1349000Y1063500D02*
Y1080750D01*
X1348750Y1081000D02*
X1349000Y1080750D01*
X1324000Y1063500D02*
Y1081000D01*
X1325000Y1082000D01*
X1393000Y1046732D02*
Y1052768D01*
X1449000Y1055000D02*
X1450000Y1054000D01*
X1395232Y1055000D02*
X1449000D01*
X1393000Y1052768D02*
X1395232Y1055000D01*
X1349000Y1044500D02*
X1390768D01*
X1393000Y1046732D01*
X1324000Y1044500D02*
X1349000D01*
X1299000D02*
X1324000D01*
X1275750Y1057232D02*
Y1061518D01*
X1298750Y1063750D02*
X1299000Y1063500D01*
X1277982Y1063750D02*
X1298750D01*
X1275750Y1061518D02*
X1277982Y1063750D01*
X1250000Y1055000D02*
X1273518D01*
X1275750Y1057232D01*
X1249000Y1054000D02*
X1250000Y1055000D01*
X1349000Y1213500D02*
Y1237250D01*
X1323750Y1239250D02*
X1324000Y1239000D01*
Y1213500D02*
Y1239000D01*
X1449250Y1203250D02*
X1450000Y1204000D01*
X1396500Y1203250D02*
X1449250D01*
X1349000Y1194500D02*
X1387750D01*
X1396500Y1203250D01*
X1324000Y1194500D02*
X1349000D01*
X1299000D02*
X1324000D01*
X1298750Y1213750D02*
X1299000Y1213500D01*
X1274250Y1213750D02*
X1298750D01*
X1249000Y1204000D02*
X1264500D01*
X1274250Y1213750D01*
X1349000Y1363500D02*
Y1391500D01*
X1324000Y1363500D02*
Y1390750D01*
X1379000Y1344500D02*
X1388500Y1354000D01*
X1450000D01*
X1349000Y1344500D02*
X1379000D01*
X1324000D02*
X1349000D01*
X1299000D02*
X1324000D01*
X1298500Y1364000D02*
X1299000Y1363500D01*
X1276500Y1364000D02*
X1298500D01*
X1249000Y1354000D02*
X1266500D01*
X1276500Y1364000D01*
X1135500Y937982D02*
Y1352268D01*
X1198500Y1354500D02*
X1199000Y1354000D01*
X1137732Y1354500D02*
X1198500D01*
X1135500Y1352268D02*
X1137732Y1354500D01*
X970982Y935750D02*
X1133268D01*
X1135500Y937982D01*
X1148232Y1204250D02*
X1198750D01*
X1146000Y929732D02*
Y1202018D01*
X1143768Y927500D02*
X1146000Y929732D01*
Y1202018D02*
X1148232Y1204250D01*
X981250Y925268D02*
X983482Y927500D01*
X1003000Y827250D02*
Y912768D01*
X1013750Y827250D02*
Y901018D01*
X1016732Y904000D01*
X1199000D01*
X1003000Y912768D02*
X1005232Y915000D01*
X981250Y828000D02*
Y925268D01*
X1005232Y915000D02*
X1154750D01*
X983482Y927500D02*
X1143768D01*
X1154750Y915000D02*
X1157250Y917500D01*
Y1052018D02*
X1159482Y1054250D01*
X1157250Y917500D02*
Y1052018D01*
X1159482Y1054250D02*
X1198750D01*
X968750Y826750D02*
Y933518D01*
X970982Y935750D01*
X1198750Y1204250D02*
X1199000Y1204000D01*
X1198750Y1054250D02*
X1199000Y1054000D01*
X808488Y601750D02*
X1000768D01*
X1003000Y603982D01*
Y799830D01*
X814232Y594500D02*
X1011518D01*
X1013750Y596732D01*
Y799500D01*
X795250Y609768D02*
X797482Y612000D01*
X795250Y415000D02*
Y609768D01*
X797482Y612000D02*
X982268D01*
X984500Y614232D01*
Y706603D01*
X795250Y415000D02*
X797500Y412750D01*
X812000Y592268D02*
X814232Y594500D01*
X812000Y410750D02*
Y592268D01*
X972500Y623750D02*
Y799250D01*
X972750Y799500D01*
X969750Y621000D02*
X972500Y623750D01*
X789750Y621000D02*
X969750D01*
X805000Y414250D02*
Y598262D01*
X808488Y601750D01*
X983975Y707128D02*
X984500Y706603D01*
X787738Y414500D02*
Y618988D01*
X789750Y621000D01*
X803360Y412610D02*
X805000Y414250D01*
X983975Y707128D02*
X984000Y799250D01*
X926250Y539250D02*
X926500Y539500D01*
Y583750D01*
X816500Y238250D02*
Y253750D01*
X831070Y197180D02*
X831500Y196750D01*
X816398Y197180D02*
X831070D01*
X741000Y239000D02*
X754500D01*
X740750Y238750D02*
X741000Y239000D01*
X855500Y259500D02*
X868750D01*
X869000Y259250D01*
X691750Y341232D02*
Y346768D01*
X675000Y340000D02*
X676000Y339000D01*
X689518D01*
X691750Y341232D01*
X693982Y349000D02*
X707500D01*
X691750Y346768D02*
X693982Y349000D01*
X691500Y372000D02*
X706500D01*
X725500D02*
X727000Y370500D01*
X676500Y394000D02*
X708500D01*
X711250Y431000D02*
X726000D01*
X711000Y430750D02*
X711250Y431000D01*
X834500Y470000D02*
X854000D01*
X745750Y476500D02*
X764250D01*
X833250Y1034750D02*
X839000Y1029000D01*
X828500Y1034750D02*
X833250D01*
X826750Y1023000D02*
X836768D01*
X839000Y1025232D01*
Y1029000D01*
X826750Y1016500D02*
X826755Y1016505D01*
X844005D01*
X850000Y1022500D01*
X847275Y1003495D02*
X856780Y1013000D01*
X826750Y1003500D02*
X838051D01*
X838056Y1003495D01*
X847275D01*
X841250Y990500D02*
X841500Y990250D01*
X826750Y990500D02*
X841250D01*
X826750Y1010000D02*
X840750D01*
X840750Y1010000D01*
X908500Y1041750D02*
X925500D01*
X925750Y1042000D01*
X857500Y1042750D02*
X876750D01*
X928000Y921250D02*
Y938500D01*
X927750Y921000D02*
X928000Y921250D01*
X897000Y907000D02*
Y928000D01*
X896750Y906750D02*
X897000Y907000D01*
X866000Y921250D02*
Y938500D01*
X897000Y956000D02*
X926500D01*
X928000Y957500D01*
X850482Y976500D02*
X894768D01*
X897000Y956000D02*
Y974268D01*
X894768Y976500D02*
X897000Y974268D01*
X848250Y978732D02*
Y994768D01*
Y978732D02*
X850482Y976500D01*
X826750Y997000D02*
X846018D01*
X848250Y994768D01*
X838000Y956000D02*
X839500Y957500D01*
X866000D01*
X837500Y956500D02*
X838000Y956000D01*
X837500Y956500D02*
Y969982D01*
X841000Y973482D02*
Y981768D01*
X837500Y969982D02*
X841000Y973482D01*
X826750Y984000D02*
X838768D01*
X841000Y981768D01*
X753500Y1003500D02*
X770750D01*
Y997000D02*
Y1003500D01*
Y1010000D01*
X815250Y928000D02*
X838000D01*
X814750Y928500D02*
X815250Y928000D01*
X725500Y934000D02*
X725750Y934250D01*
X768500Y934000D01*
X706500Y913750D02*
Y934000D01*
Y913750D02*
X706500Y913750D01*
X676000Y894500D02*
Y912500D01*
Y894500D02*
X676250Y894250D01*
X585965Y1061285D02*
X591018D01*
X593250Y1040500D02*
Y1059053D01*
X591018Y1061285D02*
X593250Y1059053D01*
X585750Y1061500D02*
X585965Y1061285D01*
X654000Y898250D02*
Y914500D01*
X653750Y898000D02*
X654000Y898250D01*
X457500Y1252000D02*
X469500D01*
X452000Y1257500D02*
X457500Y1252000D01*
X681000Y956000D02*
X716000D01*
X654000Y933500D02*
X656000Y931500D01*
X653000Y934500D02*
X654000Y933500D01*
X656000Y931500D02*
X676000D01*
X653000Y934500D02*
Y956000D01*
X716000D02*
X728518D01*
X730750Y958232D01*
X713000Y997000D02*
X715000Y995000D01*
X705500Y1047250D02*
X710750Y1052500D01*
X705500Y1017000D02*
Y1047250D01*
X679000Y1040500D02*
X691768D01*
X694000Y1042732D01*
Y1054000D01*
X582268Y926750D02*
X584500Y928982D01*
Y1029768D01*
X537250Y926750D02*
X582268D01*
X724500Y1017000D02*
Y1035750D01*
X726500Y1037750D01*
X682000Y997000D02*
X713000D01*
X654000Y1021500D02*
X655000D01*
Y1022500D02*
X678000D01*
X679000Y1021500D01*
X654000Y997000D02*
Y1021500D01*
X635750Y1041500D02*
X655000D01*
X635750Y1041500D02*
X635750Y1041500D01*
X489268Y1049000D02*
X491500Y1051232D01*
X487500Y1083000D02*
X491500Y1079000D01*
X471200Y1049000D02*
X489268D01*
X491500Y1051232D02*
Y1079000D01*
X471000Y1061500D02*
X484250D01*
X484250Y1061500D01*
X487500Y1083000D02*
X501000D01*
X1068482Y1226750D02*
X1072268D01*
X1073500Y1241000D02*
X1074500Y1240000D01*
Y1228982D02*
Y1240000D01*
X1072268Y1226750D02*
X1074500Y1228982D01*
X1066250Y1211250D02*
Y1224518D01*
X1068482Y1226750D01*
X1066000Y1211000D02*
X1066250Y1211250D01*
X1066000Y1180500D02*
X1067000Y1179500D01*
X1066000Y1180500D02*
Y1211000D01*
X1091400Y1161100D02*
Y1211000D01*
Y1161100D02*
X1092000Y1160500D01*
X1067000D02*
X1092000D01*
X862000Y1187500D02*
Y1214500D01*
X774750Y1259732D02*
Y1280518D01*
X751500Y1282000D02*
X752250Y1282750D01*
X772518D01*
X774750Y1280518D01*
X761000Y1257500D02*
X772518D01*
X774750Y1259732D01*
X761000Y1238500D02*
X826518D01*
X828750Y1236268D01*
Y1216982D02*
Y1236268D01*
Y1216982D02*
X830982Y1214750D01*
X861750D01*
X862000Y1214500D01*
X761000Y1248000D02*
X774250D01*
X774500Y1248250D01*
X690750Y1171000D02*
Y1196000D01*
X721732Y1238500D02*
X733000D01*
X719500Y1236268D02*
X721732Y1238500D01*
X719500Y1226750D02*
Y1236268D01*
X719250Y1226500D02*
X719500Y1226750D01*
X710982Y1166000D02*
X728000D01*
X708750Y1168232D02*
X710982Y1166000D01*
X708750Y1168232D02*
Y1244018D01*
X712732Y1248000D01*
X720732Y1257500D02*
X733000D01*
X718500Y1259732D02*
X720732Y1257500D01*
X718500Y1259732D02*
Y1268750D01*
X719500Y1269750D01*
X710500Y1250232D02*
Y1279768D01*
X712732Y1282000D02*
X734500D01*
X710500Y1279768D02*
X712732Y1282000D01*
Y1248000D02*
X733000D01*
X710500Y1250232D02*
X712732Y1248000D01*
X26500Y1436982D02*
Y1463000D01*
Y1436982D02*
X28732Y1434750D01*
X50000D01*
X50250Y1434500D01*
X281000Y1467750D02*
Y1482500D01*
X274000Y1460750D02*
X281000Y1467750D01*
X206750Y1532732D02*
Y1559518D01*
X208982Y1530500D02*
X236000D01*
X206750Y1532732D02*
X208982Y1530500D01*
X48732Y1561750D02*
X204518D01*
X206750Y1559518D01*
X46500Y1537000D02*
Y1559518D01*
X48732Y1561750D01*
X479750Y1340500D02*
X493000D01*
X479750Y1340500D02*
X479750Y1340500D01*
Y1364500D02*
X494000D01*
X479750Y1364500D02*
X479750Y1364500D01*
X469750Y1332532D02*
Y1381268D01*
X445000Y1330300D02*
X467518D01*
X469750Y1332532D01*
Y1381268D02*
X471982Y1383500D01*
X519000D01*
X521000Y1385500D01*
Y1366500D02*
X536250D01*
X536250Y1366500D01*
X523000Y1339500D02*
X538750D01*
X539000Y1339250D01*
X523000Y1320500D02*
X534768D01*
X537000Y1318268D01*
Y1314500D02*
Y1318268D01*
X481232Y1321500D02*
X493000D01*
X479000Y1319268D02*
X481232Y1321500D01*
X479000Y1315000D02*
Y1319268D01*
Y1315000D02*
X479250Y1314750D01*
X445000Y1343000D02*
X459500D01*
X460000Y1343500D01*
X445000Y1355700D02*
X459450D01*
X459500Y1355750D01*
X426500Y1299750D02*
X441750D01*
X393000D02*
X407500D01*
X391250Y1301500D02*
X393000Y1299750D01*
X445000Y1368400D02*
Y1381500D01*
X437750Y1388750D02*
X445000Y1381500D01*
X437750Y1388750D02*
Y1400250D01*
X368550Y1330300D02*
X384000D01*
X368500Y1330250D02*
X368550Y1330300D01*
X275000Y1346482D02*
Y1378750D01*
X278482Y1343000D02*
X384000D01*
X275000Y1346482D02*
X278482Y1343000D01*
X256250Y1409750D02*
X268768D01*
X271000Y1407518D01*
Y1382750D02*
Y1407518D01*
Y1382750D02*
X275000Y1378750D01*
X256000Y1409500D02*
X256250Y1409750D01*
X307750Y1272500D02*
X317250Y1263000D01*
X294000Y1272500D02*
X307750D01*
X256000Y1308500D02*
X256000Y1308500D01*
X269750D01*
X272750Y1305500D02*
X294000D01*
X269750Y1308500D02*
X272750Y1305500D01*
X256000Y1308500D02*
Y1332500D01*
X225250Y1353732D02*
Y1415518D01*
X227482Y1351500D02*
X256000D01*
X225250Y1353732D02*
X227482Y1351500D01*
X134000Y1417750D02*
X223018D01*
X225250Y1415518D01*
X120500Y1431250D02*
X134000Y1417750D01*
X120500Y1431250D02*
Y1463000D01*
X383700Y1356000D02*
X384000Y1355700D01*
X348232Y1356000D02*
X383700D01*
X301232Y1405250D02*
X305268D01*
X307500Y1392000D02*
Y1403018D01*
X305268Y1405250D02*
X307500Y1403018D01*
X299000Y1407482D02*
Y1423500D01*
Y1407482D02*
X301232Y1405250D01*
X329750Y1404232D02*
Y1404518D01*
X345500Y1402000D02*
X346000Y1402500D01*
X331982Y1402000D02*
X345500D01*
X329750Y1404232D02*
X331982Y1402000D01*
X317232Y1406750D02*
X327518D01*
X329750Y1404518D01*
X315000Y1408982D02*
Y1421268D01*
Y1408982D02*
X317232Y1406750D01*
X299000Y1423500D02*
X312768D01*
X315000Y1421268D01*
X365750Y1370632D02*
Y1418768D01*
X346000Y1421500D02*
X346500Y1421000D01*
X363518D01*
X365750Y1418768D01*
X367982Y1368400D02*
X384000D01*
X365750Y1370632D02*
X367982Y1368400D01*
X323000Y1423482D02*
Y1440268D01*
X345750Y1421250D02*
X346000Y1421500D01*
X325232Y1421250D02*
X345750D01*
X323000Y1423482D02*
X325232Y1421250D01*
X299000Y1442500D02*
X320768D01*
X323000Y1440268D01*
X255500Y1410000D02*
Y1442000D01*
Y1410000D02*
X256000Y1409500D01*
X236000Y1442500D02*
Y1478500D01*
Y1442500D02*
X236500Y1442000D01*
X236000Y1497500D02*
Y1530500D01*
X305500Y1500732D02*
Y1514268D01*
X281000Y1515500D02*
X282000Y1516500D01*
X303268D01*
X305500Y1514268D01*
X307732Y1498500D02*
X330000D01*
X305500Y1500732D02*
X307732Y1498500D01*
X315500Y1515500D02*
Y1545000D01*
X330000Y1498500D02*
Y1513768D01*
X327768Y1516000D02*
X330000Y1513768D01*
X316000Y1516000D02*
X327768D01*
X315500Y1515500D02*
X316000Y1516000D01*
X330000Y1479500D02*
X343750D01*
X344000Y1479250D01*
X335500Y1531982D02*
Y1546000D01*
Y1531982D02*
X337732Y1529750D01*
X345750D01*
X346750Y1528750D01*
X315500Y1545000D02*
X316500Y1546000D01*
X300000D02*
X316500D01*
X236000Y1549500D02*
X296500D01*
X300000Y1546000D01*
X479000Y53000D02*
X494000D01*
X497250Y49750D01*
X489750Y122000D02*
X504518D01*
X506750Y124232D01*
Y128000D01*
X489500Y80000D02*
X501268D01*
X503500Y77768D01*
Y69500D02*
Y77768D01*
X527000Y36232D02*
Y139768D01*
X479000Y34000D02*
X524768D01*
X527000Y36232D01*
X518250Y142000D02*
X524768D01*
X527000Y139768D01*
X484750Y142500D02*
X517750D01*
X518250Y142000D01*
X499000Y167250D02*
X503500Y171750D01*
Y172500D01*
X488000Y167250D02*
X499000D01*
X469000Y167250D02*
X469000Y167250D01*
X469000Y155518D02*
Y167250D01*
X465750Y152268D02*
X469000Y155518D01*
X465750Y142500D02*
Y152268D01*
X438750Y136832D02*
Y140268D01*
X440982Y142500D02*
X465750D01*
X438750Y140268D02*
X440982Y142500D01*
X422000Y134600D02*
X436518D01*
X438750Y136832D01*
X422000Y121900D02*
X434650D01*
X435250Y122500D01*
X457500Y122000D02*
X470750D01*
X454250Y99000D02*
X466500D01*
X453750Y98500D02*
X454250Y99000D01*
X506000D02*
X512500Y105500D01*
X489500Y99000D02*
X506000D01*
X466500Y80000D02*
X489500D01*
X466000Y79500D02*
X466500Y80000D01*
X443732Y79500D02*
X466000D01*
X422000Y109200D02*
X439268D01*
X441500Y106968D01*
Y81732D02*
Y106968D01*
Y81732D02*
X443732Y79500D01*
X434250Y54732D02*
Y94268D01*
X432018Y96500D02*
X434250Y94268D01*
X422000Y96500D02*
X432018D01*
X434250Y54732D02*
X436482Y52500D01*
X455500D02*
X456000Y53000D01*
X436482Y52500D02*
X455500D01*
X456000Y53000D02*
X479000D01*
X456000Y34000D02*
X479000D01*
X455250Y34750D02*
X456000Y34000D01*
X422000Y36982D02*
Y83800D01*
X424232Y34750D02*
X455250D01*
X422000Y36982D02*
X424232Y34750D01*
X379500Y186000D02*
X389500D01*
X395625Y179875D01*
X379500Y60000D02*
X391750D01*
X392250Y60500D01*
X360500Y160500D02*
Y186000D01*
Y160500D02*
X360750Y160250D01*
X360500Y83700D02*
X360800Y84000D01*
X360500Y60000D02*
Y83700D01*
X282500Y111000D02*
Y121268D01*
X284732Y123500D02*
X292500D01*
X282500Y121268D02*
X284732Y123500D01*
X307000Y143250D02*
X311000Y147250D01*
X304750Y143250D02*
X307000D01*
X311000Y147250D02*
Y164000D01*
X283000Y134732D02*
Y146000D01*
X280768Y132500D02*
X283000Y134732D01*
X278750Y132500D02*
X280768D01*
X260000Y111000D02*
Y120518D01*
X262232Y122750D01*
X266500D01*
X266750Y123000D01*
X259500Y133982D02*
Y145500D01*
X257268Y131750D02*
X259500Y133982D01*
X252000Y131750D02*
X257268D01*
X310000Y76000D02*
Y92750D01*
X321500Y112750D02*
X335500D01*
X335500Y112750D01*
X329000Y76000D02*
Y92250D01*
X332500Y95750D01*
X337250Y124132D02*
Y129518D01*
X321500Y131750D02*
X335018D01*
X337250Y129518D01*
X339482Y121900D02*
X361000D01*
X323732Y146250D02*
X327768D01*
X330000Y148482D02*
Y164000D01*
X321500Y131750D02*
Y144018D01*
X323732Y146250D01*
X295500Y167232D02*
Y183768D01*
X283000Y165000D02*
X283715Y165715D01*
X293983D01*
X295500Y167232D01*
X259500Y164500D02*
X260000Y165000D01*
X235500Y156000D02*
X240095Y160595D01*
X241095D02*
X245000Y164500D01*
X240095Y160595D02*
X241095D01*
X245000Y164500D02*
X259500D01*
X235500Y135000D02*
Y156000D01*
X246018Y92000D02*
X260000D01*
X294018D02*
X296250Y89768D01*
X260000Y92000D02*
X294018D01*
X296250Y55982D02*
Y89768D01*
X234500Y90000D02*
X234965Y90465D01*
X244483D01*
X246018Y92000D01*
X319250Y53750D02*
X319500Y54000D01*
X298482Y53750D02*
X319250D01*
X296250Y55982D02*
X298482Y53750D01*
X344500Y56232D02*
Y107268D01*
X360700Y109500D02*
X361000Y109200D01*
X346732Y109500D02*
X360700D01*
X344500Y107268D02*
X346732Y109500D01*
X350500Y94018D02*
X351287Y94805D01*
X359305D01*
X350500Y86232D02*
Y94018D01*
X319500Y54000D02*
X342268D01*
X344500Y56232D01*
X352732Y84000D02*
X360800D01*
X350500Y86232D02*
X352732Y84000D01*
X359305Y94805D02*
X361000Y96500D01*
X320500Y186000D02*
X321250Y185250D01*
X342768D01*
X345000Y183018D01*
X353982Y160250D02*
X360750D01*
X351750Y149532D02*
Y158018D01*
X359305Y148995D02*
X361000Y147300D01*
X351750Y149532D02*
X352287Y148995D01*
X351750Y158018D02*
X353982Y160250D01*
X352287Y148995D02*
X359305D01*
X297732Y186000D02*
X320500D01*
X295500Y183768D02*
X297732Y186000D01*
X234000Y133500D02*
X235500Y135000D01*
X202750Y157232D02*
Y157268D01*
X204982Y155000D02*
X216500D01*
X202750Y157232D02*
X204982Y155000D01*
X188000Y159500D02*
X200518D01*
X202750Y157268D01*
X234500Y90000D02*
Y114000D01*
X234000Y114500D02*
X234500Y114000D01*
X188000Y89500D02*
X215000D01*
X215500Y90000D01*
X175000Y109732D02*
Y111268D01*
X186768Y109732D02*
X188000Y108500D01*
X175000Y109732D02*
X186768D01*
X160000Y113500D02*
X172768D01*
X175000Y111268D01*
X173000Y134732D02*
Y138268D01*
X188000Y140500D02*
X188000Y140500D01*
X175232Y140500D02*
X188000D01*
X173000Y138268D02*
X175232Y140500D01*
X160000Y132500D02*
X170768D01*
X173000Y134732D01*
X148250Y113500D02*
X160000D01*
X148000Y113250D02*
X148250Y113500D01*
X147750Y113250D02*
X148000D01*
X70250Y214750D02*
X71000Y214000D01*
X70000Y215000D02*
X70250Y214750D01*
X71000Y197482D02*
Y214000D01*
Y197482D02*
X73232Y195250D01*
X85500D01*
X102750Y134732D02*
Y174750D01*
X104982Y132500D02*
X160000D01*
X102750Y134732D02*
X104982Y132500D01*
X102500Y175000D02*
X102750Y174750D01*
X433875Y189375D02*
Y214375D01*
X431250Y217000D02*
Y222250D01*
Y217000D02*
X433875Y214375D01*
X433500Y189000D02*
X434250Y189750D01*
X414500Y189000D02*
Y209000D01*
X418750Y213250D01*
X105000Y385000D02*
X105250Y384750D01*
X105000Y385000D02*
Y410000D01*
X80000Y349232D02*
Y385000D01*
Y349232D02*
X82232Y347000D01*
X150250D01*
X150750Y347500D01*
X80000Y385000D02*
Y410000D01*
X469000Y249500D02*
X492000D01*
X468000D02*
X469000D01*
X492000D02*
X506500D01*
X507000Y250000D01*
X511500Y264750D02*
X512500Y263750D01*
X492000Y276500D02*
X509268D01*
X511500Y274268D01*
Y264750D02*
Y274268D01*
X652000Y264500D02*
X667000D01*
X667250Y264750D01*
X566750Y262250D02*
X617268D01*
X619500Y264482D01*
X564000Y259500D02*
X566750Y262250D01*
X564000Y241400D02*
Y259500D01*
X559750Y281982D02*
Y302750D01*
X545750Y218232D02*
Y277518D01*
X557518Y279750D02*
X559750Y281982D01*
X547982Y279750D02*
X557518D01*
X545750Y277518D02*
X547982Y279750D01*
X469000Y230500D02*
X492000D01*
X439750Y232732D02*
Y254518D01*
X441982Y230500D02*
X469000D01*
X439750Y232732D02*
X441982Y230500D01*
X428850Y256750D02*
X437518D01*
X439750Y254518D01*
X428000Y257600D02*
X428850Y256750D01*
X448750Y251965D02*
Y268068D01*
Y251965D02*
X450982Y249733D01*
X468767D01*
X446518Y270300D02*
X448750Y268068D01*
X428000Y270300D02*
X446518D01*
X468767Y249733D02*
X469000Y249500D01*
X470000Y277500D02*
X491000D01*
X492000Y276500D01*
X448750Y279232D02*
Y280768D01*
X469500Y277000D02*
X470000Y277500D01*
X450982Y277000D02*
X469500D01*
X448750Y279232D02*
X450982Y277000D01*
X428000Y283000D02*
X446518D01*
X448750Y280768D01*
X402500Y189000D02*
X414500D01*
X422000Y147300D02*
X432018D01*
X433500Y189000D02*
X434250Y188250D01*
Y149532D02*
Y188250D01*
X432018Y147300D02*
X434250Y149532D01*
X414500Y174500D02*
Y189000D01*
X416750Y172250D02*
X419768D01*
X414500Y174500D02*
X416750Y172250D01*
X422000Y160000D02*
Y170018D01*
X419768Y172250D02*
X422000Y170018D01*
X433500Y189000D02*
X456500D01*
X458500Y191000D01*
X548500Y127000D02*
Y144500D01*
Y127000D02*
X548500Y127000D01*
X650768Y244268D02*
X652000Y245500D01*
X637500Y244268D02*
X650768D01*
X625000Y241400D02*
X635268D01*
X625000Y228700D02*
X625050Y228750D01*
X634250D01*
X638000Y218250D02*
Y225518D01*
X635768Y227750D02*
X638000Y225518D01*
X635250Y227750D02*
X635768D01*
X634250Y228750D02*
X635250Y227750D01*
X635750Y216000D02*
X638000Y218250D01*
X625000Y216000D02*
X635750D01*
X625000Y203300D02*
X637050D01*
X637500Y203750D01*
X513000Y186500D02*
X529750D01*
X512750Y186750D02*
X513000Y186500D01*
X513500Y205500D02*
X529750D01*
X552250Y194732D02*
Y201068D01*
Y194732D02*
X554482Y192500D01*
X561000D01*
X554482Y203300D02*
X564000D01*
X552250Y201068D02*
X554482Y203300D01*
X547482Y181750D02*
X563750D01*
X545250Y183982D02*
X547482Y181750D01*
X545250Y183982D02*
Y213268D01*
X547982Y216000D01*
X563750Y181750D02*
X567500Y178000D01*
Y127000D02*
Y178000D01*
X559500Y303000D02*
X559750Y302750D01*
X551560Y238810D02*
X554500Y241750D01*
X553792Y228700D02*
X564000D01*
X551560Y230932D02*
X553792Y228700D01*
X551560Y230932D02*
Y238810D01*
X545750Y218232D02*
X547982Y216000D01*
X554500Y241750D02*
X563650D01*
X564000Y241400D01*
X540500Y303000D02*
Y319000D01*
X443500Y365000D02*
Y380750D01*
X444000Y381250D01*
X443500Y365000D02*
X454268D01*
X456500Y367232D02*
Y384518D01*
X454268Y365000D02*
X456500Y367232D01*
X443500Y323332D02*
Y365000D01*
X458732Y386750D02*
X468750D01*
X456500Y384518D02*
X458732Y386750D01*
X424250Y364750D02*
X424500Y365000D01*
X424250Y364750D02*
X424250Y364750D01*
X412250Y364750D02*
X424250D01*
X424500Y365000D02*
Y386500D01*
X421750Y389250D02*
X424500Y386500D01*
X492000Y295500D02*
X503500D01*
X506000Y298000D01*
X456500Y296500D02*
X456500Y296500D01*
X470000D01*
X457500Y316000D02*
X472500D01*
X428000Y295700D02*
X428550Y296250D01*
X450250Y310632D02*
Y333518D01*
X467250Y335750D02*
X468500Y337000D01*
X452482Y335750D02*
X467250D01*
X450250Y333518D02*
X452482Y335750D01*
X428000Y308400D02*
X448018D01*
X450250Y310632D01*
X470500Y351000D02*
Y362000D01*
X468500Y349000D02*
X470500Y351000D01*
X468500Y337000D02*
Y349000D01*
X428000Y321100D02*
X441268D01*
X443500Y323332D01*
X468750Y386750D02*
X470500Y385000D01*
X424250Y350250D02*
Y364750D01*
Y350250D02*
X428000Y346500D01*
Y333800D02*
Y346500D01*
X388500Y231000D02*
X399500D01*
X400500Y232000D01*
X390500Y361000D02*
X402250D01*
X402750Y361500D01*
X369500Y231000D02*
X369750Y231250D01*
Y246232D01*
X367000Y248982D02*
Y257600D01*
Y248982D02*
X369750Y246232D01*
X368982Y346000D02*
X370018D01*
X371500Y361000D02*
X372250Y360250D01*
Y348232D02*
Y360250D01*
X370018Y346000D02*
X372250Y348232D01*
X367000Y333800D02*
Y344018D01*
X368982Y346000D01*
X288500Y295000D02*
Y302768D01*
X290732Y305000D01*
X296000D01*
X288000Y294500D02*
X288500Y295000D01*
X288000Y312732D02*
Y323500D01*
X285768Y310500D02*
X288000Y312732D01*
X283250Y310500D02*
X285768D01*
X264000Y303250D02*
X266250Y305500D01*
X268250D01*
X264000Y294500D02*
Y303250D01*
Y311482D02*
Y323500D01*
X261768Y309250D02*
X264000Y311482D01*
X257500Y309250D02*
X261768D01*
X336500Y252000D02*
Y270000D01*
X338500Y272000D01*
X317500Y252000D02*
Y264250D01*
X312000Y269750D02*
X317500Y264250D01*
X313482Y286250D02*
X326500D01*
X311250Y284018D02*
X313482Y286250D01*
X311250Y279500D02*
Y284018D01*
Y279500D02*
X311500Y279250D01*
X341500Y297932D02*
Y303018D01*
Y297932D02*
X343732Y295700D01*
X326500Y305250D02*
X339268D01*
X341500Y303018D01*
X328732Y318750D02*
X336018D01*
X338250Y336750D02*
X338500Y337000D01*
X338250Y320982D02*
Y336750D01*
X336018Y318750D02*
X338250Y320982D01*
X326500Y305250D02*
Y316518D01*
X328732Y318750D01*
X319500Y326000D02*
Y337000D01*
X312750Y319250D02*
X319500Y326000D01*
X349250Y235500D02*
Y280768D01*
X351482Y283000D02*
X367000D01*
X349250Y280768D02*
X351482Y283000D01*
X327000Y230000D02*
X347130D01*
X349362Y232232D01*
Y235388D01*
X349250Y235500D02*
X349362Y235388D01*
X365305Y259295D02*
X367000Y257600D01*
X366800Y270500D02*
X367000Y270300D01*
X357250Y268268D02*
X359482Y270500D01*
X357787Y259295D02*
X365305D01*
X359482Y270500D02*
X366800D01*
X357250Y259832D02*
Y268268D01*
Y259832D02*
X357787Y259295D01*
X298500Y232732D02*
Y273518D01*
X326500Y230500D02*
X327000Y230000D01*
X300732Y230500D02*
X326500D01*
X298500Y232732D02*
X300732Y230500D01*
X288250Y275750D02*
X296268D01*
X298500Y273518D01*
X288000Y275500D02*
X288250Y275750D01*
X70250Y214750D02*
X155768D01*
X158000Y302500D02*
X159000Y303500D01*
X158000Y216982D02*
Y302500D01*
X155768Y214750D02*
X158000Y216982D01*
X140250Y258482D02*
Y321018D01*
X158250Y323250D02*
X159000Y322500D01*
X142482Y323250D02*
X158250D01*
X140250Y321018D02*
X142482Y323250D01*
X116250Y256250D02*
X138018D01*
X140250Y258482D01*
X115000Y255000D02*
X116250Y256250D01*
X351000Y310632D02*
Y356268D01*
X329500Y358500D02*
X348768D01*
X351000Y356268D01*
Y310632D02*
X353232Y308400D01*
X367000D01*
X358000Y331568D02*
X358537Y332105D01*
X358000Y324482D02*
Y331568D01*
X365305Y332105D02*
X367000Y333800D01*
X358537Y332105D02*
X365305D01*
X365850Y322250D02*
X367000Y321100D01*
X358000Y324482D02*
X360232Y322250D01*
X365850D01*
X329000Y359000D02*
X329500Y358500D01*
X300000Y345250D02*
Y356768D01*
X302232Y359000D02*
X329000D01*
X300000Y356768D02*
X302232Y359000D01*
X297750Y343000D02*
X300000Y345250D01*
X288500Y343000D02*
X297750D01*
X288000Y342500D02*
X288500Y343000D01*
X264000Y275500D02*
X288000D01*
X241000Y273500D02*
X241500Y274000D01*
X240500Y273000D02*
X241000Y273500D01*
X252750Y275500D02*
X264000D01*
X251250Y274000D02*
X252750Y275500D01*
X241500Y274000D02*
X251250D01*
X241000Y273500D02*
Y301500D01*
X264000Y342500D02*
X288000D01*
X263500Y343000D02*
X264000Y342500D01*
X240500Y343000D02*
X263500D01*
X240500Y321000D02*
Y343000D01*
Y321000D02*
X241000Y320500D01*
X175750Y293732D02*
Y301268D01*
X177982Y291500D02*
X193000D01*
X175750Y293732D02*
X177982Y291500D01*
X159000Y303500D02*
X173518D01*
X175750Y301268D01*
X193000Y272500D02*
X221000D01*
X221500Y273000D01*
X193000Y343500D02*
X221000D01*
X221500Y343000D01*
X192500Y325000D02*
X193000Y324500D01*
X176750Y325000D02*
X192500D01*
X174250Y322500D02*
X176750Y325000D01*
X159000Y322500D02*
X174250D01*
X427250Y807250D02*
Y840750D01*
Y807250D02*
X427500Y807000D01*
X83250Y777250D02*
X153268D01*
X79000Y781500D02*
X83250Y777250D01*
X80000Y882000D02*
X82524Y884524D01*
X105000Y882000D02*
X105750Y882750D01*
X105000Y832000D02*
X105750Y831250D01*
X79000Y781500D02*
Y831000D01*
X80000Y832000D01*
Y857000D01*
X105000Y832000D02*
Y857000D01*
X446500Y807000D02*
Y820000D01*
X452000Y825500D01*
X462000Y628250D02*
X465000D01*
X465500Y628750D01*
X458500Y624750D02*
X462000Y628250D01*
X458500Y612000D02*
Y624750D01*
X439500Y612000D02*
Y623000D01*
X431750Y630750D02*
X439500Y623000D01*
X488750Y1269000D02*
X489000Y1269250D01*
X488500Y1268750D02*
X488750Y1269000D01*
X80000Y1339000D02*
X81250Y1340250D01*
X488500Y1252000D02*
Y1268750D01*
X461250Y1274750D02*
X469500Y1266500D01*
Y1252000D02*
Y1266500D01*
X84750Y1246500D02*
X180500D01*
X181500Y1247500D01*
X80000Y1251250D02*
Y1289000D01*
Y1251250D02*
X84750Y1246500D01*
X468500Y1083000D02*
Y1097500D01*
Y1071268D02*
Y1083000D01*
X487500D02*
Y1095518D01*
X489732Y1097750D01*
X493500D01*
X466661Y1099339D02*
X468500Y1097500D01*
X304000Y1013500D02*
Y1025250D01*
X305500Y1026750D01*
X292250Y1031250D02*
X302268D01*
X304000Y1032982D01*
Y1043500D01*
X328000Y1013500D02*
Y1022268D01*
X330232Y1024500D01*
X335500D01*
X327000Y1032982D02*
Y1043500D01*
X324768Y1030750D02*
X327000Y1032982D01*
X321000Y1030750D02*
X324768D01*
X304000Y1043500D02*
X304905D01*
X309500Y1038905D01*
X303095Y1013500D02*
X304000D01*
X298500Y1018095D02*
X303095Y1013500D01*
X537000Y945500D02*
X555500D01*
X555500Y945500D01*
X537000Y972500D02*
X550000D01*
X554750Y967750D01*
X433500Y960000D02*
X447750D01*
X447750Y960000D01*
X433500Y1089000D02*
X447500D01*
X471000Y1048800D02*
X471200Y1049000D01*
X516500Y1032000D02*
X517500Y1033000D01*
X516250Y1031750D02*
X516500Y1032000D01*
X517500Y1033000D02*
Y1053000D01*
X505250Y1031750D02*
X516250D01*
X471000Y1036100D02*
X500900D01*
X505250Y1031750D01*
X500750Y1017500D02*
X506250Y1012000D01*
X518500D01*
X471000Y1023400D02*
X480150D01*
X484750Y1028000D01*
X517000Y991500D02*
X537000D01*
X495500Y975232D02*
Y1000500D01*
X516500Y973000D02*
X517000Y972500D01*
X497732Y973000D02*
X516500D01*
X495500Y975232D02*
X497732Y973000D01*
X485300Y1010700D02*
X495500Y1000500D01*
X471000Y1010700D02*
X485300D01*
X517000Y972500D02*
X537000D01*
X517000Y945500D02*
X537000D01*
X486500Y946982D02*
Y995000D01*
X516250Y944750D02*
X517000Y945500D01*
X488732Y944750D02*
X516250D01*
X486500Y946982D02*
X488732Y944750D01*
X471000Y998000D02*
X483500D01*
X486500Y995000D01*
X471000Y928982D02*
Y985300D01*
X516750Y926750D02*
X517000Y926500D01*
X473232Y926750D02*
X516750D01*
X471000Y928982D02*
X473232Y926750D01*
X517000Y926500D02*
X537000D01*
X537250Y926750D01*
X535500Y1032000D02*
X582268D01*
X584500Y1029768D01*
X553500Y991500D02*
X558250Y996250D01*
Y999000D01*
X537000Y991500D02*
X553500D01*
X552250Y1012000D02*
X556250Y1016000D01*
Y1020000D01*
X537500Y1012000D02*
X552250D01*
X549500Y1053000D02*
X552500Y1056000D01*
Y1063250D01*
X536500Y1053000D02*
X549500D01*
X547500Y1078000D02*
X551750Y1082250D01*
Y1089250D01*
X534500Y1078000D02*
X547500D01*
X503250Y1080732D02*
Y1080750D01*
X515000Y1078500D02*
X515500Y1078000D01*
X505482Y1078500D02*
X515000D01*
X503250Y1080732D02*
X505482Y1078500D01*
X501000Y1083000D02*
X503250Y1080750D01*
X471000Y1061500D02*
Y1068768D01*
X468500Y1071268D02*
X471000Y1068768D01*
X351250Y1000500D02*
X354500Y997250D01*
Y981000D02*
Y997250D01*
X390000Y1038332D02*
Y1090268D01*
X392232Y1036100D02*
X410000D01*
X390000Y1038332D02*
X392232Y1036100D01*
X369500Y1092500D02*
X387768D01*
X390000Y1090268D01*
X369000Y1092000D02*
X369500Y1092500D01*
X341500Y959000D02*
X368000D01*
X391000Y961232D02*
Y1009018D01*
X409450Y1011250D02*
X410000Y1010700D01*
X393232Y1011250D02*
X409450D01*
X391000Y1009018D02*
X393232Y1011250D01*
X364000Y959000D02*
X388768D01*
X391000Y961232D01*
X408305Y986995D02*
X410000Y985300D01*
X398500Y987232D02*
X398737Y986995D01*
X400732Y998000D02*
X410000D01*
X398500Y995768D02*
X400732Y998000D01*
X398737Y986995D02*
X408305D01*
X398500Y987232D02*
Y995768D01*
X414500Y960000D02*
Y971250D01*
X410000Y975750D02*
Y985300D01*
Y975750D02*
X414500Y971250D01*
Y1077000D02*
Y1089000D01*
X410000Y1072500D02*
X414500Y1077000D01*
X410000Y1061500D02*
Y1072500D01*
X399500Y1051232D02*
Y1059268D01*
X408305Y1050495D02*
X410000Y1048800D01*
X400237Y1050495D02*
X408305D01*
X399500Y1051232D02*
X400237Y1050495D01*
X401732Y1061500D02*
X410000D01*
X399500Y1059268D02*
X401732Y1061500D01*
X373500Y981000D02*
Y994000D01*
X379250Y999750D01*
X353500Y1016000D02*
X366000D01*
X351000Y1013500D02*
X353500Y1016000D01*
X383750Y1025632D02*
Y1032768D01*
X366000Y1035000D02*
X381518D01*
X383750Y1032768D01*
X385982Y1023400D02*
X410000D01*
X383750Y1025632D02*
X385982Y1023400D01*
X368732Y1049000D02*
X375500D01*
X366000Y1035000D02*
X366500Y1035500D01*
Y1046768D01*
X368732Y1049000D01*
X375500D02*
X378500Y1052000D01*
Y1070000D01*
X352500Y1052000D02*
X356000D01*
X359500Y1055500D01*
Y1070000D01*
X328000Y972500D02*
X341500Y959000D01*
X328000Y972500D02*
Y994500D01*
X304000D02*
X328000D01*
X291500D02*
X304000D01*
X288000Y991000D02*
X291500Y994500D01*
X276500Y991000D02*
X288000D01*
X276500D02*
Y1018000D01*
X276000Y1018500D02*
X276500Y1018000D01*
X304000Y1062500D02*
X327000D01*
X277500Y1063000D02*
X303500D01*
X304000Y1062500D01*
X277500Y1039000D02*
Y1063000D01*
X276000Y1037500D02*
X277500Y1039000D01*
X242250Y1063000D02*
X258500D01*
X240750Y1061500D02*
X242250Y1063000D01*
X226000Y1061500D02*
X240750D01*
X256500Y992000D02*
X257500Y991000D01*
X243250Y992000D02*
X256500D01*
X241750Y990500D02*
X243250Y992000D01*
X226000Y990500D02*
X241750D01*
X208750Y1011482D02*
Y1017268D01*
X225750Y1009250D02*
X226000Y1009500D01*
X210982Y1009250D02*
X225750D01*
X208750Y1011482D02*
X210982Y1009250D01*
X190000Y1019500D02*
X206518D01*
X208750Y1017268D01*
X225500Y1042000D02*
X226000Y1042500D01*
X209500Y1042000D02*
X225500D01*
X206000Y1038500D02*
X209500Y1042000D01*
X190000Y1038500D02*
X206000D01*
X535000Y1131500D02*
X553000D01*
X553500Y1131000D01*
X554000Y1154500D02*
X558000Y1150500D01*
X535000Y1154500D02*
X554000D01*
X431500Y1119000D02*
X442000D01*
X445750Y1122750D01*
X431500Y1244000D02*
X444000D01*
X471000Y1208400D02*
X487518D01*
X488500Y1252000D02*
X489750Y1250750D01*
Y1210632D02*
Y1250750D01*
X487518Y1208400D02*
X489750Y1210632D01*
X513500Y1215000D02*
Y1235000D01*
X515500Y1237000D01*
X499750Y1202982D02*
Y1212768D01*
X501982Y1215000D02*
X513500D01*
X499750Y1212768D02*
X501982Y1215000D01*
X492250Y1200750D02*
X497518D01*
X499750Y1202982D01*
X487200Y1195700D02*
X492250Y1200750D01*
X471000Y1195700D02*
X487200D01*
X502250Y1194000D02*
X515500D01*
X471000Y1183000D02*
X483500D01*
X492000Y1155982D02*
Y1168068D01*
X514250Y1153750D02*
X515000Y1154500D01*
X494232Y1153750D02*
X514250D01*
X492000Y1155982D02*
X494232Y1153750D01*
X471000Y1170300D02*
X489768D01*
X492000Y1168068D01*
X485500Y1132982D02*
Y1155368D01*
X514750Y1130750D02*
X515000Y1130500D01*
X487732Y1130750D02*
X514750D01*
X485500Y1132982D02*
X487732Y1130750D01*
X471000Y1157600D02*
X483268D01*
X485500Y1155368D01*
X471000Y1113732D02*
Y1144900D01*
X473232Y1111500D02*
X515000D01*
X471000Y1113732D02*
X473232Y1111500D01*
X516000Y1112500D02*
X535000D01*
X515000Y1111500D02*
X516000Y1112500D01*
Y1131500D02*
X535000D01*
X515000Y1130500D02*
X516000Y1131500D01*
X515000Y1154500D02*
X535000D01*
Y1173500D02*
X562750D01*
X566250Y1177000D01*
X534500Y1194000D02*
X546000D01*
X555000Y1185000D01*
X532500Y1215000D02*
X580000D01*
X582250Y1114732D02*
Y1212750D01*
X580000Y1215000D02*
X582250Y1212750D01*
X535000Y1112500D02*
X580018D01*
X582250Y1114732D01*
X534500Y1237000D02*
Y1238000D01*
X544000Y1247500D01*
X549750D01*
X531500Y1261000D02*
Y1273018D01*
X533732Y1275250D01*
X543750D01*
X544000Y1275000D01*
X490733Y1254233D02*
X498483D01*
X488500Y1252000D02*
X490733Y1254233D01*
X498483D02*
X502500Y1258250D01*
X509750D01*
X512500Y1261000D01*
X468750Y1251250D02*
X469500Y1252000D01*
X468750Y1241500D02*
Y1251250D01*
X471000Y1221100D02*
Y1239250D01*
X468750Y1241500D02*
X471000Y1239250D01*
X412500Y1244000D02*
X412500Y1244000D01*
X412500Y1231750D02*
Y1244000D01*
X410000Y1221100D02*
Y1229250D01*
X412500Y1231750D01*
X355500Y1219000D02*
Y1221000D01*
X345000Y1208500D02*
X355500Y1219000D01*
X345000Y1201250D02*
Y1208500D01*
X314500Y758500D02*
Y773000D01*
X310250Y754250D02*
X314500Y758500D01*
X337000Y1123232D02*
Y1146268D01*
X339232Y1121000D02*
X363250D01*
X337000Y1123232D02*
X339232Y1121000D01*
X319000Y1148500D02*
X334768D01*
X337000Y1146268D01*
X372750Y1143000D02*
Y1157250D01*
X380750Y1165250D01*
X353750Y1143000D02*
Y1159000D01*
X351000Y1161750D02*
X353750Y1159000D01*
X350000Y1175000D02*
X364250D01*
X349500Y1174500D02*
X350000Y1175000D01*
X311250Y1184000D02*
X315768D01*
X310750Y1183500D02*
X311250Y1184000D01*
X319000Y1167500D02*
Y1177018D01*
X321232Y1179250D01*
X325250D01*
X325500Y1179000D01*
X318000Y1186232D02*
Y1197500D01*
X315768Y1184000D02*
X318000Y1186232D01*
X292500Y1177250D02*
X295250Y1180000D01*
X298500D01*
X292500Y1168000D02*
Y1177250D01*
Y1168000D02*
X293000Y1167500D01*
X284000Y1183500D02*
X290768D01*
X293000Y1185732D02*
Y1197500D01*
X290768Y1183500D02*
X293000Y1185732D01*
X364250Y1194000D02*
X364750Y1194500D01*
Y1208000D02*
X371405Y1214655D01*
X364750Y1194500D02*
Y1208000D01*
X371405Y1217905D02*
X374500Y1221000D01*
X371405Y1214655D02*
Y1217905D01*
X364250Y1194000D02*
X376500D01*
X387500Y1183000D02*
X410000D01*
X408800Y1194500D02*
X410000Y1195700D01*
X393982Y1194500D02*
X408800D01*
X391750Y1196732D02*
X393982Y1194500D01*
X341000Y1240750D02*
X343250Y1243000D01*
X341000Y1218732D02*
Y1240750D01*
X318000Y1216500D02*
X338768D01*
X341000Y1218732D01*
X398000Y1210982D02*
Y1218868D01*
X408305Y1210095D02*
X410000Y1208400D01*
X398887Y1210095D02*
X408305D01*
X398000Y1210982D02*
X398887Y1210095D01*
X400232Y1221100D02*
X410000D01*
X398000Y1218868D02*
X400232Y1221100D01*
X399050Y1170300D02*
X410000D01*
X389500Y1160750D02*
X399050Y1170300D01*
X363250Y1121000D02*
X387268D01*
X389500Y1123232D01*
Y1160750D01*
X396750Y1147132D02*
Y1154750D01*
X399600Y1157600D02*
X410000D01*
X396750Y1154750D02*
X399600Y1157600D01*
X409750Y1144650D02*
X410000Y1144900D01*
X409750Y1132750D02*
Y1144650D01*
Y1132750D02*
X412500Y1130000D01*
Y1119000D02*
Y1130000D01*
X398982Y1144900D02*
X410000D01*
X396750Y1147132D02*
X398982Y1144900D01*
X293000Y1148500D02*
X319000D01*
X280000D02*
X293000D01*
X276500Y1145000D02*
X280000Y1148500D01*
X264500Y1145000D02*
X276500D01*
X264000Y1145500D02*
Y1173500D01*
Y1145500D02*
X264500Y1145000D01*
X166000Y1019500D02*
X190000D01*
X165750Y1019250D02*
X166000Y1019500D01*
X70500Y1118500D02*
X70750Y1118250D01*
X70000Y1119000D02*
X70500Y1118500D01*
X70750Y1103982D02*
Y1118250D01*
Y1103982D02*
X72982Y1101750D01*
X86750D01*
X102500Y1079000D02*
X143000Y1038500D01*
X190000D01*
X200500Y1164232D02*
Y1170268D01*
X214500Y1162000D02*
X215000Y1162500D01*
X202732Y1162000D02*
X214500D01*
X200500Y1164232D02*
X202732Y1162000D01*
X185000Y1172500D02*
X198268D01*
X200500Y1170268D01*
X215000Y1143500D02*
X244000D01*
X245500Y1145000D01*
X293000Y1216500D02*
X318000D01*
X264500Y1216000D02*
X265000Y1216500D01*
X293000D01*
X264500Y1193000D02*
Y1216000D01*
X264000Y1192500D02*
X264500Y1193000D01*
X215000Y1216500D02*
X245000D01*
X245500Y1216000D01*
X200250Y1193750D02*
Y1195268D01*
X202482Y1197500D02*
X215000D01*
X200250Y1195268D02*
X202482Y1197500D01*
X198000Y1191500D02*
X200250Y1193750D01*
X185000Y1191500D02*
X198000D01*
X157000Y1161500D02*
Y1189268D01*
X159232Y1191500D02*
X185000D01*
X157000Y1189268D02*
X159232Y1191500D01*
X153750Y1158250D02*
X157000Y1161500D01*
X115750Y1158250D02*
X153750D01*
X115000Y1159000D02*
X115750Y1158250D01*
X70500Y1118500D02*
X182018D01*
X184250Y1171750D02*
X185000Y1172500D01*
X184250Y1120732D02*
Y1171750D01*
X182018Y1118500D02*
X184250Y1120732D01*
X507000Y477500D02*
X523750D01*
X525500Y475750D01*
X508000Y503500D02*
X512595Y498905D01*
X522095D01*
X527500Y493500D01*
X485000Y504500D02*
X507000D01*
X508000Y503500D01*
X458500Y612000D02*
X485500D01*
X450495Y570995D02*
X458500Y579000D01*
Y612000D01*
X441000Y569300D02*
X442695Y570995D01*
X450495D01*
X441000Y582000D02*
Y594000D01*
X439500Y595500D02*
X441000Y594000D01*
X439500Y595500D02*
Y612000D01*
X486500Y563000D02*
Y585000D01*
X487500Y586000D01*
X472250Y523500D02*
X485000D01*
X467250Y528500D02*
X472250Y523500D01*
X441000Y543900D02*
X441050Y543950D01*
X454450D01*
X454500Y544000D01*
X473250Y547500D02*
X477750Y543000D01*
X488500D01*
X456500Y563000D02*
X486500D01*
X441656Y557256D02*
X450756D01*
X441000Y556600D02*
X441656Y557256D01*
X450756D02*
X456500Y563000D01*
X441000Y531200D02*
X451300D01*
X470000Y505750D02*
Y512500D01*
X451300Y531200D02*
X470000Y512500D01*
X453000Y518500D02*
X462000Y509500D01*
Y479482D02*
X464232Y477250D01*
X462000Y479482D02*
Y509500D01*
X441000Y518500D02*
X453000D01*
X471250Y504500D02*
X485000D01*
X470000Y505750D02*
X471250Y504500D01*
X525500Y522500D02*
X529750Y518250D01*
X508000Y522500D02*
X525500D01*
X507500Y543000D02*
X521250D01*
X529500Y534750D01*
X506500Y586000D02*
X521000D01*
X529750Y594750D01*
X504500Y612000D02*
X523250D01*
X524500Y613250D01*
X507000Y458500D02*
X535750D01*
X552500Y475250D01*
Y544000D01*
X505500Y563000D02*
X533500D01*
X552500Y544000D01*
X485000Y477500D02*
X507000D01*
X484750Y477250D02*
X485000Y477500D01*
X464232Y477250D02*
X484750D01*
X485000Y458500D02*
X507000D01*
X484250Y459250D02*
X485000Y458500D01*
X452500Y461482D02*
Y503568D01*
X454732Y459250D02*
X484250D01*
X452500Y461482D02*
X454732Y459250D01*
X441000Y505800D02*
X450268D01*
X452500Y503568D01*
X403500Y477000D02*
X417000D01*
X421250Y472750D01*
X404500Y609000D02*
X418250D01*
X418750Y609500D01*
X384500Y477000D02*
Y489500D01*
X380000Y494000D02*
Y505800D01*
Y494000D02*
X384500Y489500D01*
X385500Y594750D02*
Y609000D01*
X380000Y589250D02*
X385500Y594750D01*
X380000Y582000D02*
Y589250D01*
X379750Y582250D02*
X380000Y582000D01*
X371250Y582250D02*
X379750D01*
X368750Y579750D02*
X371250Y582250D01*
X370982Y569300D02*
X380000D01*
X368750Y571532D02*
X370982Y569300D01*
X368750Y571532D02*
Y579750D01*
X355500Y615000D02*
X362500Y608000D01*
Y558982D02*
Y608000D01*
X364732Y556750D02*
X379850D01*
X362500Y558982D02*
X364732Y556750D01*
X367133Y543900D02*
X380000D01*
X339500Y558000D02*
X353033D01*
X369792Y505800D02*
X380000D01*
X367560Y508032D02*
X369792Y505800D01*
X371000Y519000D02*
X379500D01*
X367560Y515560D02*
X371000Y519000D01*
X367560Y508032D02*
Y515560D01*
X379500Y519000D02*
X380000Y518500D01*
X338000Y484000D02*
X355250D01*
X361750Y490500D02*
Y528768D01*
X355250Y484000D02*
X361750Y490500D01*
Y528768D02*
X363982Y531000D01*
X379800D01*
X329500Y576500D02*
Y593000D01*
X326250Y573250D02*
X329500Y576500D01*
X347500Y521750D02*
X350250Y524500D01*
X347500Y506000D02*
Y521750D01*
X322500Y523500D02*
X324000D01*
X328500Y519000D01*
Y506000D02*
Y519000D01*
X339500Y539000D02*
X357750D01*
X357750Y539000D01*
X339500Y558000D02*
X339750Y558250D01*
Y566000D02*
X348500Y574750D01*
X339750Y558250D02*
Y566000D01*
X348500Y574750D02*
Y593000D01*
X275733Y530233D02*
Y540983D01*
X280750Y546000D01*
X275000Y529500D02*
X275733Y530233D01*
X299000Y529500D02*
Y542518D01*
X301232Y544750D01*
X309250D01*
X298000Y555250D02*
Y567500D01*
X294250Y551500D02*
X298000Y555250D01*
X267750Y551250D02*
X274000Y557500D01*
Y568500D01*
X379850Y556750D02*
X380000Y556600D01*
X339000Y615000D02*
X355500D01*
X313000D02*
X339000D01*
X298000Y600000D02*
X313000Y615000D01*
X298000Y586500D02*
Y600000D01*
X274000Y587500D02*
X297000D01*
X298000Y586500D01*
X247500Y590000D02*
X271500D01*
X274000Y587500D01*
X247500Y562000D02*
Y590000D01*
X247000Y561500D02*
X247500Y562000D01*
X379800Y531000D02*
X380000Y531200D01*
X307000Y484000D02*
X338000D01*
X299000Y492000D02*
Y510500D01*
Y492000D02*
X307000Y484000D01*
X275000Y510500D02*
X299000D01*
X274750Y510750D02*
X275000Y510500D01*
X262750Y510750D02*
X274750D01*
X246500Y507000D02*
X259000D01*
X262750Y510750D01*
X246500Y507000D02*
Y542000D01*
X247000Y542500D01*
X202000Y506500D02*
X227000D01*
X227500Y507000D01*
X202000Y590500D02*
X228000D01*
X228500Y590000D01*
X168000Y545500D02*
X169000D01*
X181190Y533310D01*
Y533095D02*
Y533310D01*
Y533095D02*
X188785Y525500D01*
X202000D01*
X168000Y564500D02*
X172595Y569095D01*
X183797D01*
X186203Y571500D01*
X202000D01*
X147250Y566982D02*
Y577250D01*
X167750Y564750D02*
X168000Y564500D01*
X149482Y564750D02*
X167750D01*
X147250Y566982D02*
X149482Y564750D01*
X102500Y622000D02*
X147250Y577250D01*
X146250Y545500D02*
X168000D01*
X146250Y545500D02*
X146250Y545500D01*
X70500Y650732D02*
Y661500D01*
Y650732D02*
X72732Y648500D01*
X91000D01*
X70000Y662000D02*
X70500Y661500D01*
X150750Y701500D02*
Y720268D01*
X152982Y722500D02*
X164000D01*
X150750Y720268D02*
X152982Y722500D01*
X111250Y662000D02*
X150750Y701500D01*
X70000Y662000D02*
X111250D01*
X515750Y811000D02*
X518000Y813250D01*
Y820000D01*
X499500Y811000D02*
X515750D01*
X502500Y787000D02*
X515518D01*
X517750Y789232D01*
Y794000D01*
X519250Y795500D01*
X517000Y744500D02*
Y748500D01*
X514500Y742000D02*
X517000Y744500D01*
X501500Y742000D02*
X514500D01*
X462250Y744500D02*
X464250D01*
X466750Y742000D01*
X482500D01*
X513000Y719500D02*
X521500Y728000D01*
X524500Y652250D02*
X537250Y665000D01*
Y743000D01*
X516250Y764000D02*
X537250Y743000D01*
X502000Y719500D02*
X513000D01*
X464500Y726250D02*
X471250Y719500D01*
X482000D01*
X327500Y703750D02*
X332750Y698500D01*
Y685000D02*
Y698500D01*
X306000Y704250D02*
X313750Y696500D01*
Y685000D02*
Y696500D01*
X331000Y663000D02*
X349000Y681000D01*
X287000Y685000D02*
X309000Y663000D01*
X331000D01*
X341250Y721500D02*
X343000Y723250D01*
X325750Y721500D02*
X341250D01*
X344997Y742250D02*
X355935Y731312D01*
X325750Y763250D02*
X333500Y771000D01*
Y773000D01*
X355935Y731312D02*
X367588D01*
X368000Y730900D01*
X367600Y744000D02*
X368000Y743600D01*
X348000Y753000D02*
Y792768D01*
X357000Y744000D02*
X367600D01*
X348000Y753000D02*
X357000Y744000D01*
X301232Y795000D02*
X345768D01*
X287000Y740250D02*
X289000Y738250D01*
X292750D01*
X287000Y718500D02*
X288233Y719733D01*
X297983D02*
X303431Y725181D01*
X288233Y719733D02*
X297983D01*
X265000Y717500D02*
Y731268D01*
X267232Y733500D01*
X275500D01*
X265000Y745000D02*
Y755500D01*
X257250Y737250D02*
X265000Y745000D01*
X287000Y740250D02*
Y755500D01*
X429300Y731200D02*
X445450D01*
X429000Y730900D02*
X429300Y731200D01*
X445450D02*
X445750Y731500D01*
X501000Y652500D02*
X501250Y652250D01*
X524500D01*
X500500Y764000D02*
X516250D01*
X514000Y671500D02*
X521250Y678750D01*
X501000Y671500D02*
X514000D01*
X502000Y700500D02*
X515250D01*
X521500Y694250D01*
X405000Y665000D02*
X412250Y657750D01*
X391500Y665000D02*
X405000D01*
X391500Y816500D02*
X397000Y822000D01*
X391500Y797000D02*
Y816500D01*
X464000Y811000D02*
X480500D01*
X446500Y807000D02*
X460000D01*
X464000Y811000D01*
X446500Y807000D02*
X447000Y806500D01*
Y793000D02*
Y806500D01*
Y793000D02*
X449000Y791000D01*
Y763000D02*
Y791000D01*
X429000Y756300D02*
X442300D01*
X449000Y763000D01*
X429000Y769000D02*
Y805500D01*
X427500Y807000D02*
X429000Y805500D01*
X480500Y765000D02*
X483500Y768000D01*
Y787000D01*
X466000Y765000D02*
X480500D01*
X429000Y743600D02*
X444600D01*
X466000Y765000D01*
X482000Y700500D02*
X502000D01*
X481500Y700000D02*
X482000Y700500D01*
X467000Y700000D02*
X481500D01*
X429000Y718200D02*
X448800D01*
X467000Y700000D01*
X481000Y652500D02*
X501000D01*
X480500Y652000D02*
X481000Y652500D01*
X451000Y654232D02*
Y686000D01*
X453232Y652000D02*
X480500D01*
X451000Y654232D02*
X453232Y652000D01*
X445000Y692000D02*
X451000Y686000D01*
X429800Y692000D02*
X445000D01*
X429000Y692800D02*
X429800Y692000D01*
X481000Y671500D02*
X501000D01*
X460000Y675232D02*
Y694000D01*
X479500Y673000D02*
X481000Y671500D01*
X462232Y673000D02*
X479500D01*
X460000Y675232D02*
X462232Y673000D01*
X429000Y705500D02*
X448500D01*
X460000Y694000D01*
X367800Y718000D02*
X368000Y718200D01*
X358000Y718000D02*
X367800D01*
X349000Y709000D02*
X358000Y718000D01*
X349000Y681000D02*
Y709000D01*
X356000Y695676D02*
X358232Y693444D01*
X367356D02*
X368000Y692800D01*
X358232Y693444D02*
X367356D01*
X356000Y695676D02*
Y702624D01*
X367356Y704856D02*
X368000Y705500D01*
X358232Y704856D02*
X367356D01*
X356000Y702624D02*
X358232Y704856D01*
X372500Y665000D02*
Y678500D01*
X368000Y683000D02*
Y692800D01*
Y683000D02*
X372500Y678500D01*
X287000Y685000D02*
Y699500D01*
X372500Y797000D02*
X373000Y796500D01*
Y782000D02*
Y796500D01*
X368000Y769000D02*
Y777000D01*
X373000Y782000D01*
X345768Y795000D02*
X348000Y792768D01*
X355000Y759000D02*
Y766768D01*
X357232Y769000D02*
X368000D01*
X355000Y766768D02*
X357232Y769000D01*
X355000Y759000D02*
X357700Y756300D01*
X368000D01*
X299000Y786500D02*
Y792768D01*
X301232Y795000D01*
X287000Y774500D02*
X288000D01*
X292595Y779095D01*
Y780095D01*
X299000Y786500D01*
X265000Y774500D02*
X287000D01*
X241500Y774000D02*
X242000Y774500D01*
X265000D01*
X241500Y747000D02*
Y774000D01*
X241000Y746500D02*
X241500Y747000D01*
X196000Y773500D02*
X222000D01*
X222500Y774000D01*
X180000Y745232D02*
Y752768D01*
X195500Y755000D02*
X196000Y754500D01*
X182232Y755000D02*
X195500D01*
X180000Y752768D02*
X182232Y755000D01*
X165500Y743000D02*
X177768D01*
X180000Y745232D01*
X164000Y741500D02*
X165500Y743000D01*
X241500Y696000D02*
Y727000D01*
X241000Y727500D02*
X241500Y727000D01*
X265000Y698500D02*
X286000D01*
X287000Y699500D01*
X241500Y696000D02*
X262500D01*
X265000Y698500D01*
X196000Y695500D02*
X222000D01*
X222500Y696000D01*
X194500Y716000D02*
X196000Y714500D01*
X182000Y716000D02*
X194500D01*
X164000Y722500D02*
X175500D01*
X182000Y716000D01*
X115000Y702000D02*
X154500Y741500D01*
X164000D02*
X164000Y741500D01*
X154500Y741500D02*
X164000D01*
D78*
X1148800Y50000D02*
D03*
X1174200Y50000D02*
D03*
X1199600Y50000D02*
D03*
X1250400Y50000D02*
D03*
X1225000Y50000D02*
D03*
X932000Y50000D02*
D03*
X906600Y50000D02*
D03*
X881200Y50000D02*
D03*
X830400Y50000D02*
D03*
X855800Y50000D02*
D03*
X1389200Y50000D02*
D03*
X1414600Y50000D02*
D03*
X1440000Y50000D02*
D03*
X1490800Y50000D02*
D03*
X1465400Y50000D02*
D03*
X1022600D02*
D03*
X1048000Y50000D02*
D03*
D79*
X1275800Y50000D02*
D03*
X805000D02*
D03*
X1516200D02*
D03*
X1073400D02*
D03*
D80*
X1084000Y460000D02*
D03*
X1132800D02*
D03*
D81*
X1040600Y1211000D02*
D03*
X1091400D02*
D03*
X1066000D02*
D03*
D82*
X37500Y1500000D02*
D03*
X107500D02*
D03*
D83*
X115000Y1159000D02*
D03*
X102500Y1079000D02*
D03*
X70000Y1119000D02*
D03*
X115000Y702000D02*
D03*
X102500Y622000D02*
D03*
X70000Y662000D02*
D03*
X115000Y255000D02*
D03*
X102500Y175000D02*
D03*
X70000Y215000D02*
D03*
D84*
X167500Y1339000D02*
D03*
Y1289000D02*
D03*
X80000Y1339000D02*
D03*
Y1314000D02*
D03*
Y1289000D02*
D03*
X105000D02*
D03*
Y1314000D02*
D03*
Y1339000D02*
D03*
X167500Y882000D02*
D03*
Y832000D02*
D03*
X80000Y882000D02*
D03*
Y857000D02*
D03*
Y832000D02*
D03*
X105000D02*
D03*
Y857000D02*
D03*
Y882000D02*
D03*
X167500Y435000D02*
D03*
Y385000D02*
D03*
X80000Y435000D02*
D03*
Y410000D02*
D03*
Y385000D02*
D03*
X105000D02*
D03*
Y410000D02*
D03*
Y435000D02*
D03*
D85*
X830000Y1512000D02*
D03*
X887000Y1514000D02*
D03*
X1450000Y1354000D02*
D03*
Y1204000D02*
D03*
Y1054000D02*
D03*
Y904000D02*
D03*
Y754000D02*
D03*
Y604000D02*
D03*
D86*
X926250Y539250D02*
D03*
Y489250D02*
D03*
X1249000Y904000D02*
D03*
X1199000D02*
D03*
X1249000Y1054000D02*
D03*
X1199000D02*
D03*
X1249000Y1204000D02*
D03*
X1199000D02*
D03*
X1186000Y778000D02*
D03*
X1206000D02*
D03*
X1249000Y1354000D02*
D03*
X1199000D02*
D03*
D87*
X443500Y296000D02*
D03*
X737000Y728000D02*
D03*
X927250Y681000D02*
D03*
X742000Y665000D02*
D03*
X992750Y1111000D02*
D03*
X992500Y1095500D02*
D03*
X720750Y777250D02*
D03*
X1082000Y685500D02*
D03*
X1232000Y755250D02*
D03*
X1256250Y713250D02*
D03*
X1217500Y712250D02*
D03*
X1182000Y695000D02*
D03*
X1172250Y653000D02*
D03*
X1048500Y659250D02*
D03*
X1159750Y719500D02*
D03*
X1159941Y699750D02*
D03*
X1180838Y746162D02*
D03*
X1136750Y534500D02*
D03*
X1181250Y479500D02*
D03*
X1180500Y514000D02*
D03*
X1079250Y534000D02*
D03*
X1054000Y495000D02*
D03*
X1071500Y518250D02*
D03*
X1137250Y354750D02*
D03*
X1064500Y307000D02*
D03*
X1113500Y401750D02*
D03*
X1034750Y254250D02*
D03*
X1036250Y306750D02*
D03*
X951500Y1080500D02*
D03*
X899875Y426875D02*
D03*
X744500Y449500D02*
D03*
X944000Y644250D02*
D03*
X910625Y635625D02*
D03*
X876000Y644000D02*
D03*
X817750Y653000D02*
D03*
X851500Y700250D02*
D03*
X705000Y643500D02*
D03*
X680500Y624750D02*
D03*
X703750Y788750D02*
D03*
X768500Y934000D02*
D03*
X678250Y796000D02*
D03*
X706500Y913750D02*
D03*
X676250Y894250D02*
D03*
X893750Y729250D02*
D03*
X894000Y1077750D02*
D03*
X876750Y1076250D02*
D03*
X893500Y1014500D02*
D03*
X859750Y1013000D02*
D03*
X924250Y761500D02*
D03*
X860500Y770750D02*
D03*
X842750Y743500D02*
D03*
X840500Y765750D02*
D03*
X828750Y764500D02*
D03*
X855000Y735000D02*
D03*
X840000Y1150000D02*
D03*
X230000Y1295000D02*
D03*
X505000Y315000D02*
D03*
Y360000D02*
D03*
X505000Y385000D02*
D03*
X490000Y190000D02*
D03*
X460000Y1385000D02*
D03*
X285000Y1375000D02*
D03*
X240000Y1390000D02*
D03*
X357750Y539000D02*
D03*
X535000Y1015000D02*
D03*
X820000Y1350000D02*
D03*
X338366Y123016D02*
D03*
X360083Y550950D02*
D03*
X348500Y574750D02*
D03*
X390000Y1495000D02*
D03*
X410000D02*
D03*
X400000D02*
D03*
X635000Y1350000D02*
D03*
X480000Y1470000D02*
D03*
X440000D02*
D03*
X395000Y1525000D02*
D03*
X830250Y1473750D02*
D03*
X694750Y1226250D02*
D03*
X847250Y518250D02*
D03*
X829500Y517750D02*
D03*
X751000Y360000D02*
D03*
X982250Y262750D02*
D03*
X973000Y271500D02*
D03*
X1071000Y284500D02*
D03*
X1181000Y272000D02*
D03*
X970500Y252750D02*
D03*
X953000Y271250D02*
D03*
X857750Y240250D02*
D03*
X634250Y644750D02*
D03*
X594000Y644000D02*
D03*
X626500Y780500D02*
D03*
X667000Y324500D02*
D03*
X738500Y743250D02*
D03*
X744000Y1016750D02*
D03*
X658250Y316250D02*
D03*
X1114000Y230000D02*
D03*
X1105500Y231250D02*
D03*
X1199750Y74000D02*
D03*
X1174250Y75500D02*
D03*
X1162250Y196250D02*
D03*
X1093750Y209500D02*
D03*
X1093250Y194750D02*
D03*
X1234500Y295000D02*
D03*
X1233500Y313750D02*
D03*
X1516250Y76750D02*
D03*
X1491000Y77250D02*
D03*
X1193750Y307494D02*
D03*
X1185750Y319000D02*
D03*
X319500Y1306750D02*
D03*
X1152500Y356250D02*
D03*
X1095500Y743500D02*
D03*
X792500Y297750D02*
D03*
X831750Y95500D02*
D03*
X856250Y75750D02*
D03*
X900000Y118000D02*
D03*
X805750Y83500D02*
D03*
X1051000Y222500D02*
D03*
X1072000Y223500D02*
D03*
X1062500Y223000D02*
D03*
X1083750Y229000D02*
D03*
X932250Y79250D02*
D03*
X907000Y78250D02*
D03*
X881500Y77750D02*
D03*
X962750Y280000D02*
D03*
X946500Y279750D02*
D03*
X1056750Y319000D02*
D03*
X962750Y288000D02*
D03*
X1179250Y348000D02*
D03*
X946500Y288000D02*
D03*
X1162750Y233500D02*
D03*
X863000Y312250D02*
D03*
X848250Y314500D02*
D03*
X1071875Y347875D02*
D03*
X1065000Y342000D02*
D03*
X768250Y263000D02*
D03*
X870500Y306750D02*
D03*
X1076750Y709750D02*
D03*
X1080750Y804963D02*
D03*
X1059275Y804725D02*
D03*
X756750Y1044000D02*
D03*
X740250Y782250D02*
D03*
X743250Y586750D02*
D03*
X743000Y569500D02*
D03*
X936500Y333500D02*
D03*
X935500Y353000D02*
D03*
X936750Y372250D02*
D03*
X961750Y407500D02*
D03*
X940000Y411750D02*
D03*
X888500Y225500D02*
D03*
X1349250Y932000D02*
D03*
X1324250Y932750D02*
D03*
X1349000Y1080750D02*
D03*
X1325000Y1082000D02*
D03*
X1349000Y1237250D02*
D03*
X1323750Y1239250D02*
D03*
X1349125Y1391625D02*
D03*
X1324000Y1390750D02*
D03*
X1013750Y827250D02*
D03*
X1003000D02*
D03*
X981250Y828000D02*
D03*
X968750Y826750D02*
D03*
X1013750Y799500D02*
D03*
X1003000Y799830D02*
D03*
X984000Y799250D02*
D03*
X972750Y799500D02*
D03*
X926500Y583750D02*
D03*
X850750Y419750D02*
D03*
X849350Y408000D02*
D03*
X875000Y353500D02*
D03*
X880250Y378750D02*
D03*
X855500Y288750D02*
D03*
X845250Y284500D02*
D03*
X837250Y281131D02*
D03*
X829500Y273000D02*
D03*
X812500Y272000D02*
D03*
X803500Y276750D02*
D03*
X788250Y272500D02*
D03*
X788933Y285500D02*
D03*
X816750Y254000D02*
D03*
X831500Y196750D02*
D03*
X783500Y197750D02*
D03*
X784750Y249000D02*
D03*
X869000Y259250D02*
D03*
X741000Y239000D02*
D03*
X751500Y309250D02*
D03*
X743500Y336000D02*
D03*
X732250Y336500D02*
D03*
X1117500Y354500D02*
D03*
X743250Y351250D02*
D03*
X691500Y372000D02*
D03*
X711000Y430750D02*
D03*
X745750Y476500D02*
D03*
X854000Y470000D02*
D03*
X829000Y812000D02*
D03*
X828500Y1034750D02*
D03*
X850000Y1022500D02*
D03*
X1038750Y594500D02*
D03*
X840750Y1010000D02*
D03*
X841500Y990250D02*
D03*
X857375Y1042875D02*
D03*
X925750Y1042000D02*
D03*
X927750Y921000D02*
D03*
X897000Y907000D02*
D03*
X866000Y921250D02*
D03*
X814750Y928500D02*
D03*
X753375Y1003375D02*
D03*
X593250Y1040500D02*
D03*
X585750Y1061500D02*
D03*
X654000Y898250D02*
D03*
X452000Y1257500D02*
D03*
X710750Y1052500D02*
D03*
X694000Y1054000D02*
D03*
X726500Y1037750D02*
D03*
X635750Y1041500D02*
D03*
X484250Y1061500D02*
D03*
X1118000Y1140500D02*
D03*
X1092375Y1262125D02*
D03*
X991000Y1189750D02*
D03*
X935250Y1205000D02*
D03*
X912750Y1224750D02*
D03*
X879000Y1252500D02*
D03*
X774250Y1248000D02*
D03*
X690750Y1171000D02*
D03*
X632000Y1219000D02*
D03*
X625000Y1233000D02*
D03*
X637500Y1275250D02*
D03*
X637250Y1252500D02*
D03*
X719250Y1226500D02*
D03*
X719500Y1269750D02*
D03*
X50250Y1434500D02*
D03*
X344000Y1479250D02*
D03*
X346750Y1528750D02*
D03*
X274000Y1460750D02*
D03*
X479750Y1340500D02*
D03*
Y1364500D02*
D03*
X536250Y1366500D02*
D03*
X539000Y1339250D02*
D03*
X537000Y1314500D02*
D03*
X479250Y1314750D02*
D03*
X441750Y1299750D02*
D03*
X391250Y1301500D02*
D03*
X460000Y1343500D02*
D03*
X459500Y1355750D02*
D03*
X445000Y1381500D02*
D03*
X368500Y1330250D02*
D03*
X317250Y1263000D02*
D03*
X497250Y49750D02*
D03*
X453750Y98500D02*
D03*
X503500Y172500D02*
D03*
Y69500D02*
D03*
X512500Y105500D02*
D03*
X506750Y128000D02*
D03*
X435250Y122500D02*
D03*
X457500Y122000D02*
D03*
X392250Y60500D02*
D03*
X395625Y179875D02*
D03*
X309625Y93125D02*
D03*
X332500Y95750D02*
D03*
X335500Y112750D02*
D03*
X304750Y143250D02*
D03*
X292500Y123500D02*
D03*
X266750Y123000D02*
D03*
X278750Y132500D02*
D03*
X251875Y131875D02*
D03*
X147750Y113250D02*
D03*
X85500Y195250D02*
D03*
X431250Y222250D02*
D03*
X418750Y213250D02*
D03*
X402500Y189000D02*
D03*
X150750Y347500D02*
D03*
X507000Y250000D02*
D03*
X512500Y263750D02*
D03*
X548500Y144500D02*
D03*
X667250Y264750D02*
D03*
X540500Y319000D02*
D03*
X444000Y381250D02*
D03*
X402750Y361500D02*
D03*
X412250Y364750D02*
D03*
X421750Y389250D02*
D03*
X457500Y316000D02*
D03*
X506000Y298000D02*
D03*
X456500Y296500D02*
D03*
X400500Y232000D02*
D03*
X311500Y279250D02*
D03*
X312000Y269750D02*
D03*
X338500Y272000D02*
D03*
X312750Y319250D02*
D03*
X296000Y305000D02*
D03*
X283250Y310500D02*
D03*
X268250Y305500D02*
D03*
X257250Y309500D02*
D03*
X513000Y186500D02*
D03*
X513375Y205625D02*
D03*
X637500Y203750D02*
D03*
X561000Y192500D02*
D03*
X637500Y244268D02*
D03*
X348500Y295750D02*
D03*
X427250Y840750D02*
D03*
X153268Y777250D02*
D03*
X431750Y630750D02*
D03*
X465000Y628250D02*
D03*
X452000Y825500D02*
D03*
X488750Y1269000D02*
D03*
X461250Y1274750D02*
D03*
X181500Y1247500D02*
D03*
X493500Y1097750D02*
D03*
X466661Y1099339D02*
D03*
X305500Y1026750D02*
D03*
X292250Y1031250D02*
D03*
X335500Y1024500D02*
D03*
X319250Y1029500D02*
D03*
X447500Y1089000D02*
D03*
X447750Y960000D02*
D03*
X500750Y1017500D02*
D03*
X484750Y1028000D02*
D03*
X555500Y945500D02*
D03*
X554750Y967750D02*
D03*
X379250Y999750D02*
D03*
X351250Y1000500D02*
D03*
X351000Y1013500D02*
D03*
X352500Y1052000D02*
D03*
X375500Y1049000D02*
D03*
X558250Y999000D02*
D03*
X556250Y1020000D02*
D03*
X552500Y1063250D02*
D03*
X551750Y1089250D02*
D03*
X553500Y1131000D02*
D03*
X558000Y1150500D02*
D03*
X444000Y1244000D02*
D03*
X445750Y1122750D02*
D03*
X502250Y1194000D02*
D03*
X483500Y1183000D02*
D03*
X566250Y1177000D02*
D03*
X555000Y1185000D02*
D03*
X549750Y1247500D02*
D03*
X543750Y1275250D02*
D03*
X364750Y1208000D02*
D03*
X382000Y1188500D02*
D03*
X345000Y1201250D02*
D03*
X310250Y754250D02*
D03*
X380750Y1165250D02*
D03*
X349500Y1174500D02*
D03*
X351000Y1161750D02*
D03*
X325250Y1179250D02*
D03*
X310750Y1183500D02*
D03*
X298500Y1180000D02*
D03*
X284000Y1183500D02*
D03*
X166000Y1019500D02*
D03*
X86750Y1101750D02*
D03*
X525500Y475750D02*
D03*
X527500Y493500D02*
D03*
X421250Y472750D02*
D03*
X418750Y609500D02*
D03*
X529750Y594750D02*
D03*
X524500Y613250D02*
D03*
X467250Y528500D02*
D03*
X473250Y547500D02*
D03*
X454500Y544000D02*
D03*
X529500Y534750D02*
D03*
X529750Y518250D02*
D03*
X326250Y573250D02*
D03*
X350250Y524500D02*
D03*
X322500Y523500D02*
D03*
X280750Y546000D02*
D03*
X309250Y544750D02*
D03*
X294250Y551500D02*
D03*
X267750Y551250D02*
D03*
X146250Y545500D02*
D03*
X91000Y648500D02*
D03*
X517000Y748500D02*
D03*
X519250Y795500D02*
D03*
X518000Y820000D02*
D03*
X521500Y728000D02*
D03*
X464500Y726250D02*
D03*
X462250Y744500D02*
D03*
X327500Y703750D02*
D03*
X306000Y704250D02*
D03*
X343000Y723250D02*
D03*
X344997Y742250D02*
D03*
X325750Y752750D02*
D03*
X292750Y738250D02*
D03*
X303431Y725181D02*
D03*
X257250Y737250D02*
D03*
X275500Y733500D02*
D03*
X445750Y731500D02*
D03*
X521250Y678750D02*
D03*
X521500Y694250D02*
D03*
X412250Y657750D02*
D03*
X397000Y822000D02*
D03*
M02*
