G04*
G04 #@! TF.GenerationSoftware,Altium Limited,Altium Designer,20.0.13 (296)*
G04*
G04 Layer_Physical_Order=4*
G04 Layer_Color=16711680*
%FSLAX44Y44*%
%MOMM*%
G71*
G01*
G75*
%ADD15C,0.2540*%
%ADD77C,0.3810*%
%ADD78C,1.7780*%
%ADD79R,1.7780X1.7780*%
%ADD80C,1.0000*%
%ADD81C,1.5240*%
%ADD82C,2.8000*%
%ADD83C,1.7500*%
%ADD84C,1.7000*%
%ADD85R,1.7780X1.7780*%
%ADD86C,1.4500*%
%ADD87C,0.6000*%
D15*
X723750Y587488D02*
Y738250D01*
X728750Y743250D02*
X738500D01*
X723750Y738250D02*
X728750Y743250D01*
X668738Y586000D02*
X722262D01*
X723750Y587488D01*
X1168000Y701238D02*
Y777512D01*
X1159941Y699750D02*
X1166512D01*
X1168000Y701238D01*
X1169488Y779000D02*
X1185000D01*
X1168000Y777512D02*
X1169488Y779000D01*
X1185000D02*
X1186000Y778000D01*
X1058250Y355988D02*
Y432262D01*
X1059738Y354500D02*
X1117500D01*
X1058250Y355988D02*
X1059738Y354500D01*
X870738Y433750D02*
X1056762D01*
X1058250Y432262D01*
X869250Y435238D02*
Y515500D01*
Y435238D02*
X870738Y433750D01*
X866500Y518250D02*
X869250Y515500D01*
X847250Y518250D02*
X866500D01*
X817500Y466738D02*
Y516262D01*
X818988Y517750D01*
X829500D01*
X751988Y465250D02*
X816012D01*
X817500Y466738D01*
X750500Y360500D02*
Y463762D01*
X751988Y465250D01*
X750500Y360500D02*
X751000Y360000D01*
X952750Y271500D02*
X953250Y271000D01*
X1171750Y262750D02*
X1181000Y272000D01*
X982250Y262750D02*
X1171750D01*
X953250Y281199D02*
X997329Y237120D01*
X953250Y281199D02*
Y295762D01*
X997329Y237120D02*
X1158194D01*
X985000Y272988D02*
Y283250D01*
X983512Y271500D02*
X985000Y272988D01*
X973000Y271500D02*
X983512D01*
X972750Y271750D02*
X973000Y271500D01*
X985000Y283250D02*
X986250Y284500D01*
X1071000D01*
X859776Y252750D02*
X970500D01*
X839526Y273000D02*
X859776Y252750D01*
X829500Y273000D02*
X839526D01*
X846881Y271500D02*
X952750D01*
X837250Y281131D02*
X846881Y271500D01*
X768250Y263000D02*
X817250D01*
X840000Y240250D02*
X857750D01*
X817250Y263000D02*
X840000Y240250D01*
X667250Y324750D02*
Y584512D01*
X668738Y586000D01*
X667000Y324500D02*
X667250Y324750D01*
X658250Y316250D02*
Y590974D01*
X657500Y591724D02*
X658250Y590974D01*
X682000Y318012D02*
Y569512D01*
X695750Y276500D02*
X699750Y272500D01*
X695750Y276500D02*
Y304262D01*
X682000Y318012D02*
X695750Y304262D01*
X682000Y569512D02*
X689488Y577000D01*
X826250D01*
X699750Y272500D02*
X788250D01*
X740250Y768000D02*
X751750Y756500D01*
Y595250D02*
Y756500D01*
X740250Y768000D02*
Y782250D01*
X743250Y586750D02*
X751750Y595250D01*
X703000Y281238D02*
Y331750D01*
Y281238D02*
X706858Y277380D01*
X703000Y331750D02*
X707750Y336500D01*
X732250D01*
X706858Y277380D02*
X781130D01*
X783250Y279500D01*
Y284762D01*
X783326Y284838D01*
X788271D01*
X788933Y285500D01*
X658988Y867000D02*
X731736D01*
X657500Y591724D02*
Y865512D01*
X658988Y867000D01*
X744000Y882500D02*
X744948Y881552D01*
Y880212D02*
Y881552D01*
X731736Y867000D02*
X744948Y880212D01*
X744000Y882500D02*
Y1016750D01*
X756750Y1043064D02*
Y1044000D01*
X759245Y801245D02*
Y1040569D01*
X740250Y782250D02*
X759245Y801245D01*
X756750Y1043064D02*
X759245Y1040569D01*
X1114000Y106988D02*
Y230000D01*
Y106988D02*
X1115488Y105500D01*
X1194500D01*
X1105500Y95738D02*
Y231250D01*
Y95738D02*
X1106988Y94250D01*
X1171750D01*
X1194500Y105500D02*
X1200000Y100000D01*
X1193750Y111238D02*
Y307494D01*
X1195238Y109750D02*
X1487750D01*
X1193750Y111238D02*
X1195238Y109750D01*
X1199750Y74000D02*
X1200000Y74250D01*
Y100000D01*
X1174250Y75500D02*
X1174500Y75750D01*
Y91500D01*
X1171750Y94250D02*
X1174500Y91500D01*
X1158194Y237120D02*
X1161814Y233500D01*
X1162750D01*
X1516250Y76750D02*
Y115750D01*
X1208738Y117750D02*
X1514250D01*
X1516250Y115750D01*
X1207250Y119238D02*
X1208738Y117750D01*
X1207250Y119238D02*
Y317262D01*
X1487750Y109750D02*
X1490750Y106750D01*
Y77500D02*
Y106750D01*
X1186000Y318750D02*
X1205762D01*
X1207250Y317262D01*
X1185750Y319000D02*
X1186000Y318750D01*
X1490750Y77500D02*
X1491000Y77250D01*
X964238Y325500D02*
X1177762D01*
X962750Y288000D02*
Y324012D01*
X1177762Y325500D02*
X1179250Y326988D01*
X962750Y324012D02*
X964238Y325500D01*
X1179250Y326988D02*
Y348000D01*
X839488Y565750D02*
X1048012D01*
X1049500Y567238D01*
Y626012D01*
X838000Y564262D02*
X839488Y565750D01*
X838000Y299238D02*
Y564262D01*
X1050988Y627500D02*
X1094012D01*
X1095500Y628988D01*
Y743500D01*
X1095250Y743750D02*
X1095500Y743500D01*
X1049500Y626012D02*
X1050988Y627500D01*
X792500Y297750D02*
X836512D01*
X838000Y299238D01*
X812500Y272000D02*
Y290392D01*
X743500Y293738D02*
X745358Y291880D01*
X811012D02*
X812500Y290392D01*
X745358Y291880D02*
X811012D01*
X743500Y293738D02*
Y336000D01*
X1051000Y107738D02*
Y222500D01*
X1049512Y106250D02*
X1051000Y107738D01*
X873488Y106250D02*
X1049512D01*
X872000Y84988D02*
Y104762D01*
X873488Y106250D01*
X881500Y77750D02*
Y97512D01*
X882988Y99000D01*
X1061012D01*
X1062500Y100488D01*
X805750Y83500D02*
X870512D01*
X872000Y84988D01*
X1062500Y100488D02*
Y223000D01*
X908988Y90000D02*
X1068512D01*
X1072000Y93488D02*
Y223500D01*
X1068512Y90000D02*
X1072000Y93488D01*
X907500Y78750D02*
Y88512D01*
X908988Y90000D01*
X907000Y78250D02*
X907500Y78750D01*
X1079500Y79250D02*
X1080158Y78592D01*
X1083750Y82184D01*
Y229000D01*
X932250Y79250D02*
X1079500D01*
X971488Y319000D02*
X1056750D01*
X970000Y281798D02*
Y317512D01*
X971488Y319000D01*
X963060Y280310D02*
X968512D01*
X970000Y281798D01*
X962750Y280000D02*
X963060Y280310D01*
X946250Y280000D02*
X946500Y279750D01*
X845500Y281488D02*
Y284250D01*
Y281488D02*
X846988Y280000D01*
X946250D01*
X845250Y284500D02*
X845500Y284250D01*
X954500Y340512D02*
X955988Y342000D01*
X1065000D01*
X954500Y308750D02*
Y340512D01*
X864488Y297250D02*
X951762D01*
X953250Y295762D01*
X945750Y288750D02*
X946500Y288000D01*
X855500Y288750D02*
X945750D01*
X863000Y298738D02*
Y312250D01*
Y298738D02*
X864488Y297250D01*
X952500Y306750D02*
X954500Y308750D01*
X870500Y306750D02*
X952500D01*
X1076750Y709750D02*
Y738262D01*
X1075262Y739750D02*
X1076750Y738262D01*
X994500Y739750D02*
X1075262D01*
X991000Y743250D02*
X994500Y739750D01*
X1059275Y804725D02*
X1059394Y804844D01*
X1080631D01*
X1080750Y804963D01*
X735000Y346738D02*
Y568012D01*
X736488Y569500D01*
X743000D01*
X736488Y345250D02*
X741762D01*
X735000Y346738D02*
X736488Y345250D01*
X743250Y336250D02*
Y343762D01*
X741762Y345250D02*
X743250Y343762D01*
Y336250D02*
X743500Y336000D01*
X826250Y577000D02*
X828500Y579250D01*
X784125Y248375D02*
X784750Y249000D01*
X784125Y198375D02*
Y248375D01*
X783500Y197750D02*
X784125Y198375D01*
D77*
X856250Y750000D02*
X991000D01*
X840500Y765750D02*
X856250Y750000D01*
X828500Y579250D02*
Y1034750D01*
X991000Y743250D02*
Y750000D01*
Y1001750D01*
X787768Y1287160D02*
X790000Y1284928D01*
X445141Y1287160D02*
X787768D01*
X790000Y1252232D02*
Y1284928D01*
X792232Y1250000D02*
X837768D01*
X790000Y1252232D02*
X792232Y1250000D01*
X840000Y1150000D02*
Y1247768D01*
X837768Y1250000D02*
X840000Y1247768D01*
X437306Y1294995D02*
X445141Y1287160D01*
X230005Y1294995D02*
X437306D01*
X230000Y1295000D02*
X230005Y1294995D01*
X1143518Y1306500D02*
X1146693Y1303325D01*
X535801Y1306500D02*
X1143518D01*
X534296Y1308005D02*
X535801Y1306500D01*
X215732Y1281750D02*
X487018D01*
X208750Y1274750D02*
X461250D01*
X181500Y1247500D02*
X208750Y1274750D01*
X487018Y1281750D02*
X489250Y1279518D01*
Y1275708D02*
Y1279518D01*
X489169Y1275627D02*
X489250Y1275708D01*
X489169Y1269419D02*
Y1275627D01*
X488750Y1269000D02*
X489169Y1269419D01*
X213500Y1283982D02*
X215732Y1281750D01*
X213500Y1283982D02*
Y1302768D01*
X211268Y1305000D02*
X213500Y1302768D01*
X594000Y644000D02*
X594375Y644375D01*
X633875D01*
X634250Y644750D01*
X553750Y638500D02*
Y778268D01*
X555982Y780500D01*
X626500D01*
X516482Y635750D02*
X551000D01*
X553750Y638500D01*
X514250Y617500D02*
Y633518D01*
X516482Y635750D01*
X510750Y614000D02*
X514250Y617500D01*
X431750Y616232D02*
Y630750D01*
Y616232D02*
X433982Y614000D01*
X510750D01*
X1152500Y356250D02*
Y356843D01*
X1146693Y362650D02*
X1152500Y356843D01*
X1146693Y362650D02*
Y1303325D01*
X319500Y1306750D02*
X356391D01*
X357646Y1308005D01*
X534296D01*
X991000Y598732D02*
Y743250D01*
Y598732D02*
X995232Y594500D01*
X1038750D01*
X1013750Y799500D02*
Y827250D01*
X1003000Y799830D02*
Y827250D01*
X972750Y799500D02*
Y822750D01*
X968750Y826750D02*
X972750Y822750D01*
X984000Y799250D02*
Y825250D01*
X981250Y828000D02*
X984000Y825250D01*
X970250Y1022500D02*
X991000Y1001750D01*
X850000Y1022500D02*
X970250D01*
X595482Y898250D02*
X654000D01*
X593250Y900482D02*
Y1040500D01*
Y900482D02*
X595482Y898250D01*
X454232Y1233750D02*
X583518D01*
X585750Y1231518D01*
Y1061500D02*
Y1231518D01*
X452000Y1235982D02*
X454232Y1233750D01*
X452000Y1235982D02*
Y1257500D01*
X635732Y1041518D02*
X635750Y1041500D01*
X635732Y1041518D02*
Y1048518D01*
X502732Y1050750D02*
X633500D01*
X635732Y1048518D01*
X500500Y1052982D02*
Y1059018D01*
Y1052982D02*
X502732Y1050750D01*
X484500Y1061250D02*
X498268D01*
X500500Y1059018D01*
X484250Y1061500D02*
X484500Y1061250D01*
X691000Y1170750D02*
X772018D01*
X774250Y1172982D02*
Y1248000D01*
X772018Y1170750D02*
X774250Y1172982D01*
X690750Y1171000D02*
X691000Y1170750D01*
X504155Y55695D02*
X504155Y55695D01*
X503500Y69500D02*
X503919Y69081D01*
Y67532D02*
Y69081D01*
X504155Y55695D02*
Y67297D01*
X503919Y67532D02*
X504155Y67297D01*
X504155Y43137D02*
Y55695D01*
X394232Y40250D02*
X501268D01*
X504155Y43137D01*
X392000Y42482D02*
Y60250D01*
Y42482D02*
X394232Y40250D01*
X392000Y60250D02*
X392250Y60500D01*
X412482Y65000D02*
X495018D01*
X497250Y49750D02*
Y62768D01*
X495018Y65000D02*
X497250Y62768D01*
X410250Y67232D02*
Y72018D01*
Y67232D02*
X412482Y65000D01*
X397982Y74250D02*
X408018D01*
X410250Y72018D01*
X395750Y76482D02*
Y179750D01*
Y76482D02*
X397982Y74250D01*
X395625Y179875D02*
X395750Y179750D01*
X129250Y115732D02*
Y193018D01*
X131732Y113250D02*
X147750D01*
X129250Y115732D02*
X131732Y113250D01*
X85500Y195250D02*
X127018D01*
X129250Y193018D01*
X105000Y385000D02*
X105250Y384750D01*
X105000Y832000D02*
X105750Y831250D01*
Y727500D02*
Y831250D01*
X105000Y882000D02*
X105750Y882750D01*
X133250D01*
X79750Y882250D02*
Y907268D01*
X81982Y909500D01*
X79750Y882250D02*
X80000Y882000D01*
Y1339000D02*
X81250Y1340250D01*
Y1375750D01*
X443940Y381310D02*
X444000Y381250D01*
X205190Y381310D02*
X443940D01*
X202500Y384000D02*
X205190Y381310D01*
X412250Y364750D02*
Y373268D01*
X410018Y375500D02*
X412250Y373268D01*
X384232Y375500D02*
X410018D01*
X202500Y384000D02*
Y395286D01*
X149982Y397518D02*
X200268D01*
X202500Y395286D01*
X147750Y399750D02*
X149982Y397518D01*
X147750Y399750D02*
Y449768D01*
X82232Y452000D02*
X145518D01*
X147750Y449768D01*
X80000Y435000D02*
Y449768D01*
X82232Y452000D01*
X149250Y225232D02*
Y337518D01*
X152232Y222250D02*
X431250D01*
X149250Y225232D02*
X152232Y222250D01*
X131982Y339750D02*
X147018D01*
X149250Y337518D01*
X129750Y341982D02*
Y434268D01*
Y341982D02*
X131982Y339750D01*
X107482Y332750D02*
X136268D01*
X138500Y330518D01*
Y190732D02*
Y330518D01*
X105250Y334982D02*
X107482Y332750D01*
X106500Y436500D02*
X127518D01*
X129750Y434268D01*
X105000Y435000D02*
X106500Y436500D01*
X140732Y188500D02*
X382695D01*
X138500Y190732D02*
X140732Y188500D01*
X383195Y189000D02*
X402500D01*
X382695Y188500D02*
X383195Y189000D01*
X418750Y213250D02*
X543268D01*
X548500Y208018D01*
Y144500D02*
Y208018D01*
X105250Y334982D02*
Y384750D01*
X382000Y349732D02*
Y373268D01*
X384232Y375500D01*
X150750Y347500D02*
X379768D01*
X382000Y349732D01*
X424232Y396750D02*
X538518D01*
X421750Y389250D02*
X422169Y389669D01*
Y394687D01*
X424232Y396750D01*
X540750Y319250D02*
Y394518D01*
X538518Y396750D02*
X540750Y394518D01*
X540500Y319000D02*
X540750Y319250D01*
X521000Y234232D02*
Y261518D01*
X512500Y263750D02*
X512919Y263331D01*
X519187D01*
X521000Y261518D01*
X400500Y232000D02*
X518768D01*
X521000Y234232D01*
X479750Y252232D02*
X481982Y250000D01*
X479750Y252232D02*
Y275268D01*
X481982Y250000D02*
X507000D01*
X408500Y277500D02*
X477518D01*
X479750Y275268D01*
X402750Y283250D02*
X408500Y277500D01*
X402750Y283250D02*
Y361500D01*
X140018Y909500D02*
X142250Y907268D01*
Y855232D02*
Y907268D01*
X81982Y909500D02*
X140018D01*
X144482Y853000D02*
X449000D01*
X142250Y855232D02*
X144482Y853000D01*
X452000Y825500D02*
Y850000D01*
X449000Y853000D02*
X452000Y850000D01*
X206018Y777500D02*
X269268Y840750D01*
X427250D01*
X153518Y777500D02*
X206018D01*
X153268Y777250D02*
X153518Y777500D01*
X133732Y729750D02*
X159500D01*
X133250Y807945D02*
Y882750D01*
X131500Y806195D02*
X133250Y807945D01*
X131500Y731982D02*
Y806195D01*
Y731982D02*
X133732Y729750D01*
X166482Y641000D02*
X462768D01*
X164250Y643232D02*
X166482Y641000D01*
X164250Y643232D02*
Y725000D01*
X159500Y729750D02*
X164250Y725000D01*
X155000Y634232D02*
Y715268D01*
Y634232D02*
X158482Y630750D01*
X115750Y717500D02*
X152768D01*
X155000Y715268D01*
X465000Y628250D02*
Y638768D01*
X462768Y641000D02*
X465000Y638768D01*
X158482Y630750D02*
X431750D01*
X105750Y727500D02*
X115750Y717500D01*
X137982Y1305000D02*
X211268D01*
X135750Y1307232D02*
Y1358000D01*
Y1307232D02*
X137982Y1305000D01*
X118000Y1375750D02*
X135750Y1358000D01*
X81250Y1375750D02*
X118000D01*
X121000Y1269732D02*
Y1336768D01*
X118768Y1339000D02*
X121000Y1336768D01*
X105000Y1339000D02*
X118768D01*
X123232Y1267500D02*
X159518D01*
X121000Y1269732D02*
X123232Y1267500D01*
X161750Y1113750D02*
Y1265268D01*
X159518Y1267500D02*
X161750Y1265268D01*
Y1113750D02*
X165000Y1110500D01*
X493500Y1097750D02*
Y1108268D01*
X491268Y1110500D02*
X493500Y1108268D01*
X165000Y1110500D02*
X491268D01*
X106732Y1255750D02*
X150768D01*
X104500Y1288500D02*
X105000Y1289000D01*
X104500Y1257982D02*
Y1288500D01*
Y1257982D02*
X106732Y1255750D01*
X153000Y1101570D02*
Y1253518D01*
X150768Y1255750D02*
X153000Y1253518D01*
X155232Y1099339D02*
X466661D01*
X153000Y1101570D02*
X155232Y1099339D01*
X445750Y1122750D02*
X446343D01*
X448343Y1120750D01*
X571268D01*
X573500Y1122982D01*
Y1148768D01*
X80000Y1289000D02*
Y1314000D01*
X105000Y1289000D02*
Y1314000D01*
X447500Y1045982D02*
Y1089000D01*
X449732Y1043750D02*
X522518D01*
X447500Y1045982D02*
X449732Y1043750D01*
X524750Y948232D02*
Y1041518D01*
X522518Y1043750D02*
X524750Y1041518D01*
X444000Y1214482D02*
Y1244000D01*
Y1214482D02*
X446232Y1212250D01*
X519768D01*
X522000Y1134500D02*
Y1210018D01*
X519768Y1212250D02*
X522000Y1210018D01*
X576000Y922982D02*
Y965518D01*
X554750Y967750D02*
X573768D01*
X576000Y965518D01*
X449982Y920750D02*
X573768D01*
X576000Y922982D01*
X447750D02*
Y960000D01*
Y922982D02*
X449982Y920750D01*
X527482Y945500D02*
X555500D01*
X524750Y948232D02*
X527482Y945500D01*
X558000Y1150500D02*
X558419Y1150919D01*
X566632D01*
X566713Y1151000D01*
X571268D01*
X573500Y1148768D01*
X525500Y1131000D02*
X553500D01*
X522000Y1134500D02*
X525500Y1131000D01*
X131750Y547732D02*
Y643250D01*
X133982Y545500D02*
X146250D01*
X131750Y547732D02*
X133982Y545500D01*
X91000Y648500D02*
X126500D01*
X131750Y643250D01*
X141250Y1022232D02*
Y1099518D01*
X143982Y1019500D02*
X166000D01*
X141250Y1022232D02*
X143982Y1019500D01*
X86750Y1101750D02*
X139018D01*
X141250Y1099518D01*
X546268Y493500D02*
X548500Y491268D01*
X527500Y493500D02*
X546268D01*
X548500Y461232D02*
Y491268D01*
X435000Y459000D02*
X546268D01*
X548500Y461232D01*
X421250Y472750D02*
X435000Y459000D01*
X496250Y479232D02*
Y571018D01*
X499732Y475750D02*
X525500D01*
X496250Y479232D02*
X499732Y475750D01*
X455000Y573250D02*
X494018D01*
X496250Y571018D01*
X418750Y609500D02*
X455000Y573250D01*
X429500Y822000D02*
X492250Y759250D01*
Y707750D02*
X514595Y685405D01*
X492250Y707750D02*
Y759250D01*
X397000Y822000D02*
X429500D01*
X514595Y685405D02*
Y685405D01*
Y685405D02*
X521250Y678750D01*
X521500Y694250D02*
X530268D01*
X532500Y692018D01*
Y659982D02*
Y692018D01*
X530268Y657750D02*
X532500Y659982D01*
X412250Y657750D02*
X530268D01*
D78*
X1148800Y50000D02*
D03*
X1174200Y50000D02*
D03*
X1199600Y50000D02*
D03*
X1250400Y50000D02*
D03*
X1225000Y50000D02*
D03*
X932000Y50000D02*
D03*
X906600Y50000D02*
D03*
X881200Y50000D02*
D03*
X830400Y50000D02*
D03*
X855800Y50000D02*
D03*
X1389200Y50000D02*
D03*
X1414600Y50000D02*
D03*
X1440000Y50000D02*
D03*
X1490800Y50000D02*
D03*
X1465400Y50000D02*
D03*
X1022600D02*
D03*
X1048000Y50000D02*
D03*
D79*
X1275800Y50000D02*
D03*
X805000D02*
D03*
X1516200D02*
D03*
X1073400D02*
D03*
D80*
X1084000Y460000D02*
D03*
X1132800D02*
D03*
D81*
X1040600Y1211000D02*
D03*
X1091400D02*
D03*
X1066000D02*
D03*
D82*
X37500Y1500000D02*
D03*
X107500D02*
D03*
D83*
X115000Y1159000D02*
D03*
X102500Y1079000D02*
D03*
X70000Y1119000D02*
D03*
X115000Y702000D02*
D03*
X102500Y622000D02*
D03*
X70000Y662000D02*
D03*
X115000Y255000D02*
D03*
X102500Y175000D02*
D03*
X70000Y215000D02*
D03*
D84*
X167500Y1339000D02*
D03*
Y1289000D02*
D03*
X80000Y1339000D02*
D03*
Y1314000D02*
D03*
Y1289000D02*
D03*
X105000D02*
D03*
Y1314000D02*
D03*
Y1339000D02*
D03*
X167500Y882000D02*
D03*
Y832000D02*
D03*
X80000Y882000D02*
D03*
Y857000D02*
D03*
Y832000D02*
D03*
X105000D02*
D03*
Y857000D02*
D03*
Y882000D02*
D03*
X167500Y435000D02*
D03*
Y385000D02*
D03*
X80000Y435000D02*
D03*
Y410000D02*
D03*
Y385000D02*
D03*
X105000D02*
D03*
Y410000D02*
D03*
Y435000D02*
D03*
D85*
X830000Y1512000D02*
D03*
X887000Y1514000D02*
D03*
X1450000Y1354000D02*
D03*
Y1204000D02*
D03*
Y1054000D02*
D03*
Y904000D02*
D03*
Y754000D02*
D03*
Y604000D02*
D03*
D86*
X926250Y539250D02*
D03*
Y489250D02*
D03*
X1249000Y904000D02*
D03*
X1199000D02*
D03*
X1249000Y1054000D02*
D03*
X1199000D02*
D03*
X1249000Y1204000D02*
D03*
X1199000D02*
D03*
X1186000Y778000D02*
D03*
X1206000D02*
D03*
X1249000Y1354000D02*
D03*
X1199000D02*
D03*
D87*
X443500Y296000D02*
D03*
X737000Y728000D02*
D03*
X927250Y681000D02*
D03*
X742000Y665000D02*
D03*
X992750Y1111000D02*
D03*
X992500Y1095500D02*
D03*
X720750Y777250D02*
D03*
X1082000Y685500D02*
D03*
X1232000Y755250D02*
D03*
X1256250Y713250D02*
D03*
X1217500Y712250D02*
D03*
X1182000Y695000D02*
D03*
X1172250Y653000D02*
D03*
X1048500Y659250D02*
D03*
X1159750Y719500D02*
D03*
X1159941Y699750D02*
D03*
X1180838Y746162D02*
D03*
X1136750Y534500D02*
D03*
X1181250Y479500D02*
D03*
X1180500Y514000D02*
D03*
X1079250Y534000D02*
D03*
X1054000Y495000D02*
D03*
X1071500Y518250D02*
D03*
X1137250Y354750D02*
D03*
X1064500Y307000D02*
D03*
X1113500Y401750D02*
D03*
X1034750Y254250D02*
D03*
X1036250Y306750D02*
D03*
X951500Y1080500D02*
D03*
X899875Y426875D02*
D03*
X744500Y449500D02*
D03*
X944000Y644250D02*
D03*
X910625Y635625D02*
D03*
X876000Y644000D02*
D03*
X817750Y653000D02*
D03*
X851500Y700250D02*
D03*
X705000Y643500D02*
D03*
X680500Y624750D02*
D03*
X703750Y788750D02*
D03*
X768500Y934000D02*
D03*
X678250Y796000D02*
D03*
X706500Y913750D02*
D03*
X676250Y894250D02*
D03*
X893750Y729250D02*
D03*
X894000Y1077750D02*
D03*
X876750Y1076250D02*
D03*
X893500Y1014500D02*
D03*
X859750Y1013000D02*
D03*
X924250Y761500D02*
D03*
X860500Y770750D02*
D03*
X842750Y743500D02*
D03*
X840500Y765750D02*
D03*
X828750Y764500D02*
D03*
X855000Y735000D02*
D03*
X840000Y1150000D02*
D03*
X230000Y1295000D02*
D03*
X505000Y315000D02*
D03*
Y360000D02*
D03*
X505000Y385000D02*
D03*
X490000Y190000D02*
D03*
X460000Y1385000D02*
D03*
X285000Y1375000D02*
D03*
X240000Y1390000D02*
D03*
X357750Y539000D02*
D03*
X535000Y1015000D02*
D03*
X820000Y1350000D02*
D03*
X338366Y123016D02*
D03*
X360083Y550950D02*
D03*
X348500Y574750D02*
D03*
X390000Y1495000D02*
D03*
X410000D02*
D03*
X400000D02*
D03*
X635000Y1350000D02*
D03*
X480000Y1470000D02*
D03*
X440000D02*
D03*
X395000Y1525000D02*
D03*
X830250Y1473750D02*
D03*
X694750Y1226250D02*
D03*
X847250Y518250D02*
D03*
X829500Y517750D02*
D03*
X751000Y360000D02*
D03*
X982250Y262750D02*
D03*
X973000Y271500D02*
D03*
X1071000Y284500D02*
D03*
X1181000Y272000D02*
D03*
X970500Y252750D02*
D03*
X953000Y271250D02*
D03*
X857750Y240250D02*
D03*
X634250Y644750D02*
D03*
X594000Y644000D02*
D03*
X626500Y780500D02*
D03*
X667000Y324500D02*
D03*
X738500Y743250D02*
D03*
X744000Y1016750D02*
D03*
X658250Y316250D02*
D03*
X1114000Y230000D02*
D03*
X1105500Y231250D02*
D03*
X1199750Y74000D02*
D03*
X1174250Y75500D02*
D03*
X1162250Y196250D02*
D03*
X1093750Y209500D02*
D03*
X1093250Y194750D02*
D03*
X1234500Y295000D02*
D03*
X1233500Y313750D02*
D03*
X1516250Y76750D02*
D03*
X1491000Y77250D02*
D03*
X1193750Y307494D02*
D03*
X1185750Y319000D02*
D03*
X319500Y1306750D02*
D03*
X1152500Y356250D02*
D03*
X1095500Y743500D02*
D03*
X792500Y297750D02*
D03*
X831750Y95500D02*
D03*
X856250Y75750D02*
D03*
X900000Y118000D02*
D03*
X805750Y83500D02*
D03*
X1051000Y222500D02*
D03*
X1072000Y223500D02*
D03*
X1062500Y223000D02*
D03*
X1083750Y229000D02*
D03*
X932250Y79250D02*
D03*
X907000Y78250D02*
D03*
X881500Y77750D02*
D03*
X962750Y280000D02*
D03*
X946500Y279750D02*
D03*
X1056750Y319000D02*
D03*
X962750Y288000D02*
D03*
X1179250Y348000D02*
D03*
X946500Y288000D02*
D03*
X1162750Y233500D02*
D03*
X863000Y312250D02*
D03*
X848250Y314500D02*
D03*
X1071875Y347875D02*
D03*
X1065000Y342000D02*
D03*
X768250Y263000D02*
D03*
X870500Y306750D02*
D03*
X1076750Y709750D02*
D03*
X1080750Y804963D02*
D03*
X1059275Y804725D02*
D03*
X756750Y1044000D02*
D03*
X740250Y782250D02*
D03*
X743250Y586750D02*
D03*
X743000Y569500D02*
D03*
X936500Y333500D02*
D03*
X935500Y353000D02*
D03*
X936750Y372250D02*
D03*
X961750Y407500D02*
D03*
X940000Y411750D02*
D03*
X888500Y225500D02*
D03*
X1349250Y932000D02*
D03*
X1324250Y932750D02*
D03*
X1349000Y1080750D02*
D03*
X1325000Y1082000D02*
D03*
X1349000Y1237250D02*
D03*
X1323750Y1239250D02*
D03*
X1349125Y1391625D02*
D03*
X1324000Y1390750D02*
D03*
X1013750Y827250D02*
D03*
X1003000D02*
D03*
X981250Y828000D02*
D03*
X968750Y826750D02*
D03*
X1013750Y799500D02*
D03*
X1003000Y799830D02*
D03*
X984000Y799250D02*
D03*
X972750Y799500D02*
D03*
X926500Y583750D02*
D03*
X850750Y419750D02*
D03*
X849350Y408000D02*
D03*
X875000Y353500D02*
D03*
X880250Y378750D02*
D03*
X855500Y288750D02*
D03*
X845250Y284500D02*
D03*
X837250Y281131D02*
D03*
X829500Y273000D02*
D03*
X812500Y272000D02*
D03*
X803500Y276750D02*
D03*
X788250Y272500D02*
D03*
X788933Y285500D02*
D03*
X816750Y254000D02*
D03*
X831500Y196750D02*
D03*
X783500Y197750D02*
D03*
X784750Y249000D02*
D03*
X869000Y259250D02*
D03*
X741000Y239000D02*
D03*
X751500Y309250D02*
D03*
X743500Y336000D02*
D03*
X732250Y336500D02*
D03*
X1117500Y354500D02*
D03*
X743250Y351250D02*
D03*
X691500Y372000D02*
D03*
X711000Y430750D02*
D03*
X745750Y476500D02*
D03*
X854000Y470000D02*
D03*
X829000Y812000D02*
D03*
X828500Y1034750D02*
D03*
X850000Y1022500D02*
D03*
X1038750Y594500D02*
D03*
X840750Y1010000D02*
D03*
X841500Y990250D02*
D03*
X857375Y1042875D02*
D03*
X925750Y1042000D02*
D03*
X927750Y921000D02*
D03*
X897000Y907000D02*
D03*
X866000Y921250D02*
D03*
X814750Y928500D02*
D03*
X753375Y1003375D02*
D03*
X593250Y1040500D02*
D03*
X585750Y1061500D02*
D03*
X654000Y898250D02*
D03*
X452000Y1257500D02*
D03*
X710750Y1052500D02*
D03*
X694000Y1054000D02*
D03*
X726500Y1037750D02*
D03*
X635750Y1041500D02*
D03*
X484250Y1061500D02*
D03*
X1118000Y1140500D02*
D03*
X1092375Y1262125D02*
D03*
X991000Y1189750D02*
D03*
X935250Y1205000D02*
D03*
X912750Y1224750D02*
D03*
X879000Y1252500D02*
D03*
X774250Y1248000D02*
D03*
X690750Y1171000D02*
D03*
X632000Y1219000D02*
D03*
X625000Y1233000D02*
D03*
X637500Y1275250D02*
D03*
X637250Y1252500D02*
D03*
X719250Y1226500D02*
D03*
X719500Y1269750D02*
D03*
X50250Y1434500D02*
D03*
X344000Y1479250D02*
D03*
X346750Y1528750D02*
D03*
X274000Y1460750D02*
D03*
X479750Y1340500D02*
D03*
Y1364500D02*
D03*
X536250Y1366500D02*
D03*
X539000Y1339250D02*
D03*
X537000Y1314500D02*
D03*
X479250Y1314750D02*
D03*
X441750Y1299750D02*
D03*
X391250Y1301500D02*
D03*
X460000Y1343500D02*
D03*
X459500Y1355750D02*
D03*
X445000Y1381500D02*
D03*
X368500Y1330250D02*
D03*
X317250Y1263000D02*
D03*
X497250Y49750D02*
D03*
X453750Y98500D02*
D03*
X503500Y172500D02*
D03*
Y69500D02*
D03*
X512500Y105500D02*
D03*
X506750Y128000D02*
D03*
X435250Y122500D02*
D03*
X457500Y122000D02*
D03*
X392250Y60500D02*
D03*
X395625Y179875D02*
D03*
X309625Y93125D02*
D03*
X332500Y95750D02*
D03*
X335500Y112750D02*
D03*
X304750Y143250D02*
D03*
X292500Y123500D02*
D03*
X266750Y123000D02*
D03*
X278750Y132500D02*
D03*
X251875Y131875D02*
D03*
X147750Y113250D02*
D03*
X85500Y195250D02*
D03*
X431250Y222250D02*
D03*
X418750Y213250D02*
D03*
X402500Y189000D02*
D03*
X150750Y347500D02*
D03*
X507000Y250000D02*
D03*
X512500Y263750D02*
D03*
X548500Y144500D02*
D03*
X667250Y264750D02*
D03*
X540500Y319000D02*
D03*
X444000Y381250D02*
D03*
X402750Y361500D02*
D03*
X412250Y364750D02*
D03*
X421750Y389250D02*
D03*
X457500Y316000D02*
D03*
X506000Y298000D02*
D03*
X456500Y296500D02*
D03*
X400500Y232000D02*
D03*
X311500Y279250D02*
D03*
X312000Y269750D02*
D03*
X338500Y272000D02*
D03*
X312750Y319250D02*
D03*
X296000Y305000D02*
D03*
X283250Y310500D02*
D03*
X268250Y305500D02*
D03*
X257250Y309500D02*
D03*
X513000Y186500D02*
D03*
X513375Y205625D02*
D03*
X637500Y203750D02*
D03*
X561000Y192500D02*
D03*
X637500Y244268D02*
D03*
X348500Y295750D02*
D03*
X427250Y840750D02*
D03*
X153268Y777250D02*
D03*
X431750Y630750D02*
D03*
X465000Y628250D02*
D03*
X452000Y825500D02*
D03*
X488750Y1269000D02*
D03*
X461250Y1274750D02*
D03*
X181500Y1247500D02*
D03*
X493500Y1097750D02*
D03*
X466661Y1099339D02*
D03*
X305500Y1026750D02*
D03*
X292250Y1031250D02*
D03*
X335500Y1024500D02*
D03*
X319250Y1029500D02*
D03*
X447500Y1089000D02*
D03*
X447750Y960000D02*
D03*
X500750Y1017500D02*
D03*
X484750Y1028000D02*
D03*
X555500Y945500D02*
D03*
X554750Y967750D02*
D03*
X379250Y999750D02*
D03*
X351250Y1000500D02*
D03*
X351000Y1013500D02*
D03*
X352500Y1052000D02*
D03*
X375500Y1049000D02*
D03*
X558250Y999000D02*
D03*
X556250Y1020000D02*
D03*
X552500Y1063250D02*
D03*
X551750Y1089250D02*
D03*
X553500Y1131000D02*
D03*
X558000Y1150500D02*
D03*
X444000Y1244000D02*
D03*
X445750Y1122750D02*
D03*
X502250Y1194000D02*
D03*
X483500Y1183000D02*
D03*
X566250Y1177000D02*
D03*
X555000Y1185000D02*
D03*
X549750Y1247500D02*
D03*
X543750Y1275250D02*
D03*
X364750Y1208000D02*
D03*
X382000Y1188500D02*
D03*
X345000Y1201250D02*
D03*
X310250Y754250D02*
D03*
X380750Y1165250D02*
D03*
X349500Y1174500D02*
D03*
X351000Y1161750D02*
D03*
X325250Y1179250D02*
D03*
X310750Y1183500D02*
D03*
X298500Y1180000D02*
D03*
X284000Y1183500D02*
D03*
X166000Y1019500D02*
D03*
X86750Y1101750D02*
D03*
X525500Y475750D02*
D03*
X527500Y493500D02*
D03*
X421250Y472750D02*
D03*
X418750Y609500D02*
D03*
X529750Y594750D02*
D03*
X524500Y613250D02*
D03*
X467250Y528500D02*
D03*
X473250Y547500D02*
D03*
X454500Y544000D02*
D03*
X529500Y534750D02*
D03*
X529750Y518250D02*
D03*
X326250Y573250D02*
D03*
X350250Y524500D02*
D03*
X322500Y523500D02*
D03*
X280750Y546000D02*
D03*
X309250Y544750D02*
D03*
X294250Y551500D02*
D03*
X267750Y551250D02*
D03*
X146250Y545500D02*
D03*
X91000Y648500D02*
D03*
X517000Y748500D02*
D03*
X519250Y795500D02*
D03*
X518000Y820000D02*
D03*
X521500Y728000D02*
D03*
X464500Y726250D02*
D03*
X462250Y744500D02*
D03*
X327500Y703750D02*
D03*
X306000Y704250D02*
D03*
X343000Y723250D02*
D03*
X344997Y742250D02*
D03*
X325750Y752750D02*
D03*
X292750Y738250D02*
D03*
X303431Y725181D02*
D03*
X257250Y737250D02*
D03*
X275500Y733500D02*
D03*
X445750Y731500D02*
D03*
X521250Y678750D02*
D03*
X521500Y694250D02*
D03*
X412250Y657750D02*
D03*
X397000Y822000D02*
D03*
M02*
