G04*
G04 #@! TF.GenerationSoftware,Altium Limited,Altium Designer,20.0.13 (296)*
G04*
G04 Layer_Color=8388736*
%FSLAX44Y44*%
%MOMM*%
G71*
G01*
G75*
%ADD43R,1.1176X1.4732*%
%ADD44R,1.1176X1.1176*%
%ADD45O,1.7500X0.5500*%
%ADD46R,0.4000X1.5500*%
%ADD47O,0.4000X1.5500*%
%ADD48O,1.5500X0.4000*%
%ADD49O,0.4000X1.7000*%
%ADD50O,1.7000X0.4000*%
%ADD51R,1.5032X1.7032*%
%ADD52R,1.2800X0.7800*%
%ADD53R,1.7032X1.5032*%
%ADD54R,1.2032X1.3032*%
%ADD55R,2.0032X1.8032*%
%ADD56R,1.3032X1.2032*%
%ADD57R,1.8032X2.0032*%
%ADD58R,1.2032X1.6032*%
%ADD59R,1.3032X0.8032*%
%ADD60R,2.2032X3.7032*%
%ADD61R,1.4732X0.9232*%
%ADD62R,1.8032X1.1032*%
%ADD63R,2.4032X3.0032*%
%ADD64R,3.0032X3.0032*%
%ADD65R,3.0032X3.0032*%
%ADD66R,0.9000X0.4000*%
%ADD67C,1.9812*%
%ADD68R,1.9812X1.9812*%
%ADD69C,1.2032*%
%ADD70C,1.7272*%
%ADD71C,3.0032*%
G04:AMPARAMS|DCode=72|XSize=0.2032mm|YSize=0.2032mm|CornerRadius=0mm|HoleSize=0mm|Usage=FLASHONLY|Rotation=90.000|XOffset=0mm|YOffset=0mm|HoleType=Round|Shape=RoundedRectangle|*
%AMROUNDEDRECTD72*
21,1,0.2032,0.2032,0,0,90.0*
21,1,0.2032,0.2032,0,0,90.0*
1,1,0.0000,0.1016,0.1016*
1,1,0.0000,0.1016,-0.1016*
1,1,0.0000,-0.1016,-0.1016*
1,1,0.0000,-0.1016,0.1016*
%
%ADD72ROUNDEDRECTD72*%
%ADD73C,1.9532*%
%ADD74C,1.9032*%
%ADD75R,1.9812X1.9812*%
%ADD76C,1.6532*%
D43*
X807000Y217500D02*
D03*
D44*
X816398Y197180D02*
D03*
X797348D02*
D03*
D45*
X770750Y1023000D02*
D03*
Y1016500D02*
D03*
Y1010000D02*
D03*
Y1003500D02*
D03*
Y997000D02*
D03*
Y990500D02*
D03*
Y984000D02*
D03*
X826750Y1023000D02*
D03*
Y1016500D02*
D03*
Y1010000D02*
D03*
Y1003500D02*
D03*
Y997000D02*
D03*
Y990500D02*
D03*
Y984000D02*
D03*
X810000Y710500D02*
D03*
Y717000D02*
D03*
Y723500D02*
D03*
Y730000D02*
D03*
Y736500D02*
D03*
Y743000D02*
D03*
Y749500D02*
D03*
X754000Y710500D02*
D03*
Y717000D02*
D03*
Y723500D02*
D03*
Y730000D02*
D03*
Y736500D02*
D03*
Y743000D02*
D03*
Y749500D02*
D03*
D46*
X1152500Y339000D02*
D03*
D47*
X1147500D02*
D03*
X1142500D02*
D03*
X1137500D02*
D03*
X1132500D02*
D03*
X1127500D02*
D03*
X1122500D02*
D03*
X1117500D02*
D03*
X1112500D02*
D03*
X1107500D02*
D03*
X1102500D02*
D03*
X1097500D02*
D03*
Y255000D02*
D03*
X1102500D02*
D03*
X1107500D02*
D03*
X1112500D02*
D03*
X1117500D02*
D03*
X1122500D02*
D03*
X1127500D02*
D03*
X1132500D02*
D03*
X1137500D02*
D03*
X1142500D02*
D03*
X1147500D02*
D03*
X1152500D02*
D03*
D48*
X1083000Y324500D02*
D03*
Y319500D02*
D03*
Y314500D02*
D03*
Y309500D02*
D03*
Y304500D02*
D03*
Y299500D02*
D03*
Y294500D02*
D03*
Y289500D02*
D03*
Y284500D02*
D03*
Y279500D02*
D03*
Y274500D02*
D03*
Y269500D02*
D03*
X1167000D02*
D03*
Y274500D02*
D03*
Y279500D02*
D03*
Y284500D02*
D03*
Y289500D02*
D03*
Y294500D02*
D03*
Y299500D02*
D03*
Y304500D02*
D03*
Y309500D02*
D03*
Y314500D02*
D03*
Y319500D02*
D03*
Y324500D02*
D03*
D49*
X782500Y393250D02*
D03*
X787500D02*
D03*
X792500D02*
D03*
X797500D02*
D03*
X802500D02*
D03*
X807500D02*
D03*
X812500D02*
D03*
X817500D02*
D03*
X822500D02*
D03*
X827500D02*
D03*
X832500D02*
D03*
X837500D02*
D03*
Y312750D02*
D03*
X832500D02*
D03*
X827500D02*
D03*
X822500D02*
D03*
X817500D02*
D03*
X812500D02*
D03*
X807500D02*
D03*
X802500D02*
D03*
X797500D02*
D03*
X792500D02*
D03*
X787500D02*
D03*
X782500D02*
D03*
D50*
X850250Y380500D02*
D03*
Y375500D02*
D03*
Y370500D02*
D03*
Y365500D02*
D03*
Y360500D02*
D03*
Y355500D02*
D03*
Y350500D02*
D03*
Y345500D02*
D03*
Y340500D02*
D03*
Y335500D02*
D03*
Y330500D02*
D03*
Y325500D02*
D03*
X769750D02*
D03*
Y330500D02*
D03*
Y335500D02*
D03*
Y340500D02*
D03*
Y345500D02*
D03*
Y350500D02*
D03*
Y355500D02*
D03*
Y360500D02*
D03*
Y365500D02*
D03*
Y370500D02*
D03*
Y375500D02*
D03*
Y380500D02*
D03*
D51*
X1112500Y574000D02*
D03*
X1093500D02*
D03*
X1117500Y495000D02*
D03*
X1098500D02*
D03*
X1143500Y210250D02*
D03*
X1162500D02*
D03*
X1274500Y731000D02*
D03*
X1255500D02*
D03*
X816500Y238250D02*
D03*
X797500D02*
D03*
X900000Y412000D02*
D03*
X919000D02*
D03*
X919500Y391000D02*
D03*
X900500D02*
D03*
X919500Y334000D02*
D03*
X900500D02*
D03*
X919000Y353000D02*
D03*
X900000D02*
D03*
X962500Y391000D02*
D03*
X943500D02*
D03*
X919000Y372000D02*
D03*
X900000D02*
D03*
X726500Y349000D02*
D03*
X707500D02*
D03*
X725500Y372000D02*
D03*
X706500D02*
D03*
X1073500Y1241000D02*
D03*
X1092500D02*
D03*
X690750Y1196000D02*
D03*
X671750D02*
D03*
X426500Y1299750D02*
D03*
X407500D02*
D03*
X335500Y1546000D02*
D03*
X316500D02*
D03*
X307500Y1392000D02*
D03*
X288500D02*
D03*
X534500Y1194000D02*
D03*
X515500D02*
D03*
X513500Y1215000D02*
D03*
X532500D02*
D03*
X534500Y1237000D02*
D03*
X515500D02*
D03*
X512500Y1261000D02*
D03*
X531500D02*
D03*
X469500Y1252000D02*
D03*
X488500D02*
D03*
X431500Y1244000D02*
D03*
X412500D02*
D03*
X431500Y1119000D02*
D03*
X412500D02*
D03*
X264500Y1216000D02*
D03*
X245500D02*
D03*
X264500Y1145000D02*
D03*
X245500D02*
D03*
X537500Y1012000D02*
D03*
X518500D02*
D03*
X516500Y1032000D02*
D03*
X535500D02*
D03*
X536500Y1053000D02*
D03*
X517500D02*
D03*
X515500Y1078000D02*
D03*
X534500D02*
D03*
X468500Y1083000D02*
D03*
X487500D02*
D03*
X433500Y1089000D02*
D03*
X414500D02*
D03*
X433500Y960000D02*
D03*
X414500D02*
D03*
X277500Y1063000D02*
D03*
X258500D02*
D03*
X276500Y991000D02*
D03*
X257500D02*
D03*
X501500Y742000D02*
D03*
X482500D02*
D03*
X481500Y764000D02*
D03*
X500500D02*
D03*
X502500Y787000D02*
D03*
X483500D02*
D03*
X480500Y811000D02*
D03*
X499500D02*
D03*
X427500Y807000D02*
D03*
X446500D02*
D03*
X391500Y797000D02*
D03*
X372500D02*
D03*
X391500Y665000D02*
D03*
X372500D02*
D03*
X241500Y774000D02*
D03*
X222500D02*
D03*
X241500Y696000D02*
D03*
X222500D02*
D03*
X507500Y543000D02*
D03*
X488500D02*
D03*
X486500Y563000D02*
D03*
X505500D02*
D03*
X506500Y586000D02*
D03*
X487500D02*
D03*
X485500Y612000D02*
D03*
X504500D02*
D03*
X439500D02*
D03*
X458500D02*
D03*
X404500Y609000D02*
D03*
X385500D02*
D03*
X403500Y477000D02*
D03*
X384500D02*
D03*
X246500Y507000D02*
D03*
X227500D02*
D03*
X247500Y590000D02*
D03*
X228500D02*
D03*
X491500Y316000D02*
D03*
X472500D02*
D03*
X567500Y127000D02*
D03*
X548500D02*
D03*
X559500Y303000D02*
D03*
X540500D02*
D03*
X468500Y337000D02*
D03*
X487500D02*
D03*
X489500Y362000D02*
D03*
X470500D02*
D03*
X470500Y385000D02*
D03*
X489500D02*
D03*
X424500Y365000D02*
D03*
X443500D02*
D03*
X390500Y361000D02*
D03*
X371500D02*
D03*
X388500Y231000D02*
D03*
X369500D02*
D03*
X240500Y273000D02*
D03*
X221500D02*
D03*
X240500Y343000D02*
D03*
X221500D02*
D03*
X489750Y122000D02*
D03*
X470750D02*
D03*
X465750Y142500D02*
D03*
X484750D02*
D03*
X488000Y167250D02*
D03*
X469000D02*
D03*
X458500Y191000D02*
D03*
X477500D02*
D03*
X414500Y189000D02*
D03*
X433500D02*
D03*
X379500Y186000D02*
D03*
X360500D02*
D03*
X379500Y60000D02*
D03*
X360500D02*
D03*
X234500Y90000D02*
D03*
X215500D02*
D03*
X235500Y155000D02*
D03*
X216500D02*
D03*
X456750Y1400250D02*
D03*
X437750D02*
D03*
X255500Y1442000D02*
D03*
X236500D02*
D03*
X818500Y128000D02*
D03*
X799500D02*
D03*
X726000Y431000D02*
D03*
X745000D02*
D03*
X657500Y394000D02*
D03*
X676500D02*
D03*
X708500D02*
D03*
X727500D02*
D03*
D52*
X1119000Y525000D02*
D03*
Y534500D02*
D03*
Y544000D02*
D03*
X1093000Y525000D02*
D03*
Y534500D02*
D03*
Y544000D02*
D03*
D53*
X1165000Y532500D02*
D03*
Y513500D02*
D03*
X1167000Y460500D02*
D03*
Y479500D02*
D03*
X1054000Y459500D02*
D03*
Y478500D02*
D03*
X1109500Y194750D02*
D03*
Y213750D02*
D03*
X1276000Y752500D02*
D03*
Y771500D02*
D03*
X1250000Y774500D02*
D03*
Y755500D02*
D03*
X1182000Y731500D02*
D03*
Y712500D02*
D03*
X908000Y742500D02*
D03*
Y761500D02*
D03*
X944000Y681500D02*
D03*
Y662500D02*
D03*
X876000Y682500D02*
D03*
Y663500D02*
D03*
X680000Y641500D02*
D03*
Y660500D02*
D03*
X654000Y662500D02*
D03*
Y643500D02*
D03*
X908500Y1022750D02*
D03*
Y1041750D02*
D03*
X928000Y957500D02*
D03*
Y938500D02*
D03*
X866000Y957500D02*
D03*
Y938500D02*
D03*
X679000Y1021500D02*
D03*
Y1040500D02*
D03*
X655000Y1022500D02*
D03*
Y1041500D02*
D03*
X676000Y912500D02*
D03*
Y931500D02*
D03*
X654000Y933500D02*
D03*
Y914500D02*
D03*
X1093000Y1159500D02*
D03*
Y1140500D02*
D03*
X1067000Y1179500D02*
D03*
Y1160500D02*
D03*
X1010000Y1209500D02*
D03*
Y1190500D02*
D03*
X913000Y1168500D02*
D03*
Y1187500D02*
D03*
X888000Y1168500D02*
D03*
Y1187500D02*
D03*
X862000Y1168500D02*
D03*
Y1187500D02*
D03*
X523000Y1320500D02*
D03*
Y1339500D02*
D03*
X493000Y1340500D02*
D03*
Y1321500D02*
D03*
X330000Y1498500D02*
D03*
Y1479500D02*
D03*
X236000Y1549500D02*
D03*
Y1530500D02*
D03*
Y1497500D02*
D03*
Y1478500D02*
D03*
X346000Y1421500D02*
D03*
Y1402500D02*
D03*
X299000Y1442500D02*
D03*
Y1423500D02*
D03*
X256000Y1409500D02*
D03*
Y1390500D02*
D03*
X256000Y1289500D02*
D03*
Y1308500D02*
D03*
X535000Y1112500D02*
D03*
Y1131500D02*
D03*
X515000Y1111500D02*
D03*
Y1130500D02*
D03*
X535000Y1173500D02*
D03*
Y1154500D02*
D03*
X515000Y1173500D02*
D03*
Y1154500D02*
D03*
X364250Y1194000D02*
D03*
Y1175000D02*
D03*
X319000Y1167500D02*
D03*
Y1148500D02*
D03*
X318000Y1216500D02*
D03*
Y1197500D02*
D03*
X293000Y1216500D02*
D03*
Y1197500D02*
D03*
Y1167500D02*
D03*
Y1148500D02*
D03*
X264000Y1192500D02*
D03*
Y1173500D02*
D03*
X215000Y1216500D02*
D03*
Y1197500D02*
D03*
Y1143500D02*
D03*
Y1162500D02*
D03*
X185000Y1191500D02*
D03*
Y1172500D02*
D03*
X537000Y926500D02*
D03*
Y945500D02*
D03*
X517000Y926500D02*
D03*
Y945500D02*
D03*
X537000Y991500D02*
D03*
Y972500D02*
D03*
X517000Y991500D02*
D03*
Y972500D02*
D03*
X366000Y1035000D02*
D03*
Y1016000D02*
D03*
X327000Y1062500D02*
D03*
Y1043500D02*
D03*
X304000Y1062500D02*
D03*
Y1043500D02*
D03*
X328000Y1013500D02*
D03*
Y994500D02*
D03*
X304000Y1013500D02*
D03*
Y994500D02*
D03*
X276000Y1037500D02*
D03*
Y1018500D02*
D03*
X226000Y1061500D02*
D03*
Y1042500D02*
D03*
Y990500D02*
D03*
Y1009500D02*
D03*
X190000Y1038500D02*
D03*
Y1019500D02*
D03*
X501000Y652500D02*
D03*
Y671500D02*
D03*
X481000Y652500D02*
D03*
Y671500D02*
D03*
X502000Y719500D02*
D03*
Y700500D02*
D03*
X482000Y719500D02*
D03*
Y700500D02*
D03*
X325750Y740500D02*
D03*
Y721500D02*
D03*
X287000Y718500D02*
D03*
Y699500D02*
D03*
X265000Y717500D02*
D03*
Y698500D02*
D03*
X287000Y774500D02*
D03*
Y755500D02*
D03*
X265000Y774500D02*
D03*
Y755500D02*
D03*
X241000Y746500D02*
D03*
Y727500D02*
D03*
X196000Y695500D02*
D03*
Y714500D02*
D03*
Y773500D02*
D03*
Y754500D02*
D03*
X164000Y741500D02*
D03*
Y722500D02*
D03*
X485000Y458500D02*
D03*
Y477500D02*
D03*
X507000Y458500D02*
D03*
Y477500D02*
D03*
X508000Y522500D02*
D03*
Y503500D02*
D03*
X485000Y523500D02*
D03*
Y504500D02*
D03*
X339500Y558000D02*
D03*
Y539000D02*
D03*
X299000Y529500D02*
D03*
Y510500D02*
D03*
X275000Y529500D02*
D03*
Y510500D02*
D03*
X298000Y586500D02*
D03*
Y567500D02*
D03*
X274000Y587500D02*
D03*
Y568500D02*
D03*
X247000Y561500D02*
D03*
Y542500D02*
D03*
X202000Y590500D02*
D03*
Y571500D02*
D03*
Y506500D02*
D03*
Y525500D02*
D03*
X168000Y564500D02*
D03*
Y545500D02*
D03*
X652000Y245500D02*
D03*
Y264500D02*
D03*
X529750Y186500D02*
D03*
Y205500D02*
D03*
X469000Y230500D02*
D03*
Y249500D02*
D03*
X492000Y230500D02*
D03*
Y249500D02*
D03*
X470000Y296500D02*
D03*
Y277500D02*
D03*
X492000Y295500D02*
D03*
Y276500D02*
D03*
X326500Y305250D02*
D03*
Y286250D02*
D03*
X288000Y342500D02*
D03*
Y323500D02*
D03*
X264000Y342500D02*
D03*
Y323500D02*
D03*
X288000Y294500D02*
D03*
Y275500D02*
D03*
X264000Y294500D02*
D03*
Y275500D02*
D03*
X241000Y320500D02*
D03*
Y301500D02*
D03*
X193000Y272500D02*
D03*
Y291500D02*
D03*
Y343500D02*
D03*
Y324500D02*
D03*
X159000Y322500D02*
D03*
Y303500D02*
D03*
X456000Y34000D02*
D03*
Y53000D02*
D03*
X479000Y34000D02*
D03*
Y53000D02*
D03*
X466500Y99000D02*
D03*
Y80000D02*
D03*
X489500Y99000D02*
D03*
Y80000D02*
D03*
X321500Y131750D02*
D03*
Y112750D02*
D03*
X282500Y111000D02*
D03*
Y92000D02*
D03*
X283000Y165000D02*
D03*
Y146000D02*
D03*
X260000Y111000D02*
D03*
Y92000D02*
D03*
X259500Y164500D02*
D03*
Y145500D02*
D03*
X234000Y133500D02*
D03*
Y114500D02*
D03*
X188000Y159500D02*
D03*
Y140500D02*
D03*
Y89500D02*
D03*
Y108500D02*
D03*
X160000Y132500D02*
D03*
Y113500D02*
D03*
X1054000Y518500D02*
D03*
Y537500D02*
D03*
X1036250Y291000D02*
D03*
Y272000D02*
D03*
X1217250Y313750D02*
D03*
Y294750D02*
D03*
X256000Y1351500D02*
D03*
Y1332500D02*
D03*
X851000Y125500D02*
D03*
Y106500D02*
D03*
X879000Y109500D02*
D03*
Y128500D02*
D03*
X1123000Y386500D02*
D03*
Y367500D02*
D03*
X862000Y1233500D02*
D03*
Y1214500D02*
D03*
X494000Y1383500D02*
D03*
Y1364500D02*
D03*
X521000Y1366500D02*
D03*
Y1385500D02*
D03*
X678000Y777500D02*
D03*
Y758500D02*
D03*
X650000Y778500D02*
D03*
Y759500D02*
D03*
X1299000Y913500D02*
D03*
Y894500D02*
D03*
X1349000Y913500D02*
D03*
Y894500D02*
D03*
X1324000Y913500D02*
D03*
Y894500D02*
D03*
X1299000Y1063500D02*
D03*
Y1044500D02*
D03*
X1349000Y1063500D02*
D03*
Y1044500D02*
D03*
X1324000Y1063500D02*
D03*
Y1044500D02*
D03*
X1299000Y1213500D02*
D03*
Y1194500D02*
D03*
X1349000Y1213500D02*
D03*
Y1194500D02*
D03*
X1324000Y1213500D02*
D03*
Y1194500D02*
D03*
X1299000Y1363500D02*
D03*
Y1344500D02*
D03*
X1349000Y1363500D02*
D03*
Y1344500D02*
D03*
X1324000Y1363500D02*
D03*
Y1344500D02*
D03*
D54*
X1205000Y713500D02*
D03*
Y730500D02*
D03*
X1064000Y685500D02*
D03*
Y702500D02*
D03*
X694000Y1255500D02*
D03*
Y1238500D02*
D03*
D55*
X1153000Y653000D02*
D03*
Y681000D02*
D03*
X877000Y771000D02*
D03*
Y743000D02*
D03*
X911000Y653000D02*
D03*
Y681000D02*
D03*
X843000Y653000D02*
D03*
Y681000D02*
D03*
X876750Y1042750D02*
D03*
Y1014750D02*
D03*
X897000Y928000D02*
D03*
Y956000D02*
D03*
X838000Y928000D02*
D03*
Y956000D02*
D03*
X660000Y1233000D02*
D03*
Y1261000D02*
D03*
X834500Y442000D02*
D03*
Y470000D02*
D03*
X764250Y448500D02*
D03*
Y476500D02*
D03*
X1035000Y708000D02*
D03*
Y680000D02*
D03*
D56*
X771500Y239000D02*
D03*
X754500D02*
D03*
X838500Y259500D02*
D03*
X855500D02*
D03*
X734500Y1282000D02*
D03*
X751500D02*
D03*
D57*
X841000Y225500D02*
D03*
X869000D02*
D03*
X647000Y340000D02*
D03*
X675000D02*
D03*
X651000Y735000D02*
D03*
X679000D02*
D03*
X651000Y687000D02*
D03*
X679000D02*
D03*
X653000Y956000D02*
D03*
X681000D02*
D03*
X654000Y997000D02*
D03*
X682000D02*
D03*
D58*
X723500Y665000D02*
D03*
X704500D02*
D03*
X714000Y687000D02*
D03*
X725500Y934000D02*
D03*
X706500D02*
D03*
X716000Y956000D02*
D03*
X374500Y1221000D02*
D03*
X355500D02*
D03*
X365000Y1243000D02*
D03*
X353750Y1143000D02*
D03*
X372750D02*
D03*
X363250Y1121000D02*
D03*
X378500Y1070000D02*
D03*
X359500D02*
D03*
X369000Y1092000D02*
D03*
X354500Y981000D02*
D03*
X373500D02*
D03*
X364000Y959000D02*
D03*
X313750Y685000D02*
D03*
X332750D02*
D03*
X323250Y663000D02*
D03*
X328500Y506000D02*
D03*
X347500D02*
D03*
X338000Y484000D02*
D03*
X348500Y593000D02*
D03*
X329500D02*
D03*
X339000Y615000D02*
D03*
X317500Y252000D02*
D03*
X336500D02*
D03*
X327000Y230000D02*
D03*
X338500Y337000D02*
D03*
X319500D02*
D03*
X329000Y359000D02*
D03*
X310000Y76000D02*
D03*
X329000D02*
D03*
X319500Y54000D02*
D03*
X330000Y164000D02*
D03*
X311000D02*
D03*
X320500Y186000D02*
D03*
X324000Y795000D02*
D03*
X314500Y773000D02*
D03*
X333500D02*
D03*
X715000Y995000D02*
D03*
X724500Y1017000D02*
D03*
X705500D02*
D03*
X713000Y732000D02*
D03*
X722500Y754000D02*
D03*
X703500D02*
D03*
D59*
X761000Y1257500D02*
D03*
Y1248000D02*
D03*
Y1238500D02*
D03*
X733000D02*
D03*
Y1248000D02*
D03*
Y1257500D02*
D03*
D60*
X728000Y1166000D02*
D03*
X818000D02*
D03*
D61*
X384000Y1368400D02*
D03*
Y1355700D02*
D03*
Y1343000D02*
D03*
Y1330300D02*
D03*
X445000Y1368400D02*
D03*
Y1355700D02*
D03*
Y1343000D02*
D03*
Y1330300D02*
D03*
X471000Y1144900D02*
D03*
Y1157600D02*
D03*
Y1170300D02*
D03*
Y1183000D02*
D03*
Y1195700D02*
D03*
Y1208400D02*
D03*
Y1221100D02*
D03*
X410000Y1144900D02*
D03*
Y1157600D02*
D03*
Y1170300D02*
D03*
Y1183000D02*
D03*
Y1195700D02*
D03*
Y1208400D02*
D03*
Y1221100D02*
D03*
X471000Y985300D02*
D03*
Y998000D02*
D03*
Y1010700D02*
D03*
Y1023400D02*
D03*
Y1036100D02*
D03*
Y1048800D02*
D03*
Y1061500D02*
D03*
X410000Y985300D02*
D03*
Y998000D02*
D03*
Y1010700D02*
D03*
Y1023400D02*
D03*
Y1036100D02*
D03*
Y1048800D02*
D03*
Y1061500D02*
D03*
X429000Y692800D02*
D03*
Y705500D02*
D03*
Y718200D02*
D03*
Y730900D02*
D03*
Y743600D02*
D03*
Y756300D02*
D03*
Y769000D02*
D03*
X368000Y692800D02*
D03*
Y705500D02*
D03*
Y718200D02*
D03*
Y730900D02*
D03*
Y743600D02*
D03*
Y756300D02*
D03*
Y769000D02*
D03*
X441000Y505800D02*
D03*
Y518500D02*
D03*
Y531200D02*
D03*
Y543900D02*
D03*
Y556600D02*
D03*
Y569300D02*
D03*
Y582000D02*
D03*
X380000Y505800D02*
D03*
Y518500D02*
D03*
Y531200D02*
D03*
Y543900D02*
D03*
Y556600D02*
D03*
Y569300D02*
D03*
Y582000D02*
D03*
X564000Y241400D02*
D03*
Y228700D02*
D03*
Y216000D02*
D03*
Y203300D02*
D03*
X625000Y241400D02*
D03*
Y228700D02*
D03*
Y216000D02*
D03*
Y203300D02*
D03*
X428000Y257600D02*
D03*
Y270300D02*
D03*
Y283000D02*
D03*
Y295700D02*
D03*
Y308400D02*
D03*
Y321100D02*
D03*
Y333800D02*
D03*
X367000Y257600D02*
D03*
Y270300D02*
D03*
Y283000D02*
D03*
Y295700D02*
D03*
Y308400D02*
D03*
Y321100D02*
D03*
Y333800D02*
D03*
X422000Y83800D02*
D03*
Y96500D02*
D03*
Y109200D02*
D03*
Y121900D02*
D03*
Y134600D02*
D03*
Y147300D02*
D03*
Y160000D02*
D03*
X361000Y83800D02*
D03*
Y96500D02*
D03*
Y109200D02*
D03*
Y121900D02*
D03*
Y134600D02*
D03*
Y147300D02*
D03*
Y160000D02*
D03*
D62*
X281000Y1515500D02*
D03*
Y1482500D02*
D03*
X294000Y1305500D02*
D03*
Y1272500D02*
D03*
D63*
X26500Y1463000D02*
D03*
X46500Y1537000D02*
D03*
D64*
X120500Y1463000D02*
D03*
D65*
X161500Y1509000D02*
D03*
D66*
X1094000Y731000D02*
D03*
Y726000D02*
D03*
Y721000D02*
D03*
Y716000D02*
D03*
Y711000D02*
D03*
X1139000Y731000D02*
D03*
Y726000D02*
D03*
Y721000D02*
D03*
Y716000D02*
D03*
Y711000D02*
D03*
D67*
X1148800Y50000D02*
D03*
X1174200Y50000D02*
D03*
X1199600Y50000D02*
D03*
X1250400Y50000D02*
D03*
X1225000Y50000D02*
D03*
X932000Y50000D02*
D03*
X906600Y50000D02*
D03*
X881200Y50000D02*
D03*
X830400Y50000D02*
D03*
X855800Y50000D02*
D03*
X1389200Y50000D02*
D03*
X1414600Y50000D02*
D03*
X1440000Y50000D02*
D03*
X1490800Y50000D02*
D03*
X1465400Y50000D02*
D03*
X1022600D02*
D03*
X1048000Y50000D02*
D03*
D68*
X1275800Y50000D02*
D03*
X805000D02*
D03*
X1516200D02*
D03*
X1073400D02*
D03*
D69*
X1084000Y460000D02*
D03*
X1132800D02*
D03*
D70*
X1040600Y1211000D02*
D03*
X1091400D02*
D03*
X1066000D02*
D03*
D71*
X37500Y1500000D02*
D03*
X107500D02*
D03*
D72*
X75000Y1192000D02*
D03*
Y1046000D02*
D03*
Y735000D02*
D03*
Y589000D02*
D03*
Y288000D02*
D03*
Y142000D02*
D03*
D73*
X115000Y1159000D02*
D03*
X102500Y1079000D02*
D03*
X70000Y1119000D02*
D03*
X115000Y702000D02*
D03*
X102500Y622000D02*
D03*
X70000Y662000D02*
D03*
X115000Y255000D02*
D03*
X102500Y175000D02*
D03*
X70000Y215000D02*
D03*
D74*
X167500Y1339000D02*
D03*
Y1289000D02*
D03*
X80000Y1339000D02*
D03*
Y1314000D02*
D03*
Y1289000D02*
D03*
X105000D02*
D03*
Y1314000D02*
D03*
Y1339000D02*
D03*
X167500Y882000D02*
D03*
Y832000D02*
D03*
X80000Y882000D02*
D03*
Y857000D02*
D03*
Y832000D02*
D03*
X105000D02*
D03*
Y857000D02*
D03*
Y882000D02*
D03*
X167500Y435000D02*
D03*
Y385000D02*
D03*
X80000Y435000D02*
D03*
Y410000D02*
D03*
Y385000D02*
D03*
X105000D02*
D03*
Y410000D02*
D03*
Y435000D02*
D03*
D75*
X830000Y1512000D02*
D03*
X887000Y1514000D02*
D03*
X1450000Y1354000D02*
D03*
Y1204000D02*
D03*
Y1054000D02*
D03*
Y904000D02*
D03*
Y754000D02*
D03*
Y604000D02*
D03*
D76*
X926250Y539250D02*
D03*
Y489250D02*
D03*
X1249000Y904000D02*
D03*
X1199000D02*
D03*
X1249000Y1054000D02*
D03*
X1199000D02*
D03*
X1249000Y1204000D02*
D03*
X1199000D02*
D03*
X1186000Y778000D02*
D03*
X1206000D02*
D03*
X1249000Y1354000D02*
D03*
X1199000D02*
D03*
M02*
