G04*
G04 #@! TF.GenerationSoftware,Altium Limited,Altium Designer,20.0.13 (296)*
G04*
G04 Layer_Physical_Order=3*
G04 Layer_Color=36540*
%FSLAX44Y44*%
%MOMM*%
G71*
G01*
G75*
%ADD10C,0.6000*%
%ADD77C,0.3810*%
%ADD81C,1.5240*%
%ADD87C,0.6000*%
%ADD100C,1.9050*%
%ADD101C,1.2700*%
%ADD102C,0.6350*%
%ADD103C,0.7620*%
%ADD104C,0.8890*%
G36*
X470000Y1325000D02*
X574101D01*
X574997Y1324101D01*
X573951Y985000D01*
X572154D01*
X572903Y982903D01*
X565000Y975000D01*
Y198414D01*
X563284Y197184D01*
X562460Y196900D01*
X561000Y197190D01*
X559205Y196833D01*
X557684Y195816D01*
X556667Y194295D01*
X556310Y192500D01*
X556667Y190705D01*
X557684Y189184D01*
X559205Y188167D01*
X561000Y187810D01*
X562460Y188100D01*
X563284Y187816D01*
X565000Y186586D01*
Y80000D01*
X455000D01*
X440000Y95000D01*
Y289751D01*
X440442Y290248D01*
X442540Y291501D01*
X443500Y291310D01*
X445295Y291667D01*
X446816Y292684D01*
X447833Y294205D01*
X448190Y296000D01*
X447833Y297795D01*
X446816Y299316D01*
X445295Y300333D01*
X443500Y300690D01*
X442540Y300499D01*
X440442Y301752D01*
X440000Y302249D01*
Y375336D01*
X441716Y376566D01*
X442540Y376850D01*
X444000Y376560D01*
X445795Y376917D01*
X447316Y377934D01*
X448333Y379455D01*
X448690Y381250D01*
X448333Y383045D01*
X447316Y384566D01*
X445795Y385583D01*
X444000Y385940D01*
X442540Y385650D01*
X441716Y385934D01*
X440000Y387164D01*
Y727254D01*
X441923Y727988D01*
X442540Y728112D01*
X443955Y727167D01*
X445750Y726810D01*
X447545Y727167D01*
X449066Y728184D01*
X450083Y729705D01*
X450440Y731500D01*
X450083Y733295D01*
X449066Y734816D01*
X447545Y735833D01*
X445750Y736190D01*
X443955Y735833D01*
X442540Y734887D01*
X441923Y735012D01*
X440000Y735746D01*
Y905000D01*
X525000Y990000D01*
Y1280000D01*
X415000D01*
X410000Y1275000D01*
X405000Y1280000D01*
Y1365000D01*
X470000D01*
Y1325000D01*
D02*
G37*
%LPC*%
G36*
X558000Y1155190D02*
X556205Y1154833D01*
X554684Y1153816D01*
X553667Y1152295D01*
X553310Y1150500D01*
X553667Y1148705D01*
X554684Y1147184D01*
X556205Y1146167D01*
X558000Y1145810D01*
X559795Y1146167D01*
X561316Y1147184D01*
X562333Y1148705D01*
X562690Y1150500D01*
X562333Y1152295D01*
X561316Y1153816D01*
X559795Y1154833D01*
X558000Y1155190D01*
D02*
G37*
G36*
X553500Y1135690D02*
X551705Y1135333D01*
X550184Y1134316D01*
X549167Y1132795D01*
X548810Y1131000D01*
X549167Y1129205D01*
X550184Y1127684D01*
X551705Y1126667D01*
X553500Y1126310D01*
X555295Y1126667D01*
X556816Y1127684D01*
X557833Y1129205D01*
X558190Y1131000D01*
X557833Y1132795D01*
X556816Y1134316D01*
X555295Y1135333D01*
X553500Y1135690D01*
D02*
G37*
G36*
X554750Y972440D02*
X552955Y972083D01*
X551434Y971066D01*
X550417Y969545D01*
X550060Y967750D01*
X550417Y965955D01*
X551434Y964434D01*
X552955Y963417D01*
X554750Y963060D01*
X556545Y963417D01*
X558066Y964434D01*
X559083Y965955D01*
X559440Y967750D01*
X559083Y969545D01*
X558066Y971066D01*
X556545Y972083D01*
X554750Y972440D01*
D02*
G37*
G36*
X555500Y950190D02*
X553705Y949833D01*
X552184Y948816D01*
X551167Y947295D01*
X550810Y945500D01*
X551167Y943705D01*
X552184Y942184D01*
X553705Y941167D01*
X555500Y940810D01*
X557295Y941167D01*
X558816Y942184D01*
X559833Y943705D01*
X560190Y945500D01*
X559833Y947295D01*
X558816Y948816D01*
X557295Y949833D01*
X555500Y950190D01*
D02*
G37*
G36*
X452000Y830190D02*
X450205Y829833D01*
X448684Y828816D01*
X447667Y827295D01*
X447310Y825500D01*
X447667Y823705D01*
X448684Y822184D01*
X450205Y821167D01*
X452000Y820810D01*
X453795Y821167D01*
X455316Y822184D01*
X456333Y823705D01*
X456690Y825500D01*
X456333Y827295D01*
X455316Y828816D01*
X453795Y829833D01*
X452000Y830190D01*
D02*
G37*
G36*
X462250Y749190D02*
X460455Y748833D01*
X458934Y747816D01*
X457917Y746295D01*
X457560Y744500D01*
X457917Y742705D01*
X458934Y741184D01*
X460455Y740167D01*
X462250Y739810D01*
X464045Y740167D01*
X465566Y741184D01*
X466583Y742705D01*
X466940Y744500D01*
X466583Y746295D01*
X465566Y747816D01*
X464045Y748833D01*
X462250Y749190D01*
D02*
G37*
G36*
X521500Y698940D02*
X519705Y698583D01*
X518184Y697566D01*
X517167Y696045D01*
X516810Y694250D01*
X517167Y692455D01*
X518184Y690934D01*
X519705Y689917D01*
X521500Y689560D01*
X523295Y689917D01*
X524816Y690934D01*
X525833Y692455D01*
X526190Y694250D01*
X525833Y696045D01*
X524816Y697566D01*
X523295Y698583D01*
X521500Y698940D01*
D02*
G37*
G36*
X521250Y683440D02*
X519455Y683083D01*
X517934Y682066D01*
X516917Y680545D01*
X516560Y678750D01*
X516917Y676955D01*
X517934Y675434D01*
X519455Y674417D01*
X521250Y674060D01*
X523045Y674417D01*
X524566Y675434D01*
X525583Y676955D01*
X525940Y678750D01*
X525583Y680545D01*
X524566Y682066D01*
X523045Y683083D01*
X521250Y683440D01*
D02*
G37*
G36*
X465000Y632940D02*
X463205Y632583D01*
X461684Y631566D01*
X460667Y630045D01*
X460310Y628250D01*
X460667Y626455D01*
X461684Y624934D01*
X463205Y623917D01*
X465000Y623560D01*
X466795Y623917D01*
X468316Y624934D01*
X469333Y626455D01*
X469690Y628250D01*
X469333Y630045D01*
X468316Y631566D01*
X466795Y632583D01*
X465000Y632940D01*
D02*
G37*
G36*
X473250Y552190D02*
X471455Y551833D01*
X469934Y550816D01*
X468917Y549295D01*
X468560Y547500D01*
X468917Y545705D01*
X469934Y544184D01*
X471455Y543167D01*
X473250Y542810D01*
X475045Y543167D01*
X476566Y544184D01*
X477583Y545705D01*
X477940Y547500D01*
X477583Y549295D01*
X476566Y550816D01*
X475045Y551833D01*
X473250Y552190D01*
D02*
G37*
G36*
X454500Y548690D02*
X452705Y548333D01*
X451184Y547316D01*
X450167Y545795D01*
X449810Y544000D01*
X450167Y542205D01*
X451184Y540684D01*
X452705Y539667D01*
X454500Y539310D01*
X456295Y539667D01*
X457816Y540684D01*
X458833Y542205D01*
X459190Y544000D01*
X458833Y545795D01*
X457816Y547316D01*
X456295Y548333D01*
X454500Y548690D01*
D02*
G37*
G36*
X527500Y498190D02*
X525705Y497833D01*
X524184Y496816D01*
X523167Y495295D01*
X522810Y493500D01*
X523167Y491705D01*
X524184Y490184D01*
X525705Y489167D01*
X527500Y488810D01*
X529295Y489167D01*
X530816Y490184D01*
X531833Y491705D01*
X532190Y493500D01*
X531833Y495295D01*
X530816Y496816D01*
X529295Y497833D01*
X527500Y498190D01*
D02*
G37*
G36*
X525500Y480440D02*
X523705Y480083D01*
X522184Y479066D01*
X521167Y477545D01*
X520810Y475750D01*
X521167Y473955D01*
X522184Y472434D01*
X523705Y471417D01*
X525500Y471060D01*
X527295Y471417D01*
X528816Y472434D01*
X529833Y473955D01*
X530190Y475750D01*
X529833Y477545D01*
X528816Y479066D01*
X527295Y480083D01*
X525500Y480440D01*
D02*
G37*
G36*
X506270Y390396D02*
Y386270D01*
X510396D01*
X510219Y387162D01*
X508994Y388994D01*
X507162Y390219D01*
X506270Y390396D01*
D02*
G37*
G36*
X503730D02*
X502838Y390219D01*
X501006Y388994D01*
X499781Y387162D01*
X499604Y386270D01*
X503730D01*
Y390396D01*
D02*
G37*
G36*
X510396Y383730D02*
X506270D01*
Y379604D01*
X507162Y379781D01*
X508994Y381006D01*
X510219Y382838D01*
X510396Y383730D01*
D02*
G37*
G36*
X503730D02*
X499604D01*
X499781Y382838D01*
X501006Y381006D01*
X502838Y379781D01*
X503730Y379604D01*
Y383730D01*
D02*
G37*
G36*
X506270Y365396D02*
Y361270D01*
X510396D01*
X510219Y362162D01*
X508994Y363994D01*
X507162Y365219D01*
X506270Y365396D01*
D02*
G37*
G36*
X503730D02*
X502838Y365219D01*
X501006Y363994D01*
X499781Y362162D01*
X499604Y361270D01*
X503730D01*
Y365396D01*
D02*
G37*
G36*
X510396Y358730D02*
X506270D01*
Y354604D01*
X507162Y354781D01*
X508994Y356006D01*
X510219Y357838D01*
X510396Y358730D01*
D02*
G37*
G36*
X503730D02*
X499604D01*
X499781Y357838D01*
X501006Y356006D01*
X502838Y354781D01*
X503730Y354604D01*
Y358730D01*
D02*
G37*
G36*
X506270Y320396D02*
Y316270D01*
X510396D01*
X510219Y317162D01*
X508994Y318994D01*
X507162Y320219D01*
X506270Y320396D01*
D02*
G37*
G36*
X503730D02*
X502838Y320219D01*
X501006Y318994D01*
X499781Y317162D01*
X499604Y316270D01*
X503730D01*
Y320396D01*
D02*
G37*
G36*
X540500Y323690D02*
X538705Y323333D01*
X537184Y322316D01*
X536167Y320795D01*
X535810Y319000D01*
X536167Y317205D01*
X537184Y315684D01*
X538705Y314667D01*
X540500Y314310D01*
X542295Y314667D01*
X543816Y315684D01*
X544833Y317205D01*
X545190Y319000D01*
X544833Y320795D01*
X543816Y322316D01*
X542295Y323333D01*
X540500Y323690D01*
D02*
G37*
G36*
X457500Y320690D02*
X455705Y320333D01*
X454184Y319316D01*
X453167Y317795D01*
X452810Y316000D01*
X453167Y314205D01*
X454184Y312684D01*
X455705Y311667D01*
X457500Y311310D01*
X459295Y311667D01*
X460816Y312684D01*
X461833Y314205D01*
X462190Y316000D01*
X461833Y317795D01*
X460816Y319316D01*
X459295Y320333D01*
X457500Y320690D01*
D02*
G37*
G36*
X510396Y313730D02*
X506270D01*
Y309604D01*
X507162Y309781D01*
X508994Y311006D01*
X510219Y312838D01*
X510396Y313730D01*
D02*
G37*
G36*
X503730D02*
X499604D01*
X499781Y312838D01*
X501006Y311006D01*
X502838Y309781D01*
X503730Y309604D01*
Y313730D01*
D02*
G37*
G36*
X512500Y268440D02*
X510705Y268083D01*
X509184Y267066D01*
X508167Y265545D01*
X507810Y263750D01*
X508167Y261955D01*
X509184Y260434D01*
X510705Y259417D01*
X512500Y259060D01*
X514295Y259417D01*
X515816Y260434D01*
X516833Y261955D01*
X517190Y263750D01*
X516833Y265545D01*
X515816Y267066D01*
X514295Y268083D01*
X512500Y268440D01*
D02*
G37*
G36*
X507000Y254690D02*
X505205Y254333D01*
X503684Y253316D01*
X502667Y251795D01*
X502310Y250000D01*
X502667Y248205D01*
X503684Y246684D01*
X505205Y245667D01*
X507000Y245310D01*
X508795Y245667D01*
X510316Y246684D01*
X511333Y248205D01*
X511690Y250000D01*
X511333Y251795D01*
X510316Y253316D01*
X508795Y254333D01*
X507000Y254690D01*
D02*
G37*
G36*
X513375Y210315D02*
X511580Y209958D01*
X510059Y208941D01*
X509042Y207420D01*
X508685Y205625D01*
X509042Y203830D01*
X510059Y202309D01*
X511580Y201292D01*
X513375Y200935D01*
X515170Y201292D01*
X516691Y202309D01*
X517708Y203830D01*
X518065Y205625D01*
X517708Y207420D01*
X516691Y208941D01*
X515170Y209958D01*
X513375Y210315D01*
D02*
G37*
G36*
X491270Y195396D02*
Y191270D01*
X495396D01*
X495219Y192162D01*
X493994Y193994D01*
X492162Y195219D01*
X491270Y195396D01*
D02*
G37*
G36*
X488730D02*
X487838Y195219D01*
X486006Y193994D01*
X484781Y192162D01*
X484604Y191270D01*
X488730D01*
Y195396D01*
D02*
G37*
G36*
X495396Y188730D02*
X491270D01*
Y184604D01*
X492162Y184781D01*
X493994Y186006D01*
X495219Y187838D01*
X495396Y188730D01*
D02*
G37*
G36*
X488730D02*
X484604D01*
X484781Y187838D01*
X486006Y186006D01*
X487838Y184781D01*
X488730Y184604D01*
Y188730D01*
D02*
G37*
G36*
X548500Y149190D02*
X546705Y148833D01*
X545184Y147816D01*
X544167Y146295D01*
X543810Y144500D01*
X544167Y142705D01*
X545184Y141184D01*
X546705Y140167D01*
X548500Y139810D01*
X550295Y140167D01*
X551816Y141184D01*
X552833Y142705D01*
X553190Y144500D01*
X552833Y146295D01*
X551816Y147816D01*
X550295Y148833D01*
X548500Y149190D01*
D02*
G37*
G36*
X457500Y126690D02*
X455705Y126333D01*
X454184Y125316D01*
X453167Y123795D01*
X452810Y122000D01*
X453167Y120205D01*
X454184Y118684D01*
X455705Y117667D01*
X457500Y117310D01*
X459295Y117667D01*
X460816Y118684D01*
X461833Y120205D01*
X462190Y122000D01*
X461833Y123795D01*
X460816Y125316D01*
X459295Y126333D01*
X457500Y126690D01*
D02*
G37*
%LPD*%
D10*
X480000Y1364750D02*
Y1470000D01*
X479750Y1364500D02*
X480000Y1364750D01*
X445000Y1381500D02*
Y1423515D01*
X440000Y1428515D02*
Y1470000D01*
Y1428515D02*
X445000Y1423515D01*
X346750Y1528750D02*
X348000Y1530000D01*
X370000D01*
X375000Y1525000D02*
X395000D01*
X370000Y1530000D02*
X375000Y1525000D01*
D77*
X930755Y724646D02*
Y819415D01*
X927250Y721141D02*
X930755Y724646D01*
X921245Y828925D02*
Y956085D01*
X933500Y968340D02*
Y1095500D01*
X927250Y681000D02*
Y721141D01*
X921245Y828925D02*
X930755Y819415D01*
X921245Y956085D02*
X933500Y968340D01*
X831625Y95625D02*
X831750Y95500D01*
X831500Y196750D02*
X831625Y196625D01*
X893750Y1077500D02*
X894000Y1077750D01*
X893500Y1014500D02*
X893750Y1014750D01*
X667000Y265000D02*
X667250Y264750D01*
X617232Y1350000D02*
X635000D01*
X615000Y1352232D02*
Y1382768D01*
Y1352232D02*
X617232Y1350000D01*
X502232Y1385000D02*
X612768D01*
X615000Y1382768D01*
X500000Y1342732D02*
Y1382768D01*
X502232Y1385000D01*
X479750Y1340500D02*
X497768D01*
X500000Y1342732D01*
X210000Y30000D02*
X212232Y27768D01*
X667768Y220000D02*
X670000Y217768D01*
X637500Y222500D02*
X640000Y220000D01*
X210000Y1000000D02*
X210500Y1000500D01*
X748982Y1473750D02*
X830250D01*
X745500Y1470268D02*
X748982Y1473750D01*
X745500Y1228732D02*
Y1470268D01*
X719000Y1226250D02*
X719250Y1226500D01*
X694750Y1226250D02*
X719000D01*
X719250Y1226500D02*
X743268D01*
X745500Y1228732D01*
D81*
X1040600Y1211000D02*
D03*
D87*
X927250Y681000D02*
D03*
X742000Y665000D02*
D03*
X992750Y1111000D02*
D03*
X992500Y1095500D02*
D03*
X1180838Y746162D02*
D03*
X1136750Y534500D02*
D03*
X1036250Y306750D02*
D03*
X951500Y1080500D02*
D03*
X899875Y426875D02*
D03*
X744500Y449500D02*
D03*
X703750Y788750D02*
D03*
X768500Y934000D02*
D03*
X893750Y729250D02*
D03*
X894000Y1077750D02*
D03*
X876750Y1076250D02*
D03*
X893500Y1014500D02*
D03*
X859750Y1013000D02*
D03*
X855000Y735000D02*
D03*
X505000Y315000D02*
D03*
Y360000D02*
D03*
X505000Y385000D02*
D03*
X490000Y190000D02*
D03*
X460000Y1385000D02*
D03*
X285000Y1375000D02*
D03*
X240000Y1390000D02*
D03*
X357750Y539000D02*
D03*
X535000Y1015000D02*
D03*
X820000Y1350000D02*
D03*
X338366Y123016D02*
D03*
X360083Y550950D02*
D03*
X348500Y574750D02*
D03*
X390000Y1495000D02*
D03*
X410000D02*
D03*
X400000D02*
D03*
X635000Y1350000D02*
D03*
X480000Y1470000D02*
D03*
X440000D02*
D03*
X395000Y1525000D02*
D03*
X830250Y1473750D02*
D03*
X694750Y1226250D02*
D03*
X1093750Y209500D02*
D03*
X1233500Y313750D02*
D03*
X831750Y95500D02*
D03*
X936750Y372250D02*
D03*
X961750Y407500D02*
D03*
X850750Y419750D02*
D03*
X803500Y276750D02*
D03*
X816750Y254000D02*
D03*
X831500Y196750D02*
D03*
X710750Y1052500D02*
D03*
X719250Y1226500D02*
D03*
X346750Y1528750D02*
D03*
X479750Y1340500D02*
D03*
Y1364500D02*
D03*
X537000Y1314500D02*
D03*
X479250Y1314750D02*
D03*
X441750Y1299750D02*
D03*
X460000Y1343500D02*
D03*
X459500Y1355750D02*
D03*
X445000Y1381500D02*
D03*
X453750Y98500D02*
D03*
X503500Y172500D02*
D03*
X512500Y105500D02*
D03*
X506750Y128000D02*
D03*
X309625Y93125D02*
D03*
X335500Y112750D02*
D03*
X292500Y123500D02*
D03*
X266750Y123000D02*
D03*
X278750Y132500D02*
D03*
X251875Y131875D02*
D03*
X667250Y264750D02*
D03*
X506000Y298000D02*
D03*
X456500Y296500D02*
D03*
X311500Y279250D02*
D03*
X312000Y269750D02*
D03*
X296000Y305000D02*
D03*
X283250Y310500D02*
D03*
X268250Y305500D02*
D03*
X257250Y309500D02*
D03*
X513000Y186500D02*
D03*
X637500Y244268D02*
D03*
X348500Y295750D02*
D03*
X305500Y1026750D02*
D03*
X292250Y1031250D02*
D03*
X335500Y1024500D02*
D03*
X319250Y1029500D02*
D03*
X351250Y1000500D02*
D03*
X351000Y1013500D02*
D03*
X375500Y1049000D02*
D03*
X558250Y999000D02*
D03*
X556250Y1020000D02*
D03*
X552500Y1063250D02*
D03*
X551750Y1089250D02*
D03*
X566250Y1177000D02*
D03*
X555000Y1185000D02*
D03*
X549750Y1247500D02*
D03*
X543750Y1275250D02*
D03*
X364750Y1208000D02*
D03*
X382000Y1188500D02*
D03*
X349500Y1174500D02*
D03*
X351000Y1161750D02*
D03*
X325250Y1179250D02*
D03*
X310750Y1183500D02*
D03*
X298500Y1180000D02*
D03*
X284000Y1183500D02*
D03*
X529750Y594750D02*
D03*
X524500Y613250D02*
D03*
X467250Y528500D02*
D03*
X529500Y534750D02*
D03*
X529750Y518250D02*
D03*
X322500Y523500D02*
D03*
X280750Y546000D02*
D03*
X309250Y544750D02*
D03*
X294250Y551500D02*
D03*
X267750Y551250D02*
D03*
X517000Y748500D02*
D03*
X519250Y795500D02*
D03*
X518000Y820000D02*
D03*
X521500Y728000D02*
D03*
X464500Y726250D02*
D03*
X306000Y704250D02*
D03*
X343000Y723250D02*
D03*
X344997Y742250D02*
D03*
X325750Y752750D02*
D03*
X292750Y738250D02*
D03*
X303431Y725181D02*
D03*
X257250Y737250D02*
D03*
X275500Y733500D02*
D03*
D100*
X210000Y1248750D02*
Y1481254D01*
X222121Y1493375D02*
X349851D01*
X387413Y1492413D02*
X390000Y1495000D01*
X210000Y1481254D02*
X222121Y1493375D01*
X349851D02*
X350813Y1492413D01*
X387413D01*
X210032Y1219968D02*
X210277Y1163705D01*
X210069Y360000D02*
X210084Y420000D01*
X210246Y1045000D02*
X210252Y1070000D01*
X210045Y270000D02*
X210069Y360000D01*
X210000Y1227439D02*
Y1248750D01*
X210017Y160000D02*
X210023Y185000D01*
X210000Y1227439D02*
X210032Y1219968D01*
X210252Y1070000D02*
X210277Y1163705D01*
X210023Y185000D02*
X210045Y270000D01*
X210234Y1000234D02*
X210246Y1045000D01*
X210184Y805000D02*
X210234Y1000234D01*
X210175Y770000D02*
X210184Y805000D01*
X210158Y704842D02*
X210175Y770000D01*
X210138Y630000D02*
X210158Y704842D01*
X210129Y595000D02*
X210138Y630000D01*
X210111Y524889D02*
X210129Y595000D01*
X210084Y420000D02*
X210111Y524889D01*
X210000Y95000D02*
X210017Y160000D01*
D101*
X210000Y1248750D02*
X378250D01*
X382000Y1245000D01*
Y1188500D02*
Y1245000D01*
X210000Y30000D02*
Y95000D01*
X667768Y27768D02*
X670000Y30000D01*
X212232Y27768D02*
X667768D01*
X640000Y220000D02*
X667768D01*
X670000Y30000D02*
Y217768D01*
X637500Y222500D02*
Y244268D01*
X820000Y1277232D02*
Y1350000D01*
X822232Y1275000D02*
X1038368D01*
X1040600Y1211000D02*
Y1272768D01*
X1038368Y1275000D02*
X1040600Y1272768D01*
X820000Y1277232D02*
X822232Y1275000D01*
X207341Y805000D02*
X362768D01*
X365000Y802768D01*
Y762253D02*
Y802768D01*
X380000Y570867D02*
Y627768D01*
X209872Y630000D02*
X377768D01*
X380000Y627768D01*
X210000Y270000D02*
X280000D01*
X400000Y1495000D02*
X410000D01*
X390000D02*
X400000D01*
X210277Y1163705D02*
X212232Y1161750D01*
X212272Y360000D02*
X357768D01*
X360000Y357768D01*
Y307250D02*
Y357768D01*
X211306Y185000D02*
X347768D01*
X350000Y182768D01*
Y134650D02*
Y182768D01*
X211875Y93125D02*
X309625D01*
X210000Y95000D02*
X211875Y93125D01*
X211500Y523500D02*
X322500D01*
X210000Y525000D02*
X211500Y523500D01*
X210000Y595000D02*
X345000D01*
X348500Y574750D02*
Y591500D01*
X345000Y595000D02*
X348500Y591500D01*
X210750Y704250D02*
X306000D01*
X210000Y705000D02*
X210750Y704250D01*
X210000Y770000D02*
X323518D01*
X325750Y752750D02*
Y767768D01*
X323518Y770000D02*
X325750Y767768D01*
X210500Y1000500D02*
X351250D01*
X210686Y1070000D02*
X370000D01*
X375500Y1049000D02*
Y1064500D01*
X370000Y1070000D02*
X375500Y1064500D01*
X212232Y1161750D02*
X351000D01*
X217439Y1220000D02*
X352750D01*
X210000Y1227439D02*
X217439Y1220000D01*
X352750D02*
X364750Y1208000D01*
D102*
X741750Y665250D02*
Y695750D01*
X768500Y722500D02*
Y934000D01*
X741750Y695750D02*
X768500Y722500D01*
X933500Y1095500D02*
X992500D01*
X780000D02*
X933500D01*
X710750Y983277D02*
Y1052500D01*
Y983277D02*
X714275Y979752D01*
Y799275D02*
Y979752D01*
X703750Y788750D02*
X714275Y799275D01*
X741750Y665250D02*
X742000Y665000D01*
X715732Y1111000D02*
X992750D01*
X710750Y1052500D02*
Y1106018D01*
X715732Y1111000D01*
X768500Y934000D02*
Y1084000D01*
X780000Y1095500D01*
X831625Y95625D02*
Y196625D01*
X831500Y196750D02*
Y251768D01*
X816750Y254000D02*
X829268D01*
X831500Y251768D01*
X805732Y254000D02*
X816750D01*
X803500Y256232D02*
Y276750D01*
Y256232D02*
X805732Y254000D01*
X460000Y1360000D02*
Y1385000D01*
X240000Y1347232D02*
Y1390000D01*
Y1347232D02*
X242232Y1345000D01*
X415000D01*
X285000Y1375000D02*
X412768D01*
X415000Y1372768D01*
Y1360000D02*
Y1372768D01*
X555000Y265000D02*
X667000D01*
X335500Y112750D02*
X343250Y105000D01*
X445000D01*
X292500Y123500D02*
X303250Y112750D01*
X335500D01*
X278750Y132500D02*
X287331Y123919D01*
X292081D01*
X292500Y123500D01*
X269669Y123419D02*
X278750Y132500D01*
X267169Y123419D02*
X269669D01*
X266750Y123000D02*
X267169Y123419D01*
X251875Y131875D02*
X260331Y123419D01*
X266331D01*
X266750Y123000D01*
X311500Y279250D02*
X317250Y285000D01*
X448889D01*
X311500Y279250D02*
Y289500D01*
X296000Y305000D02*
X311500Y289500D01*
X295407Y305000D02*
X296000D01*
X290326Y310081D02*
X295407Y305000D01*
X283669Y310081D02*
X290326D01*
X283250Y310500D02*
X283669Y310081D01*
X273843Y310500D02*
X283250D01*
X268843Y305500D02*
X273843Y310500D01*
X268250Y305500D02*
X268843D01*
X257250Y309500D02*
X257669Y309081D01*
X264076D01*
X267657Y305500D01*
X268250D01*
X357750Y539000D02*
X444000D01*
X445000Y540000D01*
X331000Y539000D02*
X357750D01*
X325250Y544750D02*
X331000Y539000D01*
X309250Y544750D02*
X325250D01*
X294250Y551500D02*
X300581Y545169D01*
X308831D01*
X309250Y544750D01*
X343000Y723250D02*
X356250Y710000D01*
X450000D01*
X280750Y546000D02*
X281169Y546419D01*
X288576D01*
X293657Y551500D01*
X294250D01*
X267750Y551250D02*
X268169Y550831D01*
X275326D01*
X280157Y546000D01*
X280750D01*
X303431Y725181D02*
X340477D01*
X342407Y723250D01*
X343000D01*
X292750Y738250D02*
X303012Y727988D01*
X280843Y738250D02*
X292750D01*
X276093Y733500D02*
X280843Y738250D01*
X275500Y733500D02*
X276093D01*
X257250Y737250D02*
X271157D01*
X274907Y733500D01*
X275500D01*
X493755Y1013500D02*
X497529Y1009725D01*
X351000Y1013500D02*
X493755D01*
X497529Y1009725D02*
X512959D01*
X518234Y1015000D01*
X535000D01*
X335500Y1024500D02*
X346081Y1013919D01*
X350581D01*
X351000Y1013500D01*
X319250Y1029500D02*
X329907D01*
X334907Y1024500D01*
X335500D01*
X305500Y1026750D02*
X315907D01*
X318657Y1029500D01*
X319250D01*
X296157Y1026750D02*
X305500D01*
X292250Y1030657D02*
X296157Y1026750D01*
X292250Y1030657D02*
Y1031250D01*
X330593Y1174500D02*
X349500D01*
X325843Y1179250D02*
X330593Y1174500D01*
X325250Y1179250D02*
X325843D01*
X310750Y1183500D02*
X320407D01*
X324657Y1179250D01*
X325250D01*
X298500Y1180000D02*
X298919Y1180419D01*
X307076D01*
X310157Y1183500D01*
X310750D01*
X284000D02*
X294407D01*
X297907Y1180000D01*
X298500D01*
X529500Y1174500D02*
X530000Y1175000D01*
X349500Y1174500D02*
X529500D01*
X344997Y742250D02*
X365000Y762253D01*
X360083Y550950D02*
X380000Y570867D01*
X280000Y270000D02*
X311750D01*
X312000Y269750D01*
X348500Y295750D02*
X360000Y307250D01*
X338366Y123016D02*
X350000Y134650D01*
D103*
X765250Y460500D02*
Y705036D01*
X769714Y709500D01*
X850536D01*
X765250Y453964D02*
Y460500D01*
X1038500Y764750D02*
Y1076036D01*
Y627964D02*
Y764750D01*
X1133500Y749214D02*
Y759750D01*
X1179426Y744750D02*
X1180838Y746162D01*
X1137964Y744750D02*
X1179426D01*
X1133500Y749214D02*
X1137964Y744750D01*
X1128500Y764750D02*
X1130747Y762503D01*
X1133500Y759750D01*
X1038500Y764750D02*
X1128500D01*
X1003250Y563500D02*
Y619036D01*
Y385000D02*
Y563500D01*
X1131786D01*
X1136250Y535000D02*
X1136750Y534500D01*
X1136250Y535000D02*
Y559036D01*
X1131786Y563500D02*
X1136250Y559036D01*
X1003250Y358250D02*
Y385000D01*
Y311964D02*
Y358250D01*
X1089286D01*
X1093750Y209500D02*
Y353786D01*
X1089286Y358250D02*
X1093750Y353786D01*
X1035500Y307500D02*
X1036250Y306750D01*
X1007714Y307500D02*
X1035500D01*
X1003250Y311964D02*
X1007714Y307500D01*
X1003250Y385000D02*
X1233536D01*
X1233500Y313750D02*
X1238000Y318250D01*
Y380536D01*
X1233536Y385000D02*
X1238000Y380536D01*
X1007714Y623500D02*
X1034036D01*
X1003250Y619036D02*
X1007714Y623500D01*
X1034036D02*
X1038500Y627964D01*
X951500Y1080500D02*
X1034036D01*
X1038500Y1076036D01*
X899875Y426875D02*
Y431411D01*
X889286Y442000D02*
X899875Y431411D01*
X768000Y457750D02*
X796786D01*
X801250Y279000D02*
X803500Y276750D01*
X801250Y279000D02*
Y453286D01*
X796786Y457750D02*
X801250Y453286D01*
X765250Y460500D02*
X768000Y457750D01*
X893750Y455750D02*
Y473000D01*
X977000Y376714D02*
Y460500D01*
X936750Y372250D02*
X972536D01*
X977000Y376714D01*
X893750Y473000D02*
X964500D01*
X977000Y460500D01*
X893750Y446464D02*
Y455750D01*
X957286D01*
X961750Y407500D02*
Y451286D01*
X957286Y455750D02*
X961750Y451286D01*
X855214Y442000D02*
X889286D01*
X850750Y419750D02*
Y437536D01*
X855214Y442000D01*
X889286D02*
X893750Y446464D01*
X744500Y449500D02*
X760786D01*
X765250Y453964D01*
X855000Y713964D02*
Y735000D01*
X850536Y709500D02*
X855000Y713964D01*
X852090Y919233D02*
X859750Y926893D01*
X852090Y737910D02*
X855000Y735000D01*
X859750Y926893D02*
Y1013000D01*
X852090Y737910D02*
Y919233D01*
X888590Y956553D02*
X893500Y961463D01*
X888590Y734410D02*
X893750Y729250D01*
X859750Y1013000D02*
X874518D01*
X876750Y1015232D01*
Y1076250D01*
D104*
X886250Y736750D02*
X888590Y734410D01*
X886250Y954213D02*
X888590Y956553D01*
X886250Y736750D02*
Y954213D01*
X893750Y473000D02*
Y729250D01*
X893500Y961463D02*
Y1014500D01*
X893750Y1014750D02*
Y1077500D01*
M02*
