M48
;Layer_Color=9474304
;FILE_FORMAT=4:4
METRIC,LZ
;TYPE=PLATED
T1F00S00C0.3000
T2F00S00C0.6000
T3F00S00C0.7500
T4F00S00C0.8800
T5F00S00C1.0160
T6F00S00C1.1000
T7F00S00C1.2000
T8F00S00C1.6600
%
T01
X0014775Y0011325
X00251875Y00131875
X0026675Y00123
X0027875Y001325
X002925Y001235
X0030475Y0014325
X00338366Y00123016
X003355Y0011275
X003325Y0009575
X00309625Y00093125
X0039225Y000605
X00395625Y00179875
X003385Y00272
X00312Y0026975
X003115Y0027925
X0031275Y0031925
X00296Y00305
X0028325Y003105
X0026825Y003055
X0025725Y003095
X003485Y0029575
X0015075Y003475
X000855Y0019525
X004025Y00189
X0041875Y0021325
X0043125Y0022225
X004005Y00232
X004435Y00296
X004565Y002965
X004575Y00316
X00505Y00315
X00506Y00298
X005125Y0026375
X00507Y0025
X00513375Y00205625
X00513Y001865
X005035Y001725
X0049Y0019
X00561Y001925
X005485Y001445
X0050675Y00128
X005125Y001055
X005035Y000695
X0049725Y0004975
X0045375Y000985
X004575Y00122
X0043525Y001225
X0041225Y0036475
X0040275Y003615
X0042175Y0038925
X00444Y0038125
X00505Y00385
X00505Y0036
X005405Y00319
X0065825Y0031625
X00667Y003245
X0066725Y0026475
X006375Y00244268
Y0020375
X00741Y00239
X0076825Y00263
X0078825Y002725
X00788933Y002855
X007925Y0029775
X007515Y0030925
X007435Y00336
X0073225Y003365
X0074325Y0035125
X00751Y0036
X006915Y00372
X0078475Y00249
X007835Y0019775
X008315Y0019675
X0085775Y0024025
X00869Y0025925
X008555Y0028875
X0084525Y002845
X0083725Y00281131
X008295Y00273
X008125Y00272
X008035Y0027675
X0081675Y00254
X0084825Y003145
X00863Y0031225
X008705Y0030675
X00875Y003535
X0088025Y0037875
X0093675Y0037225
X009355Y00353
X009365Y003335
X009465Y00288
Y0027975
X00953Y0027125
X0096275Y0028
Y00288
X00973Y002715
X0098225Y0026275
X009705Y0025275
X0103475Y0025425
X01051Y002225
X010625Y00223
X01072Y002235
X0108375Y00229
X011055Y0023125
X01114Y0023
X0109375Y002095
X0109325Y0019475
X0116225Y0019625
X0116275Y002335
X01181Y00272
X0118575Y00319
X0117925Y00348
X011525Y0035625
X0113725Y0035475
X011175Y003545
X01071875Y00347875
X01065Y00342
X0105675Y00319
X010645Y00307
X0103625Y0030675
X01071Y002845
X008885Y002255
X009Y00118
X00907Y0007825
X008815Y0007775
X0085625Y0007575
X0083175Y000955
X0080575Y000835
X0093225Y0007925
X0117425Y000755
X0119975Y00074
X0119375Y00307494
X012335Y0031375
X012345Y00295
X01491Y0007725
X0151625Y0007675
X0125625Y0071325
X012175Y0071225
X01232Y0075525
X01180838Y00746162
X0115975Y007195
X01159941Y0069975
X01182Y00695
X0117225Y00653
X01082Y006855
X0107675Y0070975
X010955Y007435
X010485Y0065925
X0103875Y005945
X0107925Y00534
X010715Y0051825
X01054Y00495
X0113675Y005345
X011805Y00514
X0118125Y004795
X011135Y0040175
X0096175Y004075
X0094Y0041175
X00899875Y00426875
X0085075Y0041975
X0084935Y00408
X00854Y0047
X0084725Y0051825
X008295Y0051775
X0081775Y00653
X00876Y00644
X00910625Y00635625
X00944Y0064425
X0092725Y00681
X0089375Y0072925
X00855Y00735
X0084275Y007435
X008405Y0076575
X0082875Y007645
X008605Y0077075
X0092425Y007615
X008515Y0070025
X009265Y0058375
X0074325Y0058675
X00743Y005695
X0074575Y004765
X007445Y004495
X00711Y0043075
X00705Y006435
X006805Y0062475
X0063425Y0064475
X00594Y00644
X005245Y0061325
X0052975Y0059475
X005295Y0053475
X0052975Y0051825
X005275Y004935
X005255Y0047575
X0042125Y0047275
X0046725Y005285
X0047325Y005475
X004545Y00544
X00465Y0062825
X0043175Y0063075
X0041875Y006095
X0041225Y0065775
X0044575Y007315
X004645Y0072625
X0046225Y007445
X00517Y007485
X005215Y00728
Y0069425
X0052125Y0067875
X006265Y007805
X0070375Y0078875
X0072075Y0077725
X0074025Y0078225
X007385Y0074325
X00737Y00728
X00742Y00665
X003275Y0070375
X00306Y0070425
X00303431Y00725181
X0029275Y0073825
X002755Y007335
X0025725Y0073725
X0031025Y0075425
X0032575Y0075275
X00344997Y0074225
X00343Y0072325
X003485Y0057475
X0032625Y0057325
X0030925Y0054475
X0029425Y005515
X0028075Y00546
X0026775Y0055125
X003225Y005235
X0035025Y005245
X0035775Y00539
X00360083Y0055095
X0014625Y005455
X00091Y006485
X00153268Y0077725
X00166Y010195
X0029225Y0103125
X003055Y0102675
X0031925Y010295
X003355Y010245
X00351Y010135
X0035125Y010005
X0037925Y0099975
X003755Y01049
X003525Y01052
X00351Y0116175
X003495Y011745
X0032525Y0117925
X0031075Y011835
X002985Y0118
X00284Y011835
X00382Y011885
X0038075Y0116525
X0008675Y0110175
X004475Y01089
X00466661Y01099339
X004935Y0109775
X0048425Y010615
X0048475Y01028
X0050075Y010175
X00535Y01015
X0055625Y0102
X0055825Y00999
X0055475Y0096775
X005555Y009455
X005525Y0106325
X0055175Y0108925
X005535Y01131
X00558Y011505
X0056625Y01177
X00555Y01185
X004835Y01183
X0044575Y0112275
X0044775Y0096
X00452Y008255
X0042725Y0084075
X00397Y00822
X00518Y0082
X0051925Y007955
X0067825Y00796
X0067625Y0089425
X00654Y0089825
X007065Y0091375
X007685Y00934
X00753375Y01003375
X00744Y0101675
X007265Y0103775
X0071075Y010525
X00694Y01054
X0063575Y010415
X0059325Y010405
X0058575Y010615
X0075675Y01044
X0069075Y01171
X0084Y0115
X0087675Y0107625
X00894Y0107775
X009515Y010805
X009925Y010955
X0099275Y01111
X00991Y0118975
X01118Y011405
X0092575Y01042
X008935Y010145
X0085975Y01013
X0085Y010225
X0084075Y0101
X008415Y0099025
X008285Y0103475
X00857375Y01042875
X00866Y0092125
X00897Y00907
X0092775Y00921
X0081475Y009285
X00829Y00812
X0096875Y0082675
X0098125Y00828
X01003Y0082725
X0101375
Y007995
X01003Y0079983
X00984Y0079925
X0097275Y007995
X01059275Y00804725
X0108075Y00804963
X0132425Y0093275
X0134925Y00932
X01349Y0108075
X01325Y01082
X0132375Y0123925
X01349Y0123725
X01349125Y01391625
X01324Y0139075
X01092375Y01262125
X0093525Y01205
X0091275Y0122475
X00879Y012525
X0082Y0135
X0083025Y0147375
X0077425Y01248
X0071925Y012265
X0069475Y0122625
X007195Y0126975
X006375Y0127525
X0063725Y012525
X00625Y01233
X00632Y01219
X0054975Y012475
X0054375Y0127525
X00537Y013145
X00539Y0133925
X0053625Y013665
X0047975Y013645
Y013405
X0046Y013435
X004595Y0135575
X0046Y01385
X00445Y013815
X0044175Y0129975
X0046125Y0127475
X00452Y012575
X00444Y01244
X0048875Y01269
X0047925Y0131475
X0050225Y01194
X00635Y0135
X0048Y0147
X0044
X0041Y01495
X004
X0039
X00395Y01525
X0034675Y0152875
X00344Y0147925
X00274Y0146075
X00285Y01375
X0024Y0139
X0023Y01295
X001815Y012475
X0031725Y01263
X003195Y0130675
X003685Y0133025
X0039125Y013015
X0036475Y01208
X00345Y0120125
X0005025Y014345
T02
X01084Y0046
X011328
T03
X01206Y00778
X01186
X0092625Y0053925
Y0048925
X01199Y00904
X01249
Y01054
X01199
Y01204
X01249
Y01354
X01199
T04
X010406Y01211
X01066
X010914
T05
X00805Y0005
X008304Y0005
X008558Y0005
X008812Y0005
X009066Y0005
X00932Y0005
X010226Y0005
X01048Y0005
X010734Y0005
X011488Y0005
X011742Y0005
X011996Y0005
X01225Y0005
X012504Y0005
X012758Y0005
X013892Y0005
X014146Y0005
X0144Y0005
X014654Y0005
X014908Y0005
X015162Y0005
X0145Y00604
Y00754
Y00904
Y01054
Y01204
Y01354
X00887Y01514
X0083Y01512
T06
X0008Y00385
X00105
X001675
Y00435
X00105
X0008
Y0041
X00105
Y00832
X0008
Y00857
Y00882
X00105
Y00857
X001675Y00882
Y00832
Y01289
Y01339
X00105
X0008
Y01314
Y01289
X00105
Y01314
T07
X001025Y00175
X0007Y00215
X00115Y00255
X001025Y00622
X0007Y00662
X00115Y00702
X001025Y01079
X0007Y01119
X00115Y01159
T08
X000375Y015
X001075
M30
